999
"DXF R12 Output" (www.mydxf.blogspot.com)
 0 
SECTION
 2 
HEADER
 9 
$ACADVER
 1 
AC1009
 9 
$EXTMIN
 10 
 0 
 20 
 0 
 9 
$EXTMAX
 10 
 8.5 
 20 
 11 
 0 
ENDSEC
 0 
SECTION
 2 
ENTITIES
0
POLYLINE
8
Layer 1
62
96
70
0
10
0.000000
20
0.000000
66
1
0
VERTEX
8
Layer 1
10
14.500000
20
6.750000
70
0
0
VERTEX
8
Layer 1
10
14.500000
20
27.750000
70
0
0
SEQEND
8
Layer 1
0
POLYLINE
8
Layer 1
62
96
70
0
10
0.000000
20
0.000000
66
1
0
VERTEX
8
Layer 1
10
24.500000
20
6.750000
70
0
0
VERTEX
8
Layer 1
10
24.500000
20
27.750000
70
0
0
SEQEND
8
Layer 1
0
POLYLINE
8
Layer 1
62
96
70
0
10
0.000000
20
0.000000
66
1
0
VERTEX
8
Layer 1
10
34.500000
20
6.750000
70
0
0
VERTEX
8
Layer 1
10
34.500000
20
27.750000
70
0
0
SEQEND
8
Layer 1
0
POLYLINE
8
Layer 1
62
96
70
0
10
0.000000
20
0.000000
66
1
0
VERTEX
8
Layer 1
10
44.500000
20
6.750000
70
0
0
VERTEX
8
Layer 1
10
44.500000
20
27.750000
70
0
0
SEQEND
8
Layer 1
0
POLYLINE
8
Layer 1
62
96
70
0
10
0.000000
20
0.000000
66
1
0
VERTEX
8
Layer 1
10
54.500000
20
6.750000
70
0
0
VERTEX
8
Layer 1
10
54.500000
20
27.750000
70
0
0
SEQEND
8
Layer 1
0
POLYLINE
8
Layer 1
62
96
70
0
10
0.000000
20
0.000000
66
1
0
VERTEX
8
Layer 1
10
64.500000
20
6.750000
70
0
0
VERTEX
8
Layer 1
10
64.500000
20
27.750000
70
0
0
SEQEND
8
Layer 1
0
POLYLINE
8
Layer 1
62
96
70
0
10
0.000000
20
0.000000
66
1
0
VERTEX
8
Layer 1
10
74.500000
20
6.750000
70
0
0
VERTEX
8
Layer 1
10
74.500000
20
27.750000
70
0
0
SEQEND
8
Layer 1
0
POLYLINE
8
Layer 1
62
96
70
0
10
0.000000
20
0.000000
66
1
0
VERTEX
8
Layer 1
10
84.500000
20
6.750000
70
0
0
VERTEX
8
Layer 1
10
84.500000
20
27.750000
70
0
0
SEQEND
8
Layer 1
0
POLYLINE
8
Layer 1
62
96
70
0
10
0.000000
20
0.000000
66
1
0
VERTEX
8
Layer 1
10
94.500000
20
6.750000
70
0
0
VERTEX
8
Layer 1
10
94.500000
20
27.750000
70
0
0
SEQEND
8
Layer 1
0
POLYLINE
8
Layer 1
62
96
70
0
10
0.000000
20
0.000000
66
1
0
VERTEX
8
Layer 1
10
104.500000
20
6.750000
70
0
0
VERTEX
8
Layer 1
10
104.500000
20
27.750000
70
0
0
SEQEND
8
Layer 1
0
POLYLINE
8
Layer 1
62
96
70
0
10
0.000000
20
0.000000
66
1
0
VERTEX
8
Layer 1
10
114.500000
20
6.750000
70
0
0
VERTEX
8
Layer 1
10
114.500000
20
27.750000
70
0
0
SEQEND
8
Layer 1
0
POLYLINE
8
Layer 1
62
96
70
0
10
0.000000
20
0.000000
66
1
0
VERTEX
8
Layer 1
10
124.500000
20
6.750000
70
0
0
VERTEX
8
Layer 1
10
124.500000
20
27.750000
70
0
0
SEQEND
8
Layer 1
0
POLYLINE
8
Layer 1
62
96
70
0
10
0.000000
20
0.000000
66
1
0
VERTEX
8
Layer 1
10
134.500000
20
6.750000
70
0
0
VERTEX
8
Layer 1
10
134.500000
20
27.750000
70
0
0
SEQEND
8
Layer 1
0
POLYLINE
8
Layer 1
62
96
70
0
10
0.000000
20
0.000000
66
1
0
VERTEX
8
Layer 1
10
144.500000
20
6.750000
70
0
0
VERTEX
8
Layer 1
10
144.500000
20
27.750000
70
0
0
SEQEND
8
Layer 1
0
POLYLINE
8
Layer 1
62
96
70
0
10
0.000000
20
0.000000
66
1
0
VERTEX
8
Layer 1
10
154.500000
20
6.750000
70
0
0
VERTEX
8
Layer 1
10
154.500000
20
27.750000
70
0
0
SEQEND
8
Layer 1
0
POLYLINE
8
Layer 1
62
96
70
0
10
0.000000
20
0.000000
66
1
0
VERTEX
8
Layer 1
10
0.000000
20
27.250000
70
0
0
VERTEX
8
Layer 1
10
159.000000
20
27.250000
70
0
0
SEQEND
8
Layer 1
0
POLYLINE
8
Layer 1
62
96
70
0
10
0.000000
20
0.000000
66
1
0
VERTEX
8
Layer 1
10
0.000000
20
7.250000
70
0
0
VERTEX
8
Layer 1
10
159.000000
20
7.250000
70
0
0
SEQEND
8
Layer 1
0
POLYLINE
8
Layer 1
62
10
70
0
10
0.000000
20
0.000000
66
1
0
VERTEX
8
Layer 1
10
154.500000
20
17.380000
70
0
0
VERTEX
8
Layer 1
10
154.270000
20
17.400000
70
0
0
VERTEX
8
Layer 1
10
153.580000
20
17.460000
70
0
0
VERTEX
8
Layer 1
10
152.430000
20
17.570000
70
0
0
VERTEX
8
Layer 1
10
150.830000
20
17.710000
70
0
0
VERTEX
8
Layer 1
10
148.790000
20
17.900000
70
0
0
VERTEX
8
Layer 1
10
146.330000
20
18.120000
70
0
0
VERTEX
8
Layer 1
10
143.450000
20
18.360000
70
0
0
VERTEX
8
Layer 1
10
140.180000
20
18.640000
70
0
0
VERTEX
8
Layer 1
10
136.530000
20
18.940000
70
0
0
VERTEX
8
Layer 1
10
132.530000
20
19.260000
70
0
0
VERTEX
8
Layer 1
10
128.210000
20
19.600000
70
0
0
VERTEX
8
Layer 1
10
123.580000
20
19.940000
70
0
0
VERTEX
8
Layer 1
10
118.690000
20
20.290000
70
0
0
VERTEX
8
Layer 1
10
113.550000
20
20.650000
70
0
0
VERTEX
8
Layer 1
10
108.200000
20
21.000000
70
0
0
VERTEX
8
Layer 1
10
102.680000
20
21.340000
70
0
0
VERTEX
8
Layer 1
10
97.010000
20
21.670000
70
0
0
VERTEX
8
Layer 1
10
91.230000
20
21.990000
70
0
0
VERTEX
8
Layer 1
10
85.380000
20
22.280000
70
0
0
VERTEX
8
Layer 1
10
79.500000
20
22.540000
70
0
0
VERTEX
8
Layer 1
10
73.620000
20
22.770000
70
0
0
VERTEX
8
Layer 1
10
67.770000
20
22.960000
70
0
0
VERTEX
8
Layer 1
10
61.990000
20
23.110000
70
0
0
VERTEX
8
Layer 1
10
56.320000
20
23.210000
70
0
0
VERTEX
8
Layer 1
10
50.800000
20
23.250000
70
0
0
VERTEX
8
Layer 1
10
45.450000
20
23.230000
70
0
0
VERTEX
8
Layer 1
10
40.310000
20
23.160000
70
0
0
VERTEX
8
Layer 1
10
35.420000
20
23.020000
70
0
0
VERTEX
8
Layer 1
10
30.790000
20
22.820000
70
0
0
VERTEX
8
Layer 1
10
26.470000
20
22.560000
70
0
0
VERTEX
8
Layer 1
10
22.470000
20
22.240000
70
0
0
VERTEX
8
Layer 1
10
18.820000
20
21.850000
70
0
0
VERTEX
8
Layer 1
10
15.550000
20
21.420000
70
0
0
VERTEX
8
Layer 1
10
12.670000
20
20.940000
70
0
0
VERTEX
8
Layer 1
10
10.210000
20
20.410000
70
0
0
VERTEX
8
Layer 1
10
8.170000
20
19.840000
70
0
0
VERTEX
8
Layer 1
10
6.570000
20
19.240000
70
0
0
VERTEX
8
Layer 1
10
5.420000
20
18.600000
70
0
0
VERTEX
8
Layer 1
10
4.730000
20
17.940000
70
0
0
VERTEX
8
Layer 1
10
4.500000
20
17.250000
70
0
0
VERTEX
8
Layer 1
10
4.730000
20
16.560000
70
0
0
VERTEX
8
Layer 1
10
5.420000
20
15.900000
70
0
0
VERTEX
8
Layer 1
10
6.570000
20
15.260000
70
0
0
VERTEX
8
Layer 1
10
8.170000
20
14.660000
70
0
0
VERTEX
8
Layer 1
10
10.210000
20
14.090000
70
0
0
VERTEX
8
Layer 1
10
12.670000
20
13.560000
70
0
0
VERTEX
8
Layer 1
10
15.550000
20
13.080000
70
0
0
VERTEX
8
Layer 1
10
18.820000
20
12.650000
70
0
0
VERTEX
8
Layer 1
10
22.470000
20
12.260000
70
0
0
VERTEX
8
Layer 1
10
26.470000
20
11.940000
70
0
0
VERTEX
8
Layer 1
10
30.790000
20
11.680000
70
0
0
VERTEX
8
Layer 1
10
35.420000
20
11.480000
70
0
0
VERTEX
8
Layer 1
10
40.310000
20
11.340000
70
0
0
VERTEX
8
Layer 1
10
45.450000
20
11.270000
70
0
0
VERTEX
8
Layer 1
10
50.800000
20
11.250000
70
0
0
VERTEX
8
Layer 1
10
56.320000
20
11.290000
70
0
0
VERTEX
8
Layer 1
10
61.990000
20
11.390000
70
0
0
VERTEX
8
Layer 1
10
67.770000
20
11.540000
70
0
0
VERTEX
8
Layer 1
10
73.620000
20
11.730000
70
0
0
VERTEX
8
Layer 1
10
79.500000
20
11.960000
70
0
0
VERTEX
8
Layer 1
10
85.380000
20
12.220000
70
0
0
VERTEX
8
Layer 1
10
91.230000
20
12.510000
70
0
0
VERTEX
8
Layer 1
10
97.010000
20
12.830000
70
0
0
VERTEX
8
Layer 1
10
102.680000
20
13.160000
70
0
0
VERTEX
8
Layer 1
10
108.200000
20
13.500000
70
0
0
VERTEX
8
Layer 1
10
113.550000
20
13.850000
70
0
0
VERTEX
8
Layer 1
10
118.690000
20
14.210000
70
0
0
VERTEX
8
Layer 1
10
123.580000
20
14.560000
70
0
0
VERTEX
8
Layer 1
10
128.210000
20
14.900000
70
0
0
VERTEX
8
Layer 1
10
132.530000
20
15.240000
70
0
0
VERTEX
8
Layer 1
10
136.530000
20
15.560000
70
0
0
VERTEX
8
Layer 1
10
140.180000
20
15.860000
70
0
0
VERTEX
8
Layer 1
10
143.450000
20
16.140000
70
0
0
VERTEX
8
Layer 1
10
146.330000
20
16.380000
70
0
0
VERTEX
8
Layer 1
10
148.790000
20
16.600000
70
0
0
VERTEX
8
Layer 1
10
150.830000
20
16.790000
70
0
0
VERTEX
8
Layer 1
10
152.430000
20
16.930000
70
0
0
VERTEX
8
Layer 1
10
153.580000
20
17.040000
70
0
0
VERTEX
8
Layer 1
10
154.270000
20
17.100000
70
0
0
VERTEX
8
Layer 1
10
154.500000
20
17.120000
70
0
0
SEQEND
8
Layer 1
0
POLYLINE
8
Layer 1
62
170
70
0
10
0.000000
20
0.000000
66
1
0
VERTEX
8
Layer 1
10
4.500000
20
17.250000
70
0
0
VERTEX
8
Layer 1
10
154.500000
20
17.250000
70
0
0
SEQEND
8
Layer 1
0
POLYLINE
8
Layer 1
62
7
70
0
10
0.000000
20
0.000000
66
1
0
VERTEX
8
Layer 1
10
0.000000
20
17.250000
70
0
0
VERTEX
8
Layer 1
10
159.000000
20
17.250000
70
0
0
SEQEND
8
Layer 1
0
POLYLINE
8
Layer 1
62
7
70
0
10
0.000000
20
0.000000
66
1
0
VERTEX
8
Layer 1
10
4.500000
20
6.750000
70
0
0
VERTEX
8
Layer 1
10
4.500000
20
27.750000
70
0
0
SEQEND
8
Layer 1
0
POLYLINE
8
Layer 1
62
7
70
1
10
0.000000
20
0.000000
66
1
0
VERTEX
8
Layer 1
10
1.705664
20
3.750000
70
0
0
VERTEX
8
Layer 1
10
1.705664
20
5.682715
70
0
0
VERTEX
8
Layer 1
10
1.968018
20
5.682715
70
0
0
VERTEX
8
Layer 1
10
2.983154
20
4.165283
70
0
0
VERTEX
8
Layer 1
10
2.983154
20
5.682715
70
0
0
VERTEX
8
Layer 1
10
3.228369
20
5.682715
70
0
0
VERTEX
8
Layer 1
10
3.228369
20
3.750000
70
0
0
VERTEX
8
Layer 1
10
2.966016
20
3.750000
70
0
0
VERTEX
8
Layer 1
10
1.950879
20
5.268750
70
0
0
VERTEX
8
Layer 1
10
1.950879
20
3.750000
70
0
0
VERTEX
8
Layer 1
10
1.705664
20
3.750000
70
0
0
SEQEND
8
Layer 1
0
POLYLINE
8
Layer 1
62
7
70
1
10
0.000000
20
0.000000
66
1
0
VERTEX
8
Layer 1
10
4.541455
20
3.922705
70
0
0
VERTEX
8
Layer 1
10
4.287012
20
3.764502
70
0
0
VERTEX
8
Layer 1
10
4.025976
20
3.718359
70
0
0
VERTEX
8
Layer 1
10
3.671338
20
3.830419
70
0
0
VERTEX
8
Layer 1
10
3.547412
20
4.119140
70
0
0
VERTEX
8
Layer 1
10
3.593555
20
4.306347
70
0
0
VERTEX
8
Layer 1
10
3.716162
20
4.443456
70
0
0
VERTEX
8
Layer 1
10
3.887549
20
4.521239
70
0
0
VERTEX
8
Layer 1
10
4.098487
20
4.556835
70
0
0
VERTEX
8
Layer 1
10
4.521680
20
4.638573
70
0
0
VERTEX
8
Layer 1
10
4.522998
20
4.700537
70
0
0
VERTEX
8
Layer 1
10
4.455762
20
4.904882
70
0
0
VERTEX
8
Layer 1
10
4.185499
20
4.985302
70
0
0
VERTEX
8
Layer 1
10
3.937647
20
4.925975
70
0
0
VERTEX
8
Layer 1
10
3.820312
20
4.718993
70
0
0
VERTEX
8
Layer 1
10
3.588281
20
4.750635
70
0
0
VERTEX
8
Layer 1
10
3.692432
20
4.990576
70
0
0
VERTEX
8
Layer 1
10
3.902051
20
5.131641
70
0
0
VERTEX
8
Layer 1
10
4.219776
20
5.181739
70
0
0
VERTEX
8
Layer 1
10
4.511133
20
5.139552
70
0
0
VERTEX
8
Layer 1
10
4.675928
20
5.032765
70
0
0
VERTEX
8
Layer 1
10
4.749757
20
4.871925
70
0
0
VERTEX
8
Layer 1
10
4.761622
20
4.653078
70
0
0
VERTEX
8
Layer 1
10
4.761622
20
4.336671
70
0
0
VERTEX
8
Layer 1
10
4.776127
20
3.917433
70
0
0
VERTEX
8
Layer 1
10
4.836768
20
3.750000
70
0
0
VERTEX
8
Layer 1
10
4.588916
20
3.750000
70
0
0
VERTEX
8
Layer 1
10
4.541455
20
3.922705
70
0
0
VERTEX
8
Layer 1
10
4.541455
20
3.922705
70
0
0
SEQEND
8
Layer 1
0
POLYLINE
8
Layer 1
62
7
70
0
10
0.000000
20
0.000000
66
1
0
VERTEX
8
Layer 1
10
4.521680
20
4.452685
70
0
0
VERTEX
8
Layer 1
10
4.134082
20
4.363036
70
0
0
VERTEX
8
Layer 1
10
3.927100
20
4.315575
70
0
0
VERTEX
8
Layer 1
10
3.833497
20
4.237792
70
0
0
VERTEX
8
Layer 1
10
3.800537
20
4.125732
70
0
0
VERTEX
8
Layer 1
10
3.871729
20
3.967529
70
0
0
VERTEX
8
Layer 1
10
4.082666
20
3.904247
70
0
0
VERTEX
8
Layer 1
10
4.326563
20
3.963573
70
0
0
VERTEX
8
Layer 1
10
4.483447
20
4.128368
70
0
0
VERTEX
8
Layer 1
10
4.521679
20
4.365673
70
0
0
VERTEX
8
Layer 1
10
4.521680
20
4.452685
70
0
0
SEQEND
8
Layer 1
0
POLYLINE
8
Layer 1
62
7
70
1
10
0.000000
20
0.000000
66
1
0
VERTEX
8
Layer 1
10
5.129443
20
3.750000
70
0
0
VERTEX
8
Layer 1
10
5.129443
20
5.150098
70
0
0
VERTEX
8
Layer 1
10
5.341699
20
5.150098
70
0
0
VERTEX
8
Layer 1
10
5.341699
20
4.953662
70
0
0
VERTEX
8
Layer 1
10
5.517041
20
5.118457
70
0
0
VERTEX
8
Layer 1
10
5.766211
20
5.181739
70
0
0
VERTEX
8
Layer 1
10
6.020654
20
5.117140
70
0
0
VERTEX
8
Layer 1
10
6.161719
20
4.936525
70
0
0
VERTEX
8
Layer 1
10
6.594141
20
5.181740
70
0
0
VERTEX
8
Layer 1
10
6.914502
20
5.065724
70
0
0
VERTEX
8
Layer 1
10
7.026563
20
4.711085
70
0
0
VERTEX
8
Layer 1
10
7.026563
20
3.750000
70
0
0
VERTEX
8
Layer 1
10
6.790576
20
3.750000
70
0
0
VERTEX
8
Layer 1
10
6.790576
20
4.631982
70
0
0
VERTEX
8
Layer 1
10
6.766846
20
4.836328
70
0
0
VERTEX
8
Layer 1
10
6.683790
20
4.937842
70
0
0
VERTEX
8
Layer 1
10
6.541407
20
4.976074
70
0
0
VERTEX
8
Layer 1
10
6.296192
20
4.877197
70
0
0
VERTEX
8
Layer 1
10
6.198633
20
4.563428
70
0
0
VERTEX
8
Layer 1
10
6.198633
20
3.750000
70
0
0
VERTEX
8
Layer 1
10
5.961328
20
3.750000
70
0
0
VERTEX
8
Layer 1
10
5.961328
20
4.659668
70
0
0
VERTEX
8
Layer 1
10
5.903320
20
4.896973
70
0
0
VERTEX
8
Layer 1
10
5.713476
20
4.976074
70
0
0
VERTEX
8
Layer 1
10
5.527588
20
4.923340
70
0
0
VERTEX
8
Layer 1
10
5.404981
20
4.769092
70
0
0
VERTEX
8
Layer 1
10
5.366749
20
4.476416
70
0
0
VERTEX
8
Layer 1
10
5.366749
20
3.750000
70
0
0
VERTEX
8
Layer 1
10
5.129443
20
3.750000
70
0
0
SEQEND
8
Layer 1
0
POLYLINE
8
Layer 1
62
7
70
0
10
0.000000
20
0.000000
66
1
0
VERTEX
8
Layer 1
10
8.337011
20
4.200879
70
0
0
VERTEX
8
Layer 1
10
8.582226
20
4.170556
70
0
0
VERTEX
8
Layer 1
10
8.367334
20
3.837011
70
0
0
VERTEX
8
Layer 1
10
7.966552
20
3.718358
70
0
0
VERTEX
8
Layer 1
10
7.478760
20
3.906884
70
0
0
VERTEX
8
Layer 1
10
7.299463
20
4.438183
70
0
0
VERTEX
8
Layer 1
10
7.481396
20
4.986620
70
0
0
VERTEX
8
Layer 1
10
7.953369
20
5.181737
70
0
0
VERTEX
8
Layer 1
10
8.412158
20
4.990575
70
0
0
VERTEX
8
Layer 1
10
8.590136
20
4.452684
70
0
0
VERTEX
8
Layer 1
10
8.588818
20
4.389404
70
0
0
VERTEX
8
Layer 1
10
7.544678
20
4.389404
70
0
0
VERTEX
8
Layer 1
10
7.675196
20
4.036084
70
0
0
VERTEX
8
Layer 1
10
7.967871
20
3.913477
70
0
0
VERTEX
8
Layer 1
10
8.190674
20
3.982031
70
0
0
VERTEX
8
Layer 1
10
8.337011
20
4.200879
70
0
0
VERTEX
8
Layer 1
10
8.337011
20
4.200879
70
0
0
SEQEND
8
Layer 1
0
POLYLINE
8
Layer 1
62
7
70
0
10
0.000000
20
0.000000
66
1
0
VERTEX
8
Layer 1
10
7.557861
20
4.584521
70
0
0
VERTEX
8
Layer 1
10
8.339648
20
4.584521
70
0
0
VERTEX
8
Layer 1
10
8.250000
20
4.849512
70
0
0
VERTEX
8
Layer 1
10
7.956006
20
4.986621
70
0
0
VERTEX
8
Layer 1
10
7.680468
20
4.877198
70
0
0
VERTEX
8
Layer 1
10
7.557861
20
4.584522
70
0
0
VERTEX
8
Layer 1
10
7.557861
20
4.584521
70
0
0
SEQEND
8
Layer 1
0
POLYLINE
8
Layer 1
62
7
70
0
10
0.000000
20
0.000000
66
1
0
VERTEX
8
Layer 1
10
10.878808
20
4.886426
70
0
0
VERTEX
8
Layer 1
10
9.602636
20
4.886426
70
0
0
VERTEX
8
Layer 1
10
9.602636
20
5.107910
70
0
0
VERTEX
8
Layer 1
10
10.878808
20
5.107910
70
0
0
VERTEX
8
Layer 1
10
10.878808
20
4.886426
70
0
0
SEQEND
8
Layer 1
0
POLYLINE
8
Layer 1
62
7
70
1
10
0.000000
20
0.000000
66
1
0
VERTEX
8
Layer 1
10
10.878808
20
4.299756
70
0
0
VERTEX
8
Layer 1
10
9.602636
20
4.299756
70
0
0
VERTEX
8
Layer 1
10
9.602636
20
4.521240
70
0
0
VERTEX
8
Layer 1
10
10.878808
20
4.521240
70
0
0
VERTEX
8
Layer 1
10
10.878808
20
4.299756
70
0
0
SEQEND
8
Layer 1
0
POLYLINE
8
Layer 1
62
7
70
1
10
0.000000
20
0.000000
66
1
0
VERTEX
8
Layer 1
10
11.984912
20
3.750000
70
0
0
VERTEX
8
Layer 1
10
11.984912
20
5.682715
70
0
0
VERTEX
8
Layer 1
10
12.247265
20
5.682715
70
0
0
VERTEX
8
Layer 1
10
13.262402
20
4.165283
70
0
0
VERTEX
8
Layer 1
10
13.262402
20
5.682715
70
0
0
VERTEX
8
Layer 1
10
13.507617
20
5.682715
70
0
0
VERTEX
8
Layer 1
10
13.507617
20
3.750000
70
0
0
VERTEX
8
Layer 1
10
13.245263
20
3.750000
70
0
0
VERTEX
8
Layer 1
10
12.230127
20
5.268750
70
0
0
VERTEX
8
Layer 1
10
12.230127
20
3.750000
70
0
0
VERTEX
8
Layer 1
10
11.984912
20
3.750000
70
0
0
SEQEND
8
Layer 1
0
POLYLINE
8
Layer 1
62
7
70
1
10
0.000000
20
0.000000
66
1
0
VERTEX
8
Layer 1
10
13.725146
20
3.750000
70
0
0
VERTEX
8
Layer 1
10
14.467382
20
5.682715
70
0
0
VERTEX
8
Layer 1
10
14.742919
20
5.682715
70
0
0
VERTEX
8
Layer 1
10
15.533934
20
3.750000
70
0
0
VERTEX
8
Layer 1
10
15.242577
20
3.750000
70
0
0
VERTEX
8
Layer 1
10
15.017137
20
4.335352
70
0
0
VERTEX
8
Layer 1
10
14.208984
20
4.335352
70
0
0
VERTEX
8
Layer 1
10
13.996728
20
3.750000
70
0
0
VERTEX
8
Layer 1
10
13.725146
20
3.750000
70
0
0
SEQEND
8
Layer 1
0
POLYLINE
8
Layer 1
62
7
70
1
10
0.000000
20
0.000000
66
1
0
VERTEX
8
Layer 1
10
14.282812
20
4.543652
70
0
0
VERTEX
8
Layer 1
10
14.938036
20
4.543652
70
0
0
VERTEX
8
Layer 1
10
14.736327
20
5.078906
70
0
0
VERTEX
8
Layer 1
10
14.599218
20
5.479687
70
0
0
VERTEX
8
Layer 1
10
14.495067
20
5.110547
70
0
0
VERTEX
8
Layer 1
10
14.282812
20
4.543652
70
0
0
SEQEND
8
Layer 1
0
POLYLINE
8
Layer 1
62
7
70
0
10
0.000000
20
0.000000
66
1
0
VERTEX
8
Layer 1
10
17.117284
20
4.427636
70
0
0
VERTEX
8
Layer 1
10
17.373046
20
4.363037
70
0
0
VERTEX
8
Layer 1
10
17.083008
20
3.881836
70
0
0
VERTEX
8
Layer 1
10
16.572802
20
3.717041
70
0
0
VERTEX
8
Layer 1
10
16.063916
20
3.843604
70
0
0
VERTEX
8
Layer 1
10
15.765966
20
4.212744
70
0
0
VERTEX
8
Layer 1
10
15.664461
20
4.730859
70
0
0
VERTEX
8
Layer 1
10
15.779151
20
5.256885
70
0
0
VERTEX
8
Layer 1
10
16.107423
20
5.598340
70
0
0
VERTEX
8
Layer 1
10
16.576760
20
5.715674
70
0
0
VERTEX
8
Layer 1
10
17.064552
20
5.568018
70
0
0
VERTEX
8
Layer 1
10
17.340089
20
5.152734
70
0
0
VERTEX
8
Layer 1
10
17.088282
20
5.093408
70
0
0
VERTEX
8
Layer 1
10
16.893165
20
5.400586
70
0
0
VERTEX
8
Layer 1
10
16.571486
20
5.496826
70
0
0
VERTEX
8
Layer 1
10
16.198391
20
5.390039
70
0
0
VERTEX
8
Layer 1
10
15.988770
20
5.102636
70
0
0
VERTEX
8
Layer 1
10
15.928125
20
4.732177
70
0
0
VERTEX
8
Layer 1
10
15.999315
20
4.301074
70
0
0
VERTEX
8
Layer 1
10
16.223436
20
4.026855
70
0
0
VERTEX
8
Layer 1
10
16.551707
20
3.935889
70
0
0
VERTEX
8
Layer 1
10
16.915575
20
4.059815
70
0
0
VERTEX
8
Layer 1
10
17.117283
20
4.427637
70
0
0
VERTEX
8
Layer 1
10
17.117284
20
4.427636
70
0
0
SEQEND
8
Layer 1
0
POLYLINE
8
Layer 1
62
7
70
1
10
0.000000
20
0.000000
66
1
0
VERTEX
8
Layer 1
10
17.475877
20
3.750000
70
0
0
VERTEX
8
Layer 1
10
18.218115
20
5.682715
70
0
0
VERTEX
8
Layer 1
10
18.493651
20
5.682715
70
0
0
VERTEX
8
Layer 1
10
19.284668
20
3.750000
70
0
0
VERTEX
8
Layer 1
10
18.993309
20
3.750000
70
0
0
VERTEX
8
Layer 1
10
18.767869
20
4.335352
70
0
0
VERTEX
8
Layer 1
10
17.959716
20
4.335352
70
0
0
VERTEX
8
Layer 1
10
17.747460
20
3.750000
70
0
0
VERTEX
8
Layer 1
10
17.475877
20
3.750000
70
0
0
SEQEND
8
Layer 1
0
POLYLINE
8
Layer 1
62
7
70
1
10
0.000000
20
0.000000
66
1
0
VERTEX
8
Layer 1
10
18.033545
20
4.543652
70
0
0
VERTEX
8
Layer 1
10
18.688769
20
4.543652
70
0
0
VERTEX
8
Layer 1
10
18.487059
20
5.078906
70
0
0
VERTEX
8
Layer 1
10
18.349950
20
5.479687
70
0
0
VERTEX
8
Layer 1
10
18.245801
20
5.110547
70
0
0
VERTEX
8
Layer 1
10
18.033545
20
4.543652
70
0
0
SEQEND
8
Layer 1
0
POLYLINE
8
Layer 1
62
7
70
0
10
0.000000
20
0.000000
66
1
0
VERTEX
8
Layer 1
10
19.993944
20
4.703174
70
0
0
VERTEX
8
Layer 1
10
20.063814
20
5.254248
70
0
0
VERTEX
8
Layer 1
10
20.273433
20
5.577246
70
0
0
VERTEX
8
Layer 1
10
20.624116
20
5.690625
70
0
0
VERTEX
8
Layer 1
10
20.897018
20
5.627344
70
0
0
VERTEX
8
Layer 1
10
21.090816
20
5.446728
70
0
0
VERTEX
8
Layer 1
10
21.210786
20
5.159326
70
0
0
VERTEX
8
Layer 1
10
21.254286
20
4.703174
70
0
0
VERTEX
8
Layer 1
10
21.184416
20
4.153418
70
0
0
VERTEX
8
Layer 1
10
20.974797
20
3.830420
70
0
0
VERTEX
8
Layer 1
10
20.624113
20
3.717041
70
0
0
VERTEX
8
Layer 1
10
20.185101
20
3.917432
70
0
0
VERTEX
8
Layer 1
10
19.993938
20
4.703174
70
0
0
VERTEX
8
Layer 1
10
19.993944
20
4.703174
70
0
0
SEQEND
8
Layer 1
0
POLYLINE
8
Layer 1
62
7
70
0
10
0.000000
20
0.000000
66
1
0
VERTEX
8
Layer 1
10
20.237841
20
4.703174
70
0
0
VERTEX
8
Layer 1
10
20.348586
20
4.069043
70
0
0
VERTEX
8
Layer 1
10
20.624122
20
3.912158
70
0
0
VERTEX
8
Layer 1
10
20.898342
20
4.070361
70
0
0
VERTEX
8
Layer 1
10
21.010407
20
4.703174
70
0
0
VERTEX
8
Layer 1
10
20.898342
20
5.337305
70
0
0
VERTEX
8
Layer 1
10
20.621485
20
5.494189
70
0
0
VERTEX
8
Layer 1
10
20.360451
20
5.355762
70
0
0
VERTEX
8
Layer 1
10
20.237841
20
4.703174
70
0
0
VERTEX
8
Layer 1
10
20.237841
20
4.703174
70
0
0
SEQEND
8
Layer 1
0
POLYLINE
8
Layer 1
62
7
70
0
10
0.000000
20
0.000000
66
1
0
VERTEX
8
Layer 1
10
21.495556
20
4.703174
70
0
0
VERTEX
8
Layer 1
10
21.565426
20
5.254248
70
0
0
VERTEX
8
Layer 1
10
21.775045
20
5.577246
70
0
0
VERTEX
8
Layer 1
10
22.125729
20
5.690625
70
0
0
VERTEX
8
Layer 1
10
22.398630
20
5.627344
70
0
0
VERTEX
8
Layer 1
10
22.592428
20
5.446728
70
0
0
VERTEX
8
Layer 1
10
22.712398
20
5.159326
70
0
0
VERTEX
8
Layer 1
10
22.755899
20
4.703174
70
0
0
VERTEX
8
Layer 1
10
22.686028
20
4.153418
70
0
0
VERTEX
8
Layer 1
10
22.476409
20
3.830420
70
0
0
VERTEX
8
Layer 1
10
22.125726
20
3.717041
70
0
0
VERTEX
8
Layer 1
10
21.686712
20
3.917432
70
0
0
VERTEX
8
Layer 1
10
21.495551
20
4.703174
70
0
0
VERTEX
8
Layer 1
10
21.495556
20
4.703174
70
0
0
SEQEND
8
Layer 1
0
POLYLINE
8
Layer 1
62
7
70
0
10
0.000000
20
0.000000
66
1
0
VERTEX
8
Layer 1
10
21.739453
20
4.703174
70
0
0
VERTEX
8
Layer 1
10
21.850198
20
4.069043
70
0
0
VERTEX
8
Layer 1
10
22.125735
20
3.912158
70
0
0
VERTEX
8
Layer 1
10
22.399954
20
4.070361
70
0
0
VERTEX
8
Layer 1
10
22.512019
20
4.703174
70
0
0
VERTEX
8
Layer 1
10
22.399954
20
5.337305
70
0
0
VERTEX
8
Layer 1
10
22.123098
20
5.494189
70
0
0
VERTEX
8
Layer 1
10
21.862063
20
5.355762
70
0
0
VERTEX
8
Layer 1
10
21.739453
20
4.703174
70
0
0
VERTEX
8
Layer 1
10
21.739453
20
4.703174
70
0
0
SEQEND
8
Layer 1
0
POLYLINE
8
Layer 1
62
7
70
0
10
0.000000
20
0.000000
66
1
0
VERTEX
8
Layer 1
10
22.997167
20
4.703174
70
0
0
VERTEX
8
Layer 1
10
23.067037
20
5.254248
70
0
0
VERTEX
8
Layer 1
10
23.276656
20
5.577246
70
0
0
VERTEX
8
Layer 1
10
23.627340
20
5.690625
70
0
0
VERTEX
8
Layer 1
10
23.900241
20
5.627344
70
0
0
VERTEX
8
Layer 1
10
24.094040
20
5.446728
70
0
0
VERTEX
8
Layer 1
10
24.214009
20
5.159326
70
0
0
VERTEX
8
Layer 1
10
24.257509
20
4.703174
70
0
0
VERTEX
8
Layer 1
10
24.187639
20
4.153418
70
0
0
VERTEX
8
Layer 1
10
23.978020
20
3.830420
70
0
0
VERTEX
8
Layer 1
10
23.627337
20
3.717041
70
0
0
VERTEX
8
Layer 1
10
23.188323
20
3.917432
70
0
0
VERTEX
8
Layer 1
10
22.997162
20
4.703174
70
0
0
VERTEX
8
Layer 1
10
22.997167
20
4.703174
70
0
0
SEQEND
8
Layer 1
0
POLYLINE
8
Layer 1
62
7
70
0
10
0.000000
20
0.000000
66
1
0
VERTEX
8
Layer 1
10
23.241063
20
4.703174
70
0
0
VERTEX
8
Layer 1
10
23.351808
20
4.069043
70
0
0
VERTEX
8
Layer 1
10
23.627344
20
3.912158
70
0
0
VERTEX
8
Layer 1
10
23.901562
20
4.070361
70
0
0
VERTEX
8
Layer 1
10
24.013627
20
4.703174
70
0
0
VERTEX
8
Layer 1
10
23.901562
20
5.337305
70
0
0
VERTEX
8
Layer 1
10
23.624707
20
5.494189
70
0
0
VERTEX
8
Layer 1
10
23.363673
20
5.355762
70
0
0
VERTEX
8
Layer 1
10
23.241063
20
4.703174
70
0
0
VERTEX
8
Layer 1
10
23.241063
20
4.703174
70
0
0
SEQEND
8
Layer 1
0
POLYLINE
8
Layer 1
62
7
70
0
10
0.000000
20
0.000000
66
1
0
VERTEX
8
Layer 1
10
24.863965
20
4.798095
70
0
0
VERTEX
8
Layer 1
10
24.645117
20
4.952343
70
0
0
VERTEX
8
Layer 1
10
24.573927
20
5.192285
70
0
0
VERTEX
8
Layer 1
10
24.725538
20
5.546923
70
0
0
VERTEX
8
Layer 1
10
25.128957
20
5.690625
70
0
0
VERTEX
8
Layer 1
10
25.536330
20
5.542968
70
0
0
VERTEX
8
Layer 1
10
25.690578
20
5.185693
70
0
0
VERTEX
8
Layer 1
10
25.619388
20
4.951025
70
0
0
VERTEX
8
Layer 1
10
25.405813
20
4.798095
70
0
0
VERTEX
8
Layer 1
10
25.676077
20
4.610888
70
0
0
VERTEX
8
Layer 1
10
25.769677
20
4.302392
70
0
0
VERTEX
8
Layer 1
10
25.594336
20
3.885791
70
0
0
VERTEX
8
Layer 1
10
25.132909
20
3.717041
70
0
0
VERTEX
8
Layer 1
10
24.671484
20
3.885791
70
0
0
VERTEX
8
Layer 1
10
24.496143
20
4.308984
70
0
0
VERTEX
8
Layer 1
10
24.591063
20
4.624072
70
0
0
VERTEX
8
Layer 1
10
24.863964
20
4.798095
70
0
0
VERTEX
8
Layer 1
10
24.863965
20
4.798095
70
0
0
SEQEND
8
Layer 1
0
POLYLINE
8
Layer 1
62
7
70
0
10
0.000000
20
0.000000
66
1
0
VERTEX
8
Layer 1
10
24.816505
20
5.200195
70
0
0
VERTEX
8
Layer 1
10
24.904840
20
4.976074
70
0
0
VERTEX
8
Layer 1
10
25.134234
20
4.889062
70
0
0
VERTEX
8
Layer 1
10
25.358355
20
4.974755
70
0
0
VERTEX
8
Layer 1
10
25.446690
20
5.187011
70
0
0
VERTEX
8
Layer 1
10
25.355730
20
5.405859
70
0
0
VERTEX
8
Layer 1
10
25.131609
20
5.495507
70
0
0
VERTEX
8
Layer 1
10
24.906170
20
5.408495
70
0
0
VERTEX
8
Layer 1
10
24.816515
20
5.200195
70
0
0
VERTEX
8
Layer 1
10
24.816505
20
5.200195
70
0
0
SEQEND
8
Layer 1
0
POLYLINE
8
Layer 1
62
7
70
0
10
0.000000
20
0.000000
66
1
0
VERTEX
8
Layer 1
10
24.740035
20
4.307665
70
0
0
VERTEX
8
Layer 1
10
24.787495
20
4.111230
70
0
0
VERTEX
8
Layer 1
10
24.931196
20
3.963574
70
0
0
VERTEX
8
Layer 1
10
25.135541
20
3.912159
70
0
0
VERTEX
8
Layer 1
10
25.416351
20
4.021582
70
0
0
VERTEX
8
Layer 1
10
25.527096
20
4.299756
70
0
0
VERTEX
8
Layer 1
10
25.412406
20
4.583203
70
0
0
VERTEX
8
Layer 1
10
25.127640
20
4.695264
70
0
0
VERTEX
8
Layer 1
10
24.849467
20
4.584522
70
0
0
VERTEX
8
Layer 1
10
24.740042
20
4.307667
70
0
0
VERTEX
8
Layer 1
10
24.740035
20
4.307665
70
0
0
SEQEND
8
Layer 1
0
POLYLINE
8
Layer 1
62
7
70
1
10
0.000000
20
0.000000
66
1
0
VERTEX
8
Layer 1
10
26.485546
20
3.750000
70
0
0
VERTEX
8
Layer 1
10
27.227783
20
5.682715
70
0
0
VERTEX
8
Layer 1
10
27.503321
20
5.682715
70
0
0
VERTEX
8
Layer 1
10
28.294337
20
3.750000
70
0
0
VERTEX
8
Layer 1
10
28.002978
20
3.750000
70
0
0
VERTEX
8
Layer 1
10
27.777538
20
4.335352
70
0
0
VERTEX
8
Layer 1
10
26.969385
20
4.335352
70
0
0
VERTEX
8
Layer 1
10
26.757129
20
3.750000
70
0
0
VERTEX
8
Layer 1
10
26.485546
20
3.750000
70
0
0
SEQEND
8
Layer 1
0
POLYLINE
8
Layer 1
62
7
70
0
10
0.000000
20
0.000000
66
1
0
VERTEX
8
Layer 1
10
27.043214
20
4.543652
70
0
0
VERTEX
8
Layer 1
10
27.698437
20
4.543652
70
0
0
VERTEX
8
Layer 1
10
27.496728
20
5.078906
70
0
0
VERTEX
8
Layer 1
10
27.359613
20
5.479687
70
0
0
VERTEX
8
Layer 1
10
27.255468
20
5.110547
70
0
0
VERTEX
8
Layer 1
10
27.043214
20
4.543652
70
0
0
SEQEND
8
Layer 1
0
POLYLINE
8
Layer 1
62
7
70
1
10
0.000000
20
0.000000
66
1
0
VERTEX
8
Layer 1
10
28.469679
20
5.409814
70
0
0
VERTEX
8
Layer 1
10
28.469679
20
5.682715
70
0
0
VERTEX
8
Layer 1
10
28.706983
20
5.682715
70
0
0
VERTEX
8
Layer 1
10
28.706983
20
5.409814
70
0
0
VERTEX
8
Layer 1
10
28.469679
20
5.409814
70
0
0
SEQEND
8
Layer 1
0
POLYLINE
8
Layer 1
62
7
70
1
10
0.000000
20
0.000000
66
1
0
VERTEX
8
Layer 1
10
28.469679
20
3.750000
70
0
0
VERTEX
8
Layer 1
10
28.469679
20
5.150098
70
0
0
VERTEX
8
Layer 1
10
28.706983
20
5.150098
70
0
0
VERTEX
8
Layer 1
10
28.706983
20
3.750000
70
0
0
VERTEX
8
Layer 1
10
28.469679
20
3.750000
70
0
0
SEQEND
8
Layer 1
0
POLYLINE
8
Layer 1
62
7
70
1
10
0.000000
20
0.000000
66
1
0
VERTEX
8
Layer 1
10
29.065577
20
3.750000
70
0
0
VERTEX
8
Layer 1
10
29.065577
20
5.150098
70
0
0
VERTEX
8
Layer 1
10
29.279151
20
5.150098
70
0
0
VERTEX
8
Layer 1
10
29.279151
20
4.937842
70
0
0
VERTEX
8
Layer 1
10
29.429443
20
5.134277
70
0
0
VERTEX
8
Layer 1
10
29.582373
20
5.181739
70
0
0
VERTEX
8
Layer 1
10
29.826270
20
5.105273
70
0
0
VERTEX
8
Layer 1
10
29.744535
20
4.885107
70
0
0
VERTEX
8
Layer 1
10
29.570511
20
4.936523
70
0
0
VERTEX
8
Layer 1
10
29.430771
20
4.889061
70
0
0
VERTEX
8
Layer 1
10
29.342436
20
4.759862
70
0
0
VERTEX
8
Layer 1
10
29.302881
20
4.483006
70
0
0
VERTEX
8
Layer 1
10
29.302881
20
3.750000
70
0
0
VERTEX
8
Layer 1
10
29.065577
20
3.750000
70
0
0
SEQEND
8
Layer 1
0
POLYLINE
8
Layer 1
62
7
70
1
10
0.000000
20
0.000000
66
1
0
VERTEX
8
Layer 1
10
30.024023
20
3.750000
70
0
0
VERTEX
8
Layer 1
10
30.024023
20
4.965527
70
0
0
VERTEX
8
Layer 1
10
29.814404
20
4.965527
70
0
0
VERTEX
8
Layer 1
10
29.814404
20
5.150098
70
0
0
VERTEX
8
Layer 1
10
30.024023
20
5.150098
70
0
0
VERTEX
8
Layer 1
10
30.024023
20
5.299072
70
0
0
VERTEX
8
Layer 1
10
30.049073
20
5.508691
70
0
0
VERTEX
8
Layer 1
10
30.169042
20
5.657666
70
0
0
VERTEX
8
Layer 1
10
30.411620
20
5.715674
70
0
0
VERTEX
8
Layer 1
10
30.633105
20
5.691943
70
0
0
VERTEX
8
Layer 1
10
30.597510
20
5.484961
70
0
0
VERTEX
8
Layer 1
10
30.457770
20
5.498144
70
0
0
VERTEX
8
Layer 1
10
30.304840
20
5.452002
70
0
0
VERTEX
8
Layer 1
10
30.260020
20
5.279297
70
0
0
VERTEX
8
Layer 1
10
30.260020
20
5.150098
70
0
0
VERTEX
8
Layer 1
10
30.532921
20
5.150098
70
0
0
VERTEX
8
Layer 1
10
30.532921
20
4.965527
70
0
0
VERTEX
8
Layer 1
10
30.260008
20
4.965527
70
0
0
VERTEX
8
Layer 1
10
30.260008
20
3.750000
70
0
0
VERTEX
8
Layer 1
10
30.024023
20
3.750000
70
0
0
SEQEND
8
Layer 1
0
POLYLINE
8
Layer 1
62
7
70
0
10
0.000000
20
0.000000
66
1
0
VERTEX
8
Layer 1
10
30.629148
20
4.450049
70
0
0
VERTEX
8
Layer 1
10
30.845360
20
5.026172
70
0
0
VERTEX
8
Layer 1
10
31.285692
20
5.181738
70
0
0
VERTEX
8
Layer 1
10
31.757664
20
4.991895
70
0
0
VERTEX
8
Layer 1
10
31.940916
20
4.469824
70
0
0
VERTEX
8
Layer 1
10
31.859181
20
4.043994
70
0
0
VERTEX
8
Layer 1
10
31.623195
20
3.804053
70
0
0
VERTEX
8
Layer 1
10
31.285695
20
3.718359
70
0
0
VERTEX
8
Layer 1
10
30.809768
20
3.906885
70
0
0
VERTEX
8
Layer 1
10
30.629151
20
4.450049
70
0
0
VERTEX
8
Layer 1
10
30.629148
20
4.450049
70
0
0
SEQEND
8
Layer 1
0
POLYLINE
8
Layer 1
62
7
70
0
10
0.000000
20
0.000000
66
1
0
VERTEX
8
Layer 1
10
30.873045
20
4.450049
70
0
0
VERTEX
8
Layer 1
10
30.990375
20
4.046631
70
0
0
VERTEX
8
Layer 1
10
31.285688
20
3.913477
70
0
0
VERTEX
8
Layer 1
10
31.579682
20
4.047949
70
0
0
VERTEX
8
Layer 1
10
31.697012
20
4.457959
70
0
0
VERTEX
8
Layer 1
10
31.578362
20
4.850830
70
0
0
VERTEX
8
Layer 1
10
31.285686
20
4.985302
70
0
0
VERTEX
8
Layer 1
10
30.990374
20
4.852149
70
0
0
VERTEX
8
Layer 1
10
30.873044
20
4.450049
70
0
0
VERTEX
8
Layer 1
10
30.873045
20
4.450049
70
0
0
SEQEND
8
Layer 1
0
POLYLINE
8
Layer 1
62
7
70
1
10
0.000000
20
0.000000
66
1
0
VERTEX
8
Layer 1
10
32.220411
20
5.409814
70
0
0
VERTEX
8
Layer 1
10
32.220411
20
5.682715
70
0
0
VERTEX
8
Layer 1
10
32.457716
20
5.682715
70
0
0
VERTEX
8
Layer 1
10
32.457716
20
5.409814
70
0
0
VERTEX
8
Layer 1
10
32.220411
20
5.409814
70
0
0
SEQEND
8
Layer 1
0
POLYLINE
8
Layer 1
62
7
70
1
10
0.000000
20
0.000000
66
1
0
VERTEX
8
Layer 1
10
32.220411
20
3.750000
70
0
0
VERTEX
8
Layer 1
10
32.220411
20
5.150098
70
0
0
VERTEX
8
Layer 1
10
32.457716
20
5.150098
70
0
0
VERTEX
8
Layer 1
10
32.457716
20
3.750000
70
0
0
VERTEX
8
Layer 1
10
32.220411
20
3.750000
70
0
0
SEQEND
8
Layer 1
0
POLYLINE
8
Layer 1
62
7
70
1
10
0.000000
20
0.000000
66
1
0
VERTEX
8
Layer 1
10
32.813673
20
3.750000
70
0
0
VERTEX
8
Layer 1
10
32.813673
20
5.682715
70
0
0
VERTEX
8
Layer 1
10
33.050978
20
5.682715
70
0
0
VERTEX
8
Layer 1
10
33.050978
20
3.750000
70
0
0
VERTEX
8
Layer 1
10
32.813673
20
3.750000
70
0
0
SEQEND
8
Layer 1
0
POLYLINE
8
Layer 1
62
7
70
1
10
0.000000
20
0.000000
66
1
0
VERTEX
8
Layer 1
10
34.191357
20
3.750000
70
0
0
VERTEX
8
Layer 1
10
34.191357
20
5.682715
70
0
0
VERTEX
8
Layer 1
10
34.576318
20
5.682715
70
0
0
VERTEX
8
Layer 1
10
35.033788
20
4.314258
70
0
0
VERTEX
8
Layer 1
10
35.126069
20
4.028174
70
0
0
VERTEX
8
Layer 1
10
35.228893
20
4.337988
70
0
0
VERTEX
8
Layer 1
10
35.691639
20
5.682715
70
0
0
VERTEX
8
Layer 1
10
36.035730
20
5.682715
70
0
0
VERTEX
8
Layer 1
10
36.035730
20
3.750000
70
0
0
VERTEX
8
Layer 1
10
35.789209
20
3.750000
70
0
0
VERTEX
8
Layer 1
10
35.789209
20
5.367627
70
0
0
VERTEX
8
Layer 1
10
35.227588
20
3.750000
70
0
0
VERTEX
8
Layer 1
10
34.996875
20
3.750000
70
0
0
VERTEX
8
Layer 1
10
34.437891
20
5.395312
70
0
0
VERTEX
8
Layer 1
10
34.437891
20
3.750000
70
0
0
VERTEX
8
Layer 1
10
34.191357
20
3.750000
70
0
0
SEQEND
8
Layer 1
0
POLYLINE
8
Layer 1
62
7
70
0
10
0.000000
20
0.000000
66
1
0
VERTEX
8
Layer 1
10
37.666551
20
4.886426
70
0
0
VERTEX
8
Layer 1
10
36.390378
20
4.886426
70
0
0
VERTEX
8
Layer 1
10
36.390378
20
5.107910
70
0
0
VERTEX
8
Layer 1
10
37.666551
20
5.107910
70
0
0
VERTEX
8
Layer 1
10
37.666551
20
4.886426
70
0
0
SEQEND
8
Layer 1
0
POLYLINE
8
Layer 1
62
7
70
0
10
0.000000
20
0.000000
66
1
0
VERTEX
8
Layer 1
10
37.666551
20
4.299756
70
0
0
VERTEX
8
Layer 1
10
36.390378
20
4.299756
70
0
0
VERTEX
8
Layer 1
10
36.390378
20
4.521240
70
0
0
VERTEX
8
Layer 1
10
37.666551
20
4.521240
70
0
0
VERTEX
8
Layer 1
10
37.666551
20
4.299756
70
0
0
SEQEND
8
Layer 1
0
POLYLINE
8
Layer 1
62
7
70
0
10
0.000000
20
0.000000
66
1
0
VERTEX
8
Layer 1
10
37.928904
20
4.703174
70
0
0
VERTEX
8
Layer 1
10
37.998774
20
5.254248
70
0
0
VERTEX
8
Layer 1
10
38.208393
20
5.577246
70
0
0
VERTEX
8
Layer 1
10
38.559078
20
5.690625
70
0
0
VERTEX
8
Layer 1
10
38.831977
20
5.627344
70
0
0
VERTEX
8
Layer 1
10
39.025776
20
5.446728
70
0
0
VERTEX
8
Layer 1
10
39.145746
20
5.159326
70
0
0
VERTEX
8
Layer 1
10
39.189246
20
4.703174
70
0
0
VERTEX
8
Layer 1
10
39.119376
20
4.153418
70
0
0
VERTEX
8
Layer 1
10
38.909757
20
3.830420
70
0
0
VERTEX
8
Layer 1
10
38.559073
20
3.717041
70
0
0
VERTEX
8
Layer 1
10
38.120059
20
3.917432
70
0
0
VERTEX
8
Layer 1
10
37.928896
20
4.703174
70
0
0
VERTEX
8
Layer 1
10
37.928904
20
4.703174
70
0
0
SEQEND
8
Layer 1
0
POLYLINE
8
Layer 1
62
7
70
0
10
0.000000
20
0.000000
66
1
0
VERTEX
8
Layer 1
10
38.172801
20
4.703174
70
0
0
VERTEX
8
Layer 1
10
38.283546
20
4.069043
70
0
0
VERTEX
8
Layer 1
10
38.559084
20
3.912158
70
0
0
VERTEX
8
Layer 1
10
38.833302
20
4.070361
70
0
0
VERTEX
8
Layer 1
10
38.945367
20
4.703174
70
0
0
VERTEX
8
Layer 1
10
38.833302
20
5.337305
70
0
0
VERTEX
8
Layer 1
10
38.556447
20
5.494189
70
0
0
VERTEX
8
Layer 1
10
38.295411
20
5.355762
70
0
0
VERTEX
8
Layer 1
10
38.172801
20
4.703174
70
0
0
VERTEX
8
Layer 1
10
38.172801
20
4.703174
70
0
0
SEQEND
8
Layer 1
0
POLYLINE
8
Layer 1
62
7
70
1
10
0.000000
20
0.000000
66
1
0
VERTEX
8
Layer 1
10
39.563670
20
3.750000
70
0
0
VERTEX
8
Layer 1
10
39.563670
20
4.020264
70
0
0
VERTEX
8
Layer 1
10
39.833932
20
4.020264
70
0
0
VERTEX
8
Layer 1
10
39.833932
20
3.750000
70
0
0
VERTEX
8
Layer 1
10
39.563670
20
3.750000
70
0
0
SEQEND
8
Layer 1
0
POLYLINE
8
Layer 1
62
7
70
0
10
0.000000
20
0.000000
66
1
0
VERTEX
8
Layer 1
10
40.180663
20
4.703174
70
0
0
VERTEX
8
Layer 1
10
40.250533
20
5.254248
70
0
0
VERTEX
8
Layer 1
10
40.460152
20
5.577246
70
0
0
VERTEX
8
Layer 1
10
40.810837
20
5.690625
70
0
0
VERTEX
8
Layer 1
10
41.083737
20
5.627344
70
0
0
VERTEX
8
Layer 1
10
41.277535
20
5.446728
70
0
0
VERTEX
8
Layer 1
10
41.397505
20
5.159326
70
0
0
VERTEX
8
Layer 1
10
41.441005
20
4.703174
70
0
0
VERTEX
8
Layer 1
10
41.371135
20
4.153418
70
0
0
VERTEX
8
Layer 1
10
41.161516
20
3.830420
70
0
0
VERTEX
8
Layer 1
10
40.810833
20
3.717041
70
0
0
VERTEX
8
Layer 1
10
40.371819
20
3.917432
70
0
0
VERTEX
8
Layer 1
10
40.180656
20
4.703174
70
0
0
VERTEX
8
Layer 1
10
40.180663
20
4.703174
70
0
0
SEQEND
8
Layer 1
0
POLYLINE
8
Layer 1
62
7
70
0
10
0.000000
20
0.000000
66
1
0
VERTEX
8
Layer 1
10
40.424560
20
4.703174
70
0
0
VERTEX
8
Layer 1
10
40.535305
20
4.069043
70
0
0
VERTEX
8
Layer 1
10
40.810843
20
3.912158
70
0
0
VERTEX
8
Layer 1
10
41.085061
20
4.070361
70
0
0
VERTEX
8
Layer 1
10
41.197126
20
4.703174
70
0
0
VERTEX
8
Layer 1
10
41.085061
20
5.337305
70
0
0
VERTEX
8
Layer 1
10
40.808206
20
5.494189
70
0
0
VERTEX
8
Layer 1
10
40.547170
20
5.355762
70
0
0
VERTEX
8
Layer 1
10
40.424560
20
4.703174
70
0
0
VERTEX
8
Layer 1
10
40.424560
20
4.703174
70
0
0
SEQEND
8
Layer 1
0
POLYLINE
8
Layer 1
62
7
70
0
10
0.000000
20
0.000000
66
1
0
VERTEX
8
Layer 1
10
41.727099
20
5.218652
70
0
0
VERTEX
8
Layer 1
10
41.831244
20
5.570654
70
0
0
VERTEX
8
Layer 1
10
42.133147
20
5.715674
70
0
0
VERTEX
8
Layer 1
10
42.433734
20
5.585156
70
0
0
VERTEX
8
Layer 1
10
42.553704
20
5.204150
70
0
0
VERTEX
8
Layer 1
10
42.432414
20
4.825781
70
0
0
VERTEX
8
Layer 1
10
42.135783
20
4.693945
70
0
0
VERTEX
8
Layer 1
10
41.843107
20
4.824463
70
0
0
VERTEX
8
Layer 1
10
41.727097
20
5.218652
70
0
0
VERTEX
8
Layer 1
10
41.727099
20
5.218652
70
0
0
SEQEND
8
Layer 1
0
POLYLINE
8
Layer 1
62
7
70
0
10
0.000000
20
0.000000
66
1
0
VERTEX
8
Layer 1
10
42.139746
20
5.552197
70
0
0
VERTEX
8
Layer 1
10
41.992086
20
5.475732
70
0
0
VERTEX
8
Layer 1
10
41.934081
20
5.194922
70
0
0
VERTEX
8
Layer 1
10
41.993406
20
4.932568
70
0
0
VERTEX
8
Layer 1
10
42.139746
20
4.857421
70
0
0
VERTEX
8
Layer 1
10
42.287406
20
4.933887
70
0
0
VERTEX
8
Layer 1
10
42.346731
20
5.213379
70
0
0
VERTEX
8
Layer 1
10
42.287406
20
5.475732
70
0
0
VERTEX
8
Layer 1
10
42.139746
20
5.552197
70
0
0
VERTEX
8
Layer 1
10
42.139746
20
5.552197
70
0
0
SEQEND
8
Layer 1
0
POLYLINE
8
Layer 1
62
7
70
1
10
0.000000
20
0.000000
66
1
0
VERTEX
8
Layer 1
10
42.141064
20
3.678809
70
0
0
VERTEX
8
Layer 1
10
43.198388
20
5.715674
70
0
0
VERTEX
8
Layer 1
10
43.390869
20
5.715674
70
0
0
VERTEX
8
Layer 1
10
42.337500
20
3.678809
70
0
0
VERTEX
8
Layer 1
10
42.141064
20
3.678809
70
0
0
SEQEND
8
Layer 1
0
POLYLINE
8
Layer 1
62
7
70
0
10
0.000000
20
0.000000
66
1
0
VERTEX
8
Layer 1
10
42.976903
20
4.203516
70
0
0
VERTEX
8
Layer 1
10
43.081049
20
4.555518
70
0
0
VERTEX
8
Layer 1
10
43.384270
20
4.700538
70
0
0
VERTEX
8
Layer 1
10
43.684857
20
4.570020
70
0
0
VERTEX
8
Layer 1
10
43.804827
20
4.189014
70
0
0
VERTEX
8
Layer 1
10
43.683537
20
3.810645
70
0
0
VERTEX
8
Layer 1
10
43.385587
20
3.678808
70
0
0
VERTEX
8
Layer 1
10
43.092912
20
3.809326
70
0
0
VERTEX
8
Layer 1
10
42.976902
20
4.203515
70
0
0
VERTEX
8
Layer 1
10
42.976903
20
4.203516
70
0
0
SEQEND
8
Layer 1
0
POLYLINE
8
Layer 1
62
7
70
0
10
0.000000
20
0.000000
66
1
0
VERTEX
8
Layer 1
10
43.390869
20
4.537060
70
0
0
VERTEX
8
Layer 1
10
43.241889
20
4.460597
70
0
0
VERTEX
8
Layer 1
10
43.183884
20
4.179786
70
0
0
VERTEX
8
Layer 1
10
43.243209
20
3.918751
70
0
0
VERTEX
8
Layer 1
10
43.389549
20
3.842285
70
0
0
VERTEX
8
Layer 1
10
43.538529
20
3.918751
70
0
0
VERTEX
8
Layer 1
10
43.597854
20
4.198243
70
0
0
VERTEX
8
Layer 1
10
43.538529
20
4.460597
70
0
0
VERTEX
8
Layer 1
10
43.390869
20
4.537061
70
0
0
VERTEX
8
Layer 1
10
43.390869
20
4.537060
70
0
0
SEQEND
8
Layer 1
0
POLYLINE
8
Layer 1
62
7
70
1
10
0.000000
20
0.000000
66
1
0
VERTEX
8
Layer 1
10
44.929394
20
3.750000
70
0
0
VERTEX
8
Layer 1
10
44.929394
20
5.682715
70
0
0
VERTEX
8
Layer 1
10
45.658446
20
5.682715
70
0
0
VERTEX
8
Layer 1
10
45.952441
20
5.664258
70
0
0
VERTEX
8
Layer 1
10
46.191065
20
5.573291
70
0
0
VERTEX
8
Layer 1
10
46.345313
20
5.387402
70
0
0
VERTEX
8
Layer 1
10
46.404637
20
5.123730
70
0
0
VERTEX
8
Layer 1
10
46.247754
20
4.705811
70
0
0
VERTEX
8
Layer 1
10
45.680859
20
4.535742
70
0
0
VERTEX
8
Layer 1
10
45.185156
20
4.535742
70
0
0
VERTEX
8
Layer 1
10
45.185156
20
3.750000
70
0
0
VERTEX
8
Layer 1
10
44.929394
20
3.750000
70
0
0
SEQEND
8
Layer 1
0
POLYLINE
8
Layer 1
62
7
70
0
10
0.000000
20
0.000000
66
1
0
VERTEX
8
Layer 1
10
45.185156
20
4.763818
70
0
0
VERTEX
8
Layer 1
10
45.684815
20
4.763818
70
0
0
VERTEX
8
Layer 1
10
46.036817
20
4.856103
70
0
0
VERTEX
8
Layer 1
10
46.140962
20
5.115820
70
0
0
VERTEX
8
Layer 1
10
46.078997
20
5.322802
70
0
0
VERTEX
8
Layer 1
10
45.918156
20
5.437499
70
0
0
VERTEX
8
Layer 1
10
45.679533
20
5.454638
70
0
0
VERTEX
8
Layer 1
10
45.185148
20
5.454638
70
0
0
VERTEX
8
Layer 1
10
45.185156
20
4.763818
70
0
0
SEQEND
8
Layer 1
0
POLYLINE
8
Layer 1
62
7
70
0
10
0.000000
20
0.000000
66
1
0
VERTEX
8
Layer 1
10
47.948438
20
4.886425
70
0
0
VERTEX
8
Layer 1
10
46.672266
20
4.886425
70
0
0
VERTEX
8
Layer 1
10
46.672266
20
5.107910
70
0
0
VERTEX
8
Layer 1
10
47.948438
20
5.107910
70
0
0
VERTEX
8
Layer 1
10
47.948438
20
4.886425
70
0
0
SEQEND
8
Layer 1
0
POLYLINE
8
Layer 1
62
7
70
0
10
0.000000
20
0.000000
66
1
0
VERTEX
8
Layer 1
10
47.948438
20
4.299755
70
0
0
VERTEX
8
Layer 1
10
46.672266
20
4.299755
70
0
0
VERTEX
8
Layer 1
10
46.672266
20
4.521240
70
0
0
VERTEX
8
Layer 1
10
47.948438
20
4.521240
70
0
0
VERTEX
8
Layer 1
10
47.948438
20
4.299755
70
0
0
SEQEND
8
Layer 1
0
POLYLINE
8
Layer 1
62
7
70
0
10
0.000000
20
0.000000
66
1
0
VERTEX
8
Layer 1
10
48.210789
20
4.703173
70
0
0
VERTEX
8
Layer 1
10
48.280659
20
5.254248
70
0
0
VERTEX
8
Layer 1
10
48.490278
20
5.577246
70
0
0
VERTEX
8
Layer 1
10
48.840962
20
5.690624
70
0
0
VERTEX
8
Layer 1
10
49.113863
20
5.627343
70
0
0
VERTEX
8
Layer 1
10
49.307661
20
5.446728
70
0
0
VERTEX
8
Layer 1
10
49.427631
20
5.159326
70
0
0
VERTEX
8
Layer 1
10
49.471131
20
4.703173
70
0
0
VERTEX
8
Layer 1
10
49.401261
20
4.153417
70
0
0
VERTEX
8
Layer 1
10
49.191642
20
3.830419
70
0
0
VERTEX
8
Layer 1
10
48.840958
20
3.717040
70
0
0
VERTEX
8
Layer 1
10
48.401944
20
3.917431
70
0
0
VERTEX
8
Layer 1
10
48.210783
20
4.703173
70
0
0
VERTEX
8
Layer 1
10
48.210789
20
4.703173
70
0
0
SEQEND
8
Layer 1
0
POLYLINE
8
Layer 1
62
7
70
0
10
0.000000
20
0.000000
66
1
0
VERTEX
8
Layer 1
10
48.454684
20
4.703173
70
0
0
VERTEX
8
Layer 1
10
48.565430
20
4.069043
70
0
0
VERTEX
8
Layer 1
10
48.840966
20
3.912158
70
0
0
VERTEX
8
Layer 1
10
49.115184
20
4.070361
70
0
0
VERTEX
8
Layer 1
10
49.227249
20
4.703173
70
0
0
VERTEX
8
Layer 1
10
49.115184
20
5.337304
70
0
0
VERTEX
8
Layer 1
10
48.838329
20
5.494189
70
0
0
VERTEX
8
Layer 1
10
48.577295
20
5.355761
70
0
0
VERTEX
8
Layer 1
10
48.454684
20
4.703173
70
0
0
VERTEX
8
Layer 1
10
48.454684
20
4.703173
70
0
0
SEQEND
8
Layer 1
0
POLYLINE
8
Layer 1
62
7
70
1
10
0.000000
20
0.000000
66
1
0
VERTEX
8
Layer 1
10
49.845557
20
3.750000
70
0
0
VERTEX
8
Layer 1
10
49.845557
20
4.020264
70
0
0
VERTEX
8
Layer 1
10
50.115820
20
4.020264
70
0
0
VERTEX
8
Layer 1
10
50.115820
20
3.750000
70
0
0
VERTEX
8
Layer 1
10
49.845557
20
3.750000
70
0
0
SEQEND
8
Layer 1
0
POLYLINE
8
Layer 1
62
7
70
0
10
0.000000
20
0.000000
66
1
0
VERTEX
8
Layer 1
10
50.462546
20
4.703174
70
0
0
VERTEX
8
Layer 1
10
50.532415
20
5.254248
70
0
0
VERTEX
8
Layer 1
10
50.742035
20
5.577246
70
0
0
VERTEX
8
Layer 1
10
51.092718
20
5.690625
70
0
0
VERTEX
8
Layer 1
10
51.365619
20
5.627344
70
0
0
VERTEX
8
Layer 1
10
51.559418
20
5.446728
70
0
0
VERTEX
8
Layer 1
10
51.679388
20
5.159326
70
0
0
VERTEX
8
Layer 1
10
51.722888
20
4.703174
70
0
0
VERTEX
8
Layer 1
10
51.653018
20
4.153418
70
0
0
VERTEX
8
Layer 1
10
51.443399
20
3.830420
70
0
0
VERTEX
8
Layer 1
10
51.092715
20
3.717041
70
0
0
VERTEX
8
Layer 1
10
50.653701
20
3.917432
70
0
0
VERTEX
8
Layer 1
10
50.462540
20
4.703174
70
0
0
VERTEX
8
Layer 1
10
50.462546
20
4.703174
70
0
0
SEQEND
8
Layer 1
0
POLYLINE
8
Layer 1
62
7
70
0
10
0.000000
20
0.000000
66
1
0
VERTEX
8
Layer 1
10
50.706443
20
4.703174
70
0
0
VERTEX
8
Layer 1
10
50.817188
20
4.069043
70
0
0
VERTEX
8
Layer 1
10
51.092724
20
3.912158
70
0
0
VERTEX
8
Layer 1
10
51.366944
20
4.070361
70
0
0
VERTEX
8
Layer 1
10
51.479009
20
4.703174
70
0
0
VERTEX
8
Layer 1
10
51.366944
20
5.337305
70
0
0
VERTEX
8
Layer 1
10
51.090087
20
5.494189
70
0
0
VERTEX
8
Layer 1
10
50.829053
20
5.355762
70
0
0
VERTEX
8
Layer 1
10
50.706443
20
4.703174
70
0
0
VERTEX
8
Layer 1
10
50.706443
20
4.703174
70
0
0
SEQEND
8
Layer 1
0
POLYLINE
8
Layer 1
62
7
70
0
10
0.000000
20
0.000000
66
1
0
VERTEX
8
Layer 1
10
52.008983
20
5.218652
70
0
0
VERTEX
8
Layer 1
10
52.113128
20
5.570654
70
0
0
VERTEX
8
Layer 1
10
52.415033
20
5.715674
70
0
0
VERTEX
8
Layer 1
10
52.715618
20
5.585156
70
0
0
VERTEX
8
Layer 1
10
52.835588
20
5.204150
70
0
0
VERTEX
8
Layer 1
10
52.714298
20
4.825781
70
0
0
VERTEX
8
Layer 1
10
52.417666
20
4.693945
70
0
0
VERTEX
8
Layer 1
10
52.124991
20
4.824463
70
0
0
VERTEX
8
Layer 1
10
52.008981
20
5.218652
70
0
0
VERTEX
8
Layer 1
10
52.008983
20
5.218652
70
0
0
SEQEND
8
Layer 1
0
POLYLINE
8
Layer 1
62
7
70
0
10
0.000000
20
0.000000
66
1
0
VERTEX
8
Layer 1
10
52.421630
20
5.552197
70
0
0
VERTEX
8
Layer 1
10
52.273970
20
5.475732
70
0
0
VERTEX
8
Layer 1
10
52.215965
20
5.194922
70
0
0
VERTEX
8
Layer 1
10
52.275290
20
4.932568
70
0
0
VERTEX
8
Layer 1
10
52.421630
20
4.857421
70
0
0
VERTEX
8
Layer 1
10
52.569290
20
4.933887
70
0
0
VERTEX
8
Layer 1
10
52.628614
20
5.213379
70
0
0
VERTEX
8
Layer 1
10
52.569290
20
5.475732
70
0
0
VERTEX
8
Layer 1
10
52.421630
20
5.552197
70
0
0
VERTEX
8
Layer 1
10
52.421630
20
5.552197
70
0
0
SEQEND
8
Layer 1
0
POLYLINE
8
Layer 1
62
7
70
1
10
0.000000
20
0.000000
66
1
0
VERTEX
8
Layer 1
10
52.422948
20
3.678809
70
0
0
VERTEX
8
Layer 1
10
53.480273
20
5.715674
70
0
0
VERTEX
8
Layer 1
10
53.672753
20
5.715674
70
0
0
VERTEX
8
Layer 1
10
52.619383
20
3.678809
70
0
0
VERTEX
8
Layer 1
10
52.422948
20
3.678809
70
0
0
SEQEND
8
Layer 1
0
POLYLINE
8
Layer 1
62
7
70
0
10
0.000000
20
0.000000
66
1
0
VERTEX
8
Layer 1
10
53.258789
20
4.203516
70
0
0
VERTEX
8
Layer 1
10
53.362933
20
4.555518
70
0
0
VERTEX
8
Layer 1
10
53.666157
20
4.700538
70
0
0
VERTEX
8
Layer 1
10
53.966742
20
4.570020
70
0
0
VERTEX
8
Layer 1
10
54.086712
20
4.189014
70
0
0
VERTEX
8
Layer 1
10
53.965422
20
3.810645
70
0
0
VERTEX
8
Layer 1
10
53.667474
20
3.678808
70
0
0
VERTEX
8
Layer 1
10
53.374797
20
3.809326
70
0
0
VERTEX
8
Layer 1
10
53.258787
20
4.203515
70
0
0
VERTEX
8
Layer 1
10
53.258789
20
4.203516
70
0
0
SEQEND
8
Layer 1
0
POLYLINE
8
Layer 1
62
7
70
0
10
0.000000
20
0.000000
66
1
0
VERTEX
8
Layer 1
10
53.672753
20
4.537060
70
0
0
VERTEX
8
Layer 1
10
53.523773
20
4.460597
70
0
0
VERTEX
8
Layer 1
10
53.465767
20
4.179786
70
0
0
VERTEX
8
Layer 1
10
53.525092
20
3.918751
70
0
0
VERTEX
8
Layer 1
10
53.671432
20
3.842285
70
0
0
VERTEX
8
Layer 1
10
53.820412
20
3.918751
70
0
0
VERTEX
8
Layer 1
10
53.879737
20
4.198243
70
0
0
VERTEX
8
Layer 1
10
53.820412
20
4.460597
70
0
0
VERTEX
8
Layer 1
10
53.672753
20
4.537061
70
0
0
VERTEX
8
Layer 1
10
53.672753
20
4.537060
70
0
0
SEQEND
8
Layer 1
0
POLYLINE
8
Layer 1
62
7
70
1
10
0.000000
20
0.000000
66
1
0
VERTEX
8
Layer 1
10
55.654251
20
3.750000
70
0
0
VERTEX
8
Layer 1
10
55.654251
20
5.454639
70
0
0
VERTEX
8
Layer 1
10
55.017484
20
5.454639
70
0
0
VERTEX
8
Layer 1
10
55.017484
20
5.682715
70
0
0
VERTEX
8
Layer 1
10
56.549418
20
5.682715
70
0
0
VERTEX
8
Layer 1
10
56.549418
20
5.454639
70
0
0
VERTEX
8
Layer 1
10
55.910013
20
5.454639
70
0
0
VERTEX
8
Layer 1
10
55.910013
20
3.750000
70
0
0
VERTEX
8
Layer 1
10
55.654251
20
3.750000
70
0
0
SEQEND
8
Layer 1
0
POLYLINE
8
Layer 1
62
7
70
0
10
0.000000
20
0.000000
66
1
0
VERTEX
8
Layer 1
10
58.029933
20
4.886426
70
0
0
VERTEX
8
Layer 1
10
56.753762
20
4.886426
70
0
0
VERTEX
8
Layer 1
10
56.753762
20
5.107910
70
0
0
VERTEX
8
Layer 1
10
58.029933
20
5.107910
70
0
0
VERTEX
8
Layer 1
10
58.029933
20
4.886426
70
0
0
SEQEND
8
Layer 1
0
POLYLINE
8
Layer 1
62
7
70
0
10
0.000000
20
0.000000
66
1
0
VERTEX
8
Layer 1
10
58.029933
20
4.299756
70
0
0
VERTEX
8
Layer 1
10
56.753762
20
4.299756
70
0
0
VERTEX
8
Layer 1
10
56.753762
20
4.521240
70
0
0
VERTEX
8
Layer 1
10
58.029933
20
4.521240
70
0
0
VERTEX
8
Layer 1
10
58.029933
20
4.299756
70
0
0
SEQEND
8
Layer 1
0
POLYLINE
8
Layer 1
62
7
70
0
10
0.000000
20
0.000000
66
1
0
VERTEX
8
Layer 1
10
58.657470
20
4.798096
70
0
0
VERTEX
8
Layer 1
10
58.438621
20
4.952344
70
0
0
VERTEX
8
Layer 1
10
58.367431
20
5.192285
70
0
0
VERTEX
8
Layer 1
10
58.519044
20
5.546924
70
0
0
VERTEX
8
Layer 1
10
58.922461
20
5.690625
70
0
0
VERTEX
8
Layer 1
10
59.329835
20
5.542969
70
0
0
VERTEX
8
Layer 1
10
59.484082
20
5.185693
70
0
0
VERTEX
8
Layer 1
10
59.412892
20
4.951025
70
0
0
VERTEX
8
Layer 1
10
59.199318
20
4.798096
70
0
0
VERTEX
8
Layer 1
10
59.469582
20
4.610889
70
0
0
VERTEX
8
Layer 1
10
59.563182
20
4.302393
70
0
0
VERTEX
8
Layer 1
10
59.387841
20
3.885791
70
0
0
VERTEX
8
Layer 1
10
58.926415
20
3.717041
70
0
0
VERTEX
8
Layer 1
10
58.464988
20
3.885791
70
0
0
VERTEX
8
Layer 1
10
58.289647
20
4.308984
70
0
0
VERTEX
8
Layer 1
10
58.384567
20
4.624072
70
0
0
VERTEX
8
Layer 1
10
58.657468
20
4.798096
70
0
0
VERTEX
8
Layer 1
10
58.657470
20
4.798096
70
0
0
SEQEND
8
Layer 1
0
POLYLINE
8
Layer 1
62
7
70
0
10
0.000000
20
0.000000
66
1
0
VERTEX
8
Layer 1
10
58.610010
20
5.200195
70
0
0
VERTEX
8
Layer 1
10
58.698345
20
4.976074
70
0
0
VERTEX
8
Layer 1
10
58.927738
20
4.889062
70
0
0
VERTEX
8
Layer 1
10
59.151861
20
4.974756
70
0
0
VERTEX
8
Layer 1
10
59.240196
20
5.187012
70
0
0
VERTEX
8
Layer 1
10
59.149236
20
5.405859
70
0
0
VERTEX
8
Layer 1
10
58.925115
20
5.495508
70
0
0
VERTEX
8
Layer 1
10
58.699675
20
5.408496
70
0
0
VERTEX
8
Layer 1
10
58.610020
20
5.200195
70
0
0
VERTEX
8
Layer 1
10
58.610010
20
5.200195
70
0
0
SEQEND
8
Layer 1
0
POLYLINE
8
Layer 1
62
7
70
0
10
0.000000
20
0.000000
66
1
0
VERTEX
8
Layer 1
10
58.533540
20
4.307666
70
0
0
VERTEX
8
Layer 1
10
58.581000
20
4.111230
70
0
0
VERTEX
8
Layer 1
10
58.724700
20
3.963575
70
0
0
VERTEX
8
Layer 1
10
58.929045
20
3.912159
70
0
0
VERTEX
8
Layer 1
10
59.209855
20
4.021583
70
0
0
VERTEX
8
Layer 1
10
59.320600
20
4.299757
70
0
0
VERTEX
8
Layer 1
10
59.205910
20
4.583204
70
0
0
VERTEX
8
Layer 1
10
58.921144
20
4.695264
70
0
0
VERTEX
8
Layer 1
10
58.642971
20
4.584522
70
0
0
VERTEX
8
Layer 1
10
58.533546
20
4.307667
70
0
0
VERTEX
8
Layer 1
10
58.533540
20
4.307666
70
0
0
SEQEND
8
Layer 1
0
POLYLINE
8
Layer 1
62
7
70
1
10
0.000000
20
0.000000
66
1
0
VERTEX
8
Layer 1
10
59.927052
20
3.750000
70
0
0
VERTEX
8
Layer 1
10
59.927052
20
4.020264
70
0
0
VERTEX
8
Layer 1
10
60.197316
20
4.020264
70
0
0
VERTEX
8
Layer 1
10
60.197316
20
3.750000
70
0
0
VERTEX
8
Layer 1
10
59.927052
20
3.750000
70
0
0
SEQEND
8
Layer 1
0
POLYLINE
8
Layer 1
62
7
70
0
10
0.000000
20
0.000000
66
1
0
VERTEX
8
Layer 1
10
60.544041
20
4.703174
70
0
0
VERTEX
8
Layer 1
10
60.613911
20
5.254248
70
0
0
VERTEX
8
Layer 1
10
60.823530
20
5.577246
70
0
0
VERTEX
8
Layer 1
10
61.174214
20
5.690625
70
0
0
VERTEX
8
Layer 1
10
61.447115
20
5.627344
70
0
0
VERTEX
8
Layer 1
10
61.640913
20
5.446728
70
0
0
VERTEX
8
Layer 1
10
61.760883
20
5.159326
70
0
0
VERTEX
8
Layer 1
10
61.804383
20
4.703174
70
0
0
VERTEX
8
Layer 1
10
61.734513
20
4.153418
70
0
0
VERTEX
8
Layer 1
10
61.524894
20
3.830420
70
0
0
VERTEX
8
Layer 1
10
61.174211
20
3.717041
70
0
0
VERTEX
8
Layer 1
10
60.735197
20
3.917432
70
0
0
VERTEX
8
Layer 1
10
60.544035
20
4.703174
70
0
0
VERTEX
8
Layer 1
10
60.544041
20
4.703174
70
0
0
SEQEND
8
Layer 1
0
POLYLINE
8
Layer 1
62
7
70
0
10
0.000000
20
0.000000
66
1
0
VERTEX
8
Layer 1
10
60.787937
20
4.703174
70
0
0
VERTEX
8
Layer 1
10
60.898682
20
4.069043
70
0
0
VERTEX
8
Layer 1
10
61.174218
20
3.912158
70
0
0
VERTEX
8
Layer 1
10
61.448436
20
4.070361
70
0
0
VERTEX
8
Layer 1
10
61.560501
20
4.703174
70
0
0
VERTEX
8
Layer 1
10
61.448436
20
5.337305
70
0
0
VERTEX
8
Layer 1
10
61.171581
20
5.494189
70
0
0
VERTEX
8
Layer 1
10
60.910547
20
5.355762
70
0
0
VERTEX
8
Layer 1
10
60.787937
20
4.703174
70
0
0
VERTEX
8
Layer 1
10
60.787937
20
4.703174
70
0
0
SEQEND
8
Layer 1
0
POLYLINE
8
Layer 1
62
7
70
0
10
0.000000
20
0.000000
66
1
0
VERTEX
8
Layer 1
10
62.090478
20
5.218652
70
0
0
VERTEX
8
Layer 1
10
62.194623
20
5.570654
70
0
0
VERTEX
8
Layer 1
10
62.496527
20
5.715674
70
0
0
VERTEX
8
Layer 1
10
62.797113
20
5.585156
70
0
0
VERTEX
8
Layer 1
10
62.917083
20
5.204150
70
0
0
VERTEX
8
Layer 1
10
62.795793
20
4.825781
70
0
0
VERTEX
8
Layer 1
10
62.499162
20
4.693945
70
0
0
VERTEX
8
Layer 1
10
62.206486
20
4.824463
70
0
0
VERTEX
8
Layer 1
10
62.090476
20
5.218652
70
0
0
VERTEX
8
Layer 1
10
62.090478
20
5.218652
70
0
0
SEQEND
8
Layer 1
0
POLYLINE
8
Layer 1
62
7
70
0
10
0.000000
20
0.000000
66
1
0
VERTEX
8
Layer 1
10
62.503125
20
5.552197
70
0
0
VERTEX
8
Layer 1
10
62.355465
20
5.475732
70
0
0
VERTEX
8
Layer 1
10
62.297460
20
5.194922
70
0
0
VERTEX
8
Layer 1
10
62.356785
20
4.932568
70
0
0
VERTEX
8
Layer 1
10
62.503125
20
4.857421
70
0
0
VERTEX
8
Layer 1
10
62.650785
20
4.933887
70
0
0
VERTEX
8
Layer 1
10
62.710110
20
5.213379
70
0
0
VERTEX
8
Layer 1
10
62.650785
20
5.475732
70
0
0
VERTEX
8
Layer 1
10
62.503125
20
5.552197
70
0
0
VERTEX
8
Layer 1
10
62.503125
20
5.552197
70
0
0
SEQEND
8
Layer 1
0
POLYLINE
8
Layer 1
62
7
70
1
10
0.000000
20
0.000000
66
1
0
VERTEX
8
Layer 1
10
62.504444
20
3.678809
70
0
0
VERTEX
8
Layer 1
10
63.561768
20
5.715674
70
0
0
VERTEX
8
Layer 1
10
63.754248
20
5.715674
70
0
0
VERTEX
8
Layer 1
10
62.700879
20
3.678809
70
0
0
VERTEX
8
Layer 1
10
62.504444
20
3.678809
70
0
0
SEQEND
8
Layer 1
0
POLYLINE
8
Layer 1
62
7
70
0
10
0.000000
20
0.000000
66
1
0
VERTEX
8
Layer 1
10
63.340283
20
4.203516
70
0
0
VERTEX
8
Layer 1
10
63.444427
20
4.555518
70
0
0
VERTEX
8
Layer 1
10
63.747649
20
4.700538
70
0
0
VERTEX
8
Layer 1
10
64.048236
20
4.570020
70
0
0
VERTEX
8
Layer 1
10
64.168206
20
4.189014
70
0
0
VERTEX
8
Layer 1
10
64.046916
20
3.810645
70
0
0
VERTEX
8
Layer 1
10
63.748966
20
3.678808
70
0
0
VERTEX
8
Layer 1
10
63.456291
20
3.809326
70
0
0
VERTEX
8
Layer 1
10
63.340281
20
4.203515
70
0
0
VERTEX
8
Layer 1
10
63.340283
20
4.203516
70
0
0
SEQEND
8
Layer 1
0
POLYLINE
8
Layer 1
62
7
70
0
10
0.000000
20
0.000000
66
1
0
VERTEX
8
Layer 1
10
63.754248
20
4.537060
70
0
0
VERTEX
8
Layer 1
10
63.605268
20
4.460597
70
0
0
VERTEX
8
Layer 1
10
63.547263
20
4.179786
70
0
0
VERTEX
8
Layer 1
10
63.606588
20
3.918751
70
0
0
VERTEX
8
Layer 1
10
63.752928
20
3.842285
70
0
0
VERTEX
8
Layer 1
10
63.901908
20
3.918751
70
0
0
VERTEX
8
Layer 1
10
63.961233
20
4.198243
70
0
0
VERTEX
8
Layer 1
10
63.901908
20
4.460597
70
0
0
VERTEX
8
Layer 1
10
63.754248
20
4.537061
70
0
0
VERTEX
8
Layer 1
10
63.754248
20
4.537060
70
0
0
SEQEND
8
Layer 1
0
POLYLINE
8
Layer 1
62
7
70
0
10
0.000000
20
0.000000
66
1
0
VERTEX
8
Layer 1
10
3.087305
20
1.427637
70
0
0
VERTEX
8
Layer 1
10
3.343066
20
1.363038
70
0
0
VERTEX
8
Layer 1
10
3.053027
20
0.881836
70
0
0
VERTEX
8
Layer 1
10
2.542822
20
0.717041
70
0
0
VERTEX
8
Layer 1
10
2.033936
20
0.843603
70
0
0
VERTEX
8
Layer 1
10
1.735986
20
1.212744
70
0
0
VERTEX
8
Layer 1
10
1.634473
20
1.730859
70
0
0
VERTEX
8
Layer 1
10
1.749170
20
2.256885
70
0
0
VERTEX
8
Layer 1
10
2.077441
20
2.598340
70
0
0
VERTEX
8
Layer 1
10
2.546777
20
2.715674
70
0
0
VERTEX
8
Layer 1
10
3.034570
20
2.568019
70
0
0
VERTEX
8
Layer 1
10
3.310107
20
2.152736
70
0
0
VERTEX
8
Layer 1
10
3.058301
20
2.093409
70
0
0
VERTEX
8
Layer 1
10
2.863183
20
2.400586
70
0
0
VERTEX
8
Layer 1
10
2.541504
20
2.496826
70
0
0
VERTEX
8
Layer 1
10
2.168408
20
2.390038
70
0
0
VERTEX
8
Layer 1
10
1.958789
20
2.102636
70
0
0
VERTEX
8
Layer 1
10
1.898144
20
1.732177
70
0
0
VERTEX
8
Layer 1
10
1.969336
20
1.301073
70
0
0
VERTEX
8
Layer 1
10
2.193457
20
1.026854
70
0
0
VERTEX
8
Layer 1
10
2.521728
20
0.935888
70
0
0
VERTEX
8
Layer 1
10
2.885595
20
1.059814
70
0
0
VERTEX
8
Layer 1
10
3.087304
20
1.427636
70
0
0
VERTEX
8
Layer 1
10
3.087305
20
1.427637
70
0
0
SEQEND
8
Layer 1
0
POLYLINE
8
Layer 1
62
7
70
1
10
0.000000
20
0.000000
66
1
0
VERTEX
8
Layer 1
10
3.627832
20
0.750000
70
0
0
VERTEX
8
Layer 1
10
3.627832
20
2.682715
70
0
0
VERTEX
8
Layer 1
10
3.865137
20
2.682715
70
0
0
VERTEX
8
Layer 1
10
3.865137
20
1.989258
70
0
0
VERTEX
8
Layer 1
10
4.284375
20
2.181738
70
0
0
VERTEX
8
Layer 1
10
4.554639
20
2.119775
70
0
0
VERTEX
8
Layer 1
10
4.718115
20
1.951025
70
0
0
VERTEX
8
Layer 1
10
4.768212
20
1.637255
70
0
0
VERTEX
8
Layer 1
10
4.768212
20
0.750000
70
0
0
VERTEX
8
Layer 1
10
4.530908
20
0.750000
70
0
0
VERTEX
8
Layer 1
10
4.530908
20
1.637256
70
0
0
VERTEX
8
Layer 1
10
4.453126
20
1.895654
70
0
0
VERTEX
8
Layer 1
10
4.235596
20
1.977392
70
0
0
VERTEX
8
Layer 1
10
4.036524
20
1.922021
70
0
0
VERTEX
8
Layer 1
10
3.904687
20
1.774364
70
0
0
VERTEX
8
Layer 1
10
3.865137
20
1.515966
70
0
0
VERTEX
8
Layer 1
10
3.865137
20
0.750000
70
0
0
VERTEX
8
Layer 1
10
3.627832
20
0.750000
70
0
0
SEQEND
8
Layer 1
0
POLYLINE
8
Layer 1
62
7
70
1
10
0.000000
20
0.000000
66
1
0
VERTEX
8
Layer 1
10
5.041113
20
1.450049
70
0
0
VERTEX
8
Layer 1
10
5.257324
20
2.026172
70
0
0
VERTEX
8
Layer 1
10
5.697656
20
2.181738
70
0
0
VERTEX
8
Layer 1
10
6.169629
20
1.991895
70
0
0
VERTEX
8
Layer 1
10
6.352881
20
1.469824
70
0
0
VERTEX
8
Layer 1
10
6.271143
20
1.043994
70
0
0
VERTEX
8
Layer 1
10
6.035156
20
0.804053
70
0
0
VERTEX
8
Layer 1
10
5.697656
20
0.718359
70
0
0
VERTEX
8
Layer 1
10
5.221729
20
0.906885
70
0
0
VERTEX
8
Layer 1
10
5.041113
20
1.450049
70
0
0
VERTEX
8
Layer 1
10
5.041113
20
1.450049
70
0
0
SEQEND
8
Layer 1
0
POLYLINE
8
Layer 1
62
7
70
0
10
0.000000
20
0.000000
66
1
0
VERTEX
8
Layer 1
10
5.285010
20
1.450049
70
0
0
VERTEX
8
Layer 1
10
5.402344
20
1.046631
70
0
0
VERTEX
8
Layer 1
10
5.697657
20
0.913477
70
0
0
VERTEX
8
Layer 1
10
5.991651
20
1.047949
70
0
0
VERTEX
8
Layer 1
10
6.108985
20
1.457959
70
0
0
VERTEX
8
Layer 1
10
5.990332
20
1.850830
70
0
0
VERTEX
8
Layer 1
10
5.697657
20
1.985302
70
0
0
VERTEX
8
Layer 1
10
5.402344
20
1.852147
70
0
0
VERTEX
8
Layer 1
10
5.285010
20
1.450048
70
0
0
VERTEX
8
Layer 1
10
5.285010
20
1.450049
70
0
0
SEQEND
8
Layer 1
0
POLYLINE
8
Layer 1
62
7
70
1
10
0.000000
20
0.000000
66
1
0
VERTEX
8
Layer 1
10
6.628418
20
0.750000
70
0
0
VERTEX
8
Layer 1
10
6.628418
20
2.150098
70
0
0
VERTEX
8
Layer 1
10
6.841992
20
2.150098
70
0
0
VERTEX
8
Layer 1
10
6.841992
20
1.937842
70
0
0
VERTEX
8
Layer 1
10
6.992285
20
2.134277
70
0
0
VERTEX
8
Layer 1
10
7.145215
20
2.181739
70
0
0
VERTEX
8
Layer 1
10
7.389111
20
2.105273
70
0
0
VERTEX
8
Layer 1
10
7.307373
20
1.885107
70
0
0
VERTEX
8
Layer 1
10
7.133350
20
1.936523
70
0
0
VERTEX
8
Layer 1
10
6.993604
20
1.889061
70
0
0
VERTEX
8
Layer 1
10
6.905273
20
1.759862
70
0
0
VERTEX
8
Layer 1
10
6.865723
20
1.483006
70
0
0
VERTEX
8
Layer 1
10
6.865723
20
0.750000
70
0
0
VERTEX
8
Layer 1
10
6.628418
20
0.750000
70
0
0
SEQEND
8
Layer 1
0
POLYLINE
8
Layer 1
62
7
70
1
10
0.000000
20
0.000000
66
1
0
VERTEX
8
Layer 1
10
8.438525
20
0.750000
70
0
0
VERTEX
8
Layer 1
10
8.438525
20
0.926660
70
0
0
VERTEX
8
Layer 1
10
8.046972
20
0.718359
70
0
0
VERTEX
8
Layer 1
10
7.738476
20
0.810644
70
0
0
VERTEX
8
Layer 1
10
7.520947
20
1.067724
70
0
0
VERTEX
8
Layer 1
10
7.444482
20
1.448730
70
0
0
VERTEX
8
Layer 1
10
7.514355
20
1.828417
70
0
0
VERTEX
8
Layer 1
10
7.723974
20
2.090771
70
0
0
VERTEX
8
Layer 1
10
8.036425
20
2.181738
70
0
0
VERTEX
8
Layer 1
10
8.261864
20
2.127686
70
0
0
VERTEX
8
Layer 1
10
8.422704
20
1.989258
70
0
0
VERTEX
8
Layer 1
10
8.422704
20
2.682715
70
0
0
VERTEX
8
Layer 1
10
8.658691
20
2.682715
70
0
0
VERTEX
8
Layer 1
10
8.658691
20
0.750000
70
0
0
VERTEX
8
Layer 1
10
8.438525
20
0.750000
70
0
0
SEQEND
8
Layer 1
0
POLYLINE
8
Layer 1
62
7
70
0
10
0.000000
20
0.000000
66
1
0
VERTEX
8
Layer 1
10
7.688379
20
1.448730
70
0
0
VERTEX
8
Layer 1
10
7.801758
20
1.046631
70
0
0
VERTEX
8
Layer 1
10
8.069385
20
0.913477
70
0
0
VERTEX
8
Layer 1
10
8.333056
20
1.040040
70
0
0
VERTEX
8
Layer 1
10
8.442480
20
1.428956
70
0
0
VERTEX
8
Layer 1
10
8.331738
20
1.850831
70
0
0
VERTEX
8
Layer 1
10
8.058838
20
1.985303
70
0
0
VERTEX
8
Layer 1
10
7.793847
20
1.856103
70
0
0
VERTEX
8
Layer 1
10
7.688379
20
1.448730
70
0
0
VERTEX
8
Layer 1
10
7.688379
20
1.448730
70
0
0
SEQEND
8
Layer 1
0
POLYLINE
8
Layer 1
62
7
70
0
10
0.000000
20
0.000000
66
1
0
VERTEX
8
Layer 1
10
11.030420
20
1.886426
70
0
0
VERTEX
8
Layer 1
10
9.754248
20
1.886426
70
0
0
VERTEX
8
Layer 1
10
9.754248
20
2.107910
70
0
0
VERTEX
8
Layer 1
10
11.030420
20
2.107910
70
0
0
VERTEX
8
Layer 1
10
11.030420
20
1.886426
70
0
0
SEQEND
8
Layer 1
0
POLYLINE
8
Layer 1
62
7
70
1
10
0.000000
20
0.000000
66
1
0
VERTEX
8
Layer 1
10
11.030420
20
1.299756
70
0
0
VERTEX
8
Layer 1
10
9.754248
20
1.299756
70
0
0
VERTEX
8
Layer 1
10
9.754248
20
1.521240
70
0
0
VERTEX
8
Layer 1
10
11.030420
20
1.521240
70
0
0
VERTEX
8
Layer 1
10
11.030420
20
1.299756
70
0
0
SEQEND
8
Layer 1
0
POLYLINE
8
Layer 1
62
7
70
1
10
0.000000
20
0.000000
66
1
0
VERTEX
8
Layer 1
10
12.936767
20
0.750000
70
0
0
VERTEX
8
Layer 1
10
12.699463
20
0.750000
70
0
0
VERTEX
8
Layer 1
10
12.699463
20
2.262158
70
0
0
VERTEX
8
Layer 1
10
12.474023
20
2.098682
70
0
0
VERTEX
8
Layer 1
10
12.224853
20
1.976075
70
0
0
VERTEX
8
Layer 1
10
12.224853
20
2.205469
70
0
0
VERTEX
8
Layer 1
10
12.572900
20
2.432226
70
0
0
VERTEX
8
Layer 1
10
12.783838
20
2.690625
70
0
0
VERTEX
8
Layer 1
10
12.936767
20
2.690625
70
0
0
VERTEX
8
Layer 1
10
12.936767
20
0.750000
70
0
0
SEQEND
8
Layer 1
0
POLYLINE
8
Layer 1
62
7
70
1
10
0.000000
20
0.000000
66
1
0
VERTEX
8
Layer 1
10
13.544531
20
1.256250
70
0
0
VERTEX
8
Layer 1
10
13.793701
20
1.277344
70
0
0
VERTEX
8
Layer 1
10
13.921582
20
1.003125
70
0
0
VERTEX
8
Layer 1
10
14.165478
20
0.912159
70
0
0
VERTEX
8
Layer 1
10
14.455518
20
1.041359
70
0
0
VERTEX
8
Layer 1
10
14.574171
20
1.384132
70
0
0
VERTEX
8
Layer 1
10
14.459473
20
1.704493
70
0
0
VERTEX
8
Layer 1
10
14.161524
20
1.821828
70
0
0
VERTEX
8
Layer 1
10
13.954541
20
1.769094
70
0
0
VERTEX
8
Layer 1
10
13.809521
20
1.634622
70
0
0
VERTEX
8
Layer 1
10
13.586719
20
1.663623
70
0
0
VERTEX
8
Layer 1
10
13.773926
20
2.656348
70
0
0
VERTEX
8
Layer 1
10
14.735010
20
2.656348
70
0
0
VERTEX
8
Layer 1
10
14.735010
20
2.429590
70
0
0
VERTEX
8
Layer 1
10
13.963769
20
2.429590
70
0
0
VERTEX
8
Layer 1
10
13.859618
20
1.910156
70
0
0
VERTEX
8
Layer 1
10
14.224804
20
2.031445
70
0
0
VERTEX
8
Layer 1
10
14.651952
20
1.856103
70
0
0
VERTEX
8
Layer 1
10
14.825976
20
1.405224
70
0
0
VERTEX
8
Layer 1
10
14.673046
20
0.951708
70
0
0
VERTEX
8
Layer 1
10
14.165478
20
0.717040
70
0
0
VERTEX
8
Layer 1
10
13.734374
20
0.864697
70
0
0
VERTEX
8
Layer 1
10
13.544531
20
1.256250
70
0
0
VERTEX
8
Layer 1
10
13.544531
20
1.256250
70
0
0
SEQEND
8
Layer 1
0
POLYLINE
8
Layer 1
62
7
70
0
10
0.000000
20
0.000000
66
1
0
VERTEX
8
Layer 1
10
15.046143
20
1.703174
70
0
0
VERTEX
8
Layer 1
10
15.116013
20
2.254248
70
0
0
VERTEX
8
Layer 1
10
15.325632
20
2.577246
70
0
0
VERTEX
8
Layer 1
10
15.676316
20
2.690625
70
0
0
VERTEX
8
Layer 1
10
15.949215
20
2.627343
70
0
0
VERTEX
8
Layer 1
10
16.143015
20
2.446728
70
0
0
VERTEX
8
Layer 1
10
16.262985
20
2.159325
70
0
0
VERTEX
8
Layer 1
10
16.306485
20
1.703173
70
0
0
VERTEX
8
Layer 1
10
16.236615
20
1.153417
70
0
0
VERTEX
8
Layer 1
10
16.026996
20
0.830419
70
0
0
VERTEX
8
Layer 1
10
15.676313
20
0.717040
70
0
0
VERTEX
8
Layer 1
10
15.237299
20
0.917431
70
0
0
VERTEX
8
Layer 1
10
15.046137
20
1.703173
70
0
0
VERTEX
8
Layer 1
10
15.046143
20
1.703174
70
0
0
SEQEND
8
Layer 1
0
POLYLINE
8
Layer 1
62
7
70
0
10
0.000000
20
0.000000
66
1
0
VERTEX
8
Layer 1
10
15.290038
20
1.703174
70
0
0
VERTEX
8
Layer 1
10
15.400783
20
1.069043
70
0
0
VERTEX
8
Layer 1
10
15.676321
20
0.912158
70
0
0
VERTEX
8
Layer 1
10
15.950539
20
1.070361
70
0
0
VERTEX
8
Layer 1
10
16.062604
20
1.703174
70
0
0
VERTEX
8
Layer 1
10
15.950539
20
2.337305
70
0
0
VERTEX
8
Layer 1
10
15.673684
20
2.494189
70
0
0
VERTEX
8
Layer 1
10
15.412650
20
2.355762
70
0
0
VERTEX
8
Layer 1
10
15.290040
20
1.703174
70
0
0
VERTEX
8
Layer 1
10
15.290038
20
1.703174
70
0
0
SEQEND
8
Layer 1
0
POLYLINE
8
Layer 1
62
7
70
1
10
0.000000
20
0.000000
66
1
0
VERTEX
8
Layer 1
10
16.613671
20
0.750000
70
0
0
VERTEX
8
Layer 1
10
16.613671
20
2.150098
70
0
0
VERTEX
8
Layer 1
10
16.825927
20
2.150098
70
0
0
VERTEX
8
Layer 1
10
16.825927
20
1.953662
70
0
0
VERTEX
8
Layer 1
10
17.001268
20
2.118457
70
0
0
VERTEX
8
Layer 1
10
17.250439
20
2.181738
70
0
0
VERTEX
8
Layer 1
10
17.504881
20
2.117139
70
0
0
VERTEX
8
Layer 1
10
17.645941
20
1.936523
70
0
0
VERTEX
8
Layer 1
10
18.078364
20
2.181738
70
0
0
VERTEX
8
Layer 1
10
18.398725
20
2.065722
70
0
0
VERTEX
8
Layer 1
10
18.510790
20
1.711083
70
0
0
VERTEX
8
Layer 1
10
18.510790
20
0.750000
70
0
0
VERTEX
8
Layer 1
10
18.274805
20
0.750000
70
0
0
VERTEX
8
Layer 1
10
18.274805
20
1.631982
70
0
0
VERTEX
8
Layer 1
10
18.251075
20
1.836328
70
0
0
VERTEX
8
Layer 1
10
18.168019
20
1.937842
70
0
0
VERTEX
8
Layer 1
10
18.025640
20
1.976074
70
0
0
VERTEX
8
Layer 1
10
17.780426
20
1.877197
70
0
0
VERTEX
8
Layer 1
10
17.682866
20
1.563428
70
0
0
VERTEX
8
Layer 1
10
17.682866
20
0.750000
70
0
0
VERTEX
8
Layer 1
10
17.445557
20
0.750000
70
0
0
VERTEX
8
Layer 1
10
17.445557
20
1.659668
70
0
0
VERTEX
8
Layer 1
10
17.387552
20
1.896973
70
0
0
VERTEX
8
Layer 1
10
17.197707
20
1.976074
70
0
0
VERTEX
8
Layer 1
10
17.011820
20
1.923340
70
0
0
VERTEX
8
Layer 1
10
16.889209
20
1.769092
70
0
0
VERTEX
8
Layer 1
10
16.850974
20
1.476416
70
0
0
VERTEX
8
Layer 1
10
16.850974
20
0.750000
70
0
0
VERTEX
8
Layer 1
10
16.613671
20
0.750000
70
0
0
SEQEND
8
Layer 1
0
POLYLINE
8
Layer 1
62
7
70
1
10
0.000000
20
0.000000
66
1
0
VERTEX
8
Layer 1
10
18.862792
20
0.750000
70
0
0
VERTEX
8
Layer 1
10
18.862792
20
2.150098
70
0
0
VERTEX
8
Layer 1
10
19.075048
20
2.150098
70
0
0
VERTEX
8
Layer 1
10
19.075048
20
1.953662
70
0
0
VERTEX
8
Layer 1
10
19.250391
20
2.118457
70
0
0
VERTEX
8
Layer 1
10
19.499560
20
2.181738
70
0
0
VERTEX
8
Layer 1
10
19.754004
20
2.117139
70
0
0
VERTEX
8
Layer 1
10
19.895064
20
1.936523
70
0
0
VERTEX
8
Layer 1
10
20.327485
20
2.181738
70
0
0
VERTEX
8
Layer 1
10
20.647846
20
2.065722
70
0
0
VERTEX
8
Layer 1
10
20.759911
20
1.711083
70
0
0
VERTEX
8
Layer 1
10
20.759911
20
0.750000
70
0
0
VERTEX
8
Layer 1
10
20.523926
20
0.750000
70
0
0
VERTEX
8
Layer 1
10
20.523926
20
1.631982
70
0
0
VERTEX
8
Layer 1
10
20.500196
20
1.836328
70
0
0
VERTEX
8
Layer 1
10
20.417141
20
1.937842
70
0
0
VERTEX
8
Layer 1
10
20.274760
20
1.976074
70
0
0
VERTEX
8
Layer 1
10
20.029545
20
1.877197
70
0
0
VERTEX
8
Layer 1
10
19.931985
20
1.563428
70
0
0
VERTEX
8
Layer 1
10
19.931985
20
0.750000
70
0
0
VERTEX
8
Layer 1
10
19.694678
20
0.750000
70
0
0
VERTEX
8
Layer 1
10
19.694678
20
1.659668
70
0
0
VERTEX
8
Layer 1
10
19.636672
20
1.896973
70
0
0
VERTEX
8
Layer 1
10
19.446829
20
1.976074
70
0
0
VERTEX
8
Layer 1
10
19.260941
20
1.923340
70
0
0
VERTEX
8
Layer 1
10
19.138330
20
1.769092
70
0
0
VERTEX
8
Layer 1
10
19.100096
20
1.476416
70
0
0
VERTEX
8
Layer 1
10
19.100096
20
0.750000
70
0
0
VERTEX
8
Layer 1
10
18.862792
20
0.750000
70
0
0
SEQEND
8
Layer 1
0
POLYLINE
8
Layer 1
62
7
70
1
10
0.000000
20
0.000000
66
1
0
VERTEX
8
Layer 1
10
21.896338
20
0.750000
70
0
0
VERTEX
8
Layer 1
10
21.896338
20
2.682715
70
0
0
VERTEX
8
Layer 1
10
22.753272
20
2.682715
70
0
0
VERTEX
8
Layer 1
10
23.146143
20
2.629981
70
0
0
VERTEX
8
Layer 1
10
23.361034
20
2.446729
70
0
0
VERTEX
8
Layer 1
10
23.441449
20
2.155371
70
0
0
VERTEX
8
Layer 1
10
23.308294
20
1.808643
70
0
0
VERTEX
8
Layer 1
10
22.896966
20
1.629346
70
0
0
VERTEX
8
Layer 1
10
23.051214
20
1.533106
70
0
0
VERTEX
8
Layer 1
10
23.263470
20
1.276026
70
0
0
VERTEX
8
Layer 1
10
23.599657
20
0.750000
70
0
0
VERTEX
8
Layer 1
10
23.277978
20
0.750000
70
0
0
VERTEX
8
Layer 1
10
23.022218
20
1.152100
70
0
0
VERTEX
8
Layer 1
10
22.837647
20
1.418408
70
0
0
VERTEX
8
Layer 1
10
22.707132
20
1.547608
70
0
0
VERTEX
8
Layer 1
10
22.591122
20
1.599023
70
0
0
VERTEX
8
Layer 1
10
22.448742
20
1.608248
70
0
0
VERTEX
8
Layer 1
10
22.152099
20
1.608248
70
0
0
VERTEX
8
Layer 1
10
22.152099
20
0.750000
70
0
0
VERTEX
8
Layer 1
10
21.896338
20
0.750000
70
0
0
SEQEND
8
Layer 1
0
POLYLINE
8
Layer 1
62
7
70
0
10
0.000000
20
0.000000
66
1
0
VERTEX
8
Layer 1
10
22.152099
20
1.829736
70
0
0
VERTEX
8
Layer 1
10
22.701855
20
1.829736
70
0
0
VERTEX
8
Layer 1
10
22.976074
20
1.865331
70
0
0
VERTEX
8
Layer 1
10
23.126367
20
1.981347
70
0
0
VERTEX
8
Layer 1
10
23.177787
20
2.155371
70
0
0
VERTEX
8
Layer 1
10
23.077587
20
2.380810
70
0
0
VERTEX
8
Layer 1
10
22.763817
20
2.469141
70
0
0
VERTEX
8
Layer 1
10
22.152097
20
2.469141
70
0
0
VERTEX
8
Layer 1
10
22.152099
20
1.829736
70
0
0
SEQEND
8
Layer 1
0
POLYLINE
8
Layer 1
62
7
70
0
10
0.000000
20
0.000000
66
1
0
VERTEX
8
Layer 1
10
24.725537
20
0.922705
70
0
0
VERTEX
8
Layer 1
10
24.471093
20
0.764502
70
0
0
VERTEX
8
Layer 1
10
24.210059
20
0.718359
70
0
0
VERTEX
8
Layer 1
10
23.855420
20
0.830420
70
0
0
VERTEX
8
Layer 1
10
23.731490
20
1.119140
70
0
0
VERTEX
8
Layer 1
10
23.777630
20
1.306347
70
0
0
VERTEX
8
Layer 1
10
23.900240
20
1.443456
70
0
0
VERTEX
8
Layer 1
10
24.071627
20
1.521239
70
0
0
VERTEX
8
Layer 1
10
24.282564
20
1.556835
70
0
0
VERTEX
8
Layer 1
10
24.705756
20
1.638573
70
0
0
VERTEX
8
Layer 1
10
24.707075
20
1.700537
70
0
0
VERTEX
8
Layer 1
10
24.639845
20
1.904882
70
0
0
VERTEX
8
Layer 1
10
24.369581
20
1.985302
70
0
0
VERTEX
8
Layer 1
10
24.121730
20
1.925975
70
0
0
VERTEX
8
Layer 1
10
24.004399
20
1.718993
70
0
0
VERTEX
8
Layer 1
10
23.772369
20
1.750634
70
0
0
VERTEX
8
Layer 1
10
23.876514
20
1.990575
70
0
0
VERTEX
8
Layer 1
10
24.086133
20
2.131640
70
0
0
VERTEX
8
Layer 1
10
24.403858
20
2.181737
70
0
0
VERTEX
8
Layer 1
10
24.695215
20
2.139549
70
0
0
VERTEX
8
Layer 1
10
24.860010
20
2.032763
70
0
0
VERTEX
8
Layer 1
10
24.933840
20
1.871923
70
0
0
VERTEX
8
Layer 1
10
24.945690
20
1.653075
70
0
0
VERTEX
8
Layer 1
10
24.945690
20
1.336669
70
0
0
VERTEX
8
Layer 1
10
24.960240
20
0.917431
70
0
0
VERTEX
8
Layer 1
10
25.020849
20
0.750000
70
0
0
VERTEX
8
Layer 1
10
24.772998
20
0.750000
70
0
0
VERTEX
8
Layer 1
10
24.725538
20
0.922705
70
0
0
VERTEX
8
Layer 1
10
24.725537
20
0.922705
70
0
0
SEQEND
8
Layer 1
0
POLYLINE
8
Layer 1
62
7
70
0
10
0.000000
20
0.000000
66
1
0
VERTEX
8
Layer 1
10
24.705761
20
1.452685
70
0
0
VERTEX
8
Layer 1
10
24.318164
20
1.363036
70
0
0
VERTEX
8
Layer 1
10
24.111182
20
1.315575
70
0
0
VERTEX
8
Layer 1
10
24.017582
20
1.237791
70
0
0
VERTEX
8
Layer 1
10
23.984627
20
1.125730
70
0
0
VERTEX
8
Layer 1
10
24.055817
20
0.967527
70
0
0
VERTEX
8
Layer 1
10
24.266754
20
0.904245
70
0
0
VERTEX
8
Layer 1
10
24.510650
20
0.963572
70
0
0
VERTEX
8
Layer 1
10
24.667535
20
1.128367
70
0
0
VERTEX
8
Layer 1
10
24.705770
20
1.365671
70
0
0
VERTEX
8
Layer 1
10
24.705761
20
1.452685
70
0
0
SEQEND
8
Layer 1
0
POLYLINE
8
Layer 1
62
7
70
1
10
0.000000
20
0.000000
66
1
0
VERTEX
8
Layer 1
10
26.221873
20
0.750000
70
0
0
VERTEX
8
Layer 1
10
26.221873
20
0.926660
70
0
0
VERTEX
8
Layer 1
10
25.830321
20
0.718359
70
0
0
VERTEX
8
Layer 1
10
25.521825
20
0.810644
70
0
0
VERTEX
8
Layer 1
10
25.304295
20
1.067724
70
0
0
VERTEX
8
Layer 1
10
25.227825
20
1.448730
70
0
0
VERTEX
8
Layer 1
10
25.297695
20
1.828417
70
0
0
VERTEX
8
Layer 1
10
25.507314
20
2.090771
70
0
0
VERTEX
8
Layer 1
10
25.819765
20
2.181738
70
0
0
VERTEX
8
Layer 1
10
26.045205
20
2.127686
70
0
0
VERTEX
8
Layer 1
10
26.206044
20
1.989258
70
0
0
VERTEX
8
Layer 1
10
26.206044
20
2.682715
70
0
0
VERTEX
8
Layer 1
10
26.442031
20
2.682715
70
0
0
VERTEX
8
Layer 1
10
26.442031
20
0.750000
70
0
0
VERTEX
8
Layer 1
10
26.221873
20
0.750000
70
0
0
SEQEND
8
Layer 1
0
POLYLINE
8
Layer 1
62
7
70
0
10
0.000000
20
0.000000
66
1
0
VERTEX
8
Layer 1
10
25.471728
20
1.448730
70
0
0
VERTEX
8
Layer 1
10
25.585113
20
1.046631
70
0
0
VERTEX
8
Layer 1
10
25.852739
20
0.913477
70
0
0
VERTEX
8
Layer 1
10
26.116412
20
1.040040
70
0
0
VERTEX
8
Layer 1
10
26.225836
20
1.428956
70
0
0
VERTEX
8
Layer 1
10
26.115091
20
1.850831
70
0
0
VERTEX
8
Layer 1
10
25.842191
20
1.985303
70
0
0
VERTEX
8
Layer 1
10
25.577201
20
1.856103
70
0
0
VERTEX
8
Layer 1
10
25.471736
20
1.448730
70
0
0
VERTEX
8
Layer 1
10
25.471728
20
1.448730
70
0
0
SEQEND
8
Layer 1
0
POLYLINE
8
Layer 1
62
7
70
1
10
0.000000
20
0.000000
66
1
0
VERTEX
8
Layer 1
10
26.816454
20
2.409814
70
0
0
VERTEX
8
Layer 1
10
26.816454
20
2.682715
70
0
0
VERTEX
8
Layer 1
10
27.053759
20
2.682715
70
0
0
VERTEX
8
Layer 1
10
27.053759
20
2.409814
70
0
0
VERTEX
8
Layer 1
10
26.816454
20
2.409814
70
0
0
SEQEND
8
Layer 1
0
POLYLINE
8
Layer 1
62
7
70
1
10
0.000000
20
0.000000
66
1
0
VERTEX
8
Layer 1
10
26.816454
20
0.750000
70
0
0
VERTEX
8
Layer 1
10
26.816454
20
2.150098
70
0
0
VERTEX
8
Layer 1
10
27.053759
20
2.150098
70
0
0
VERTEX
8
Layer 1
10
27.053759
20
0.750000
70
0
0
VERTEX
8
Layer 1
10
26.816454
20
0.750000
70
0
0
SEQEND
8
Layer 1
0
POLYLINE
8
Layer 1
62
7
70
1
10
0.000000
20
0.000000
66
1
0
VERTEX
8
Layer 1
10
28.332567
20
0.750000
70
0
0
VERTEX
8
Layer 1
10
28.332567
20
0.955664
70
0
0
VERTEX
8
Layer 1
10
27.888279
20
0.718359
70
0
0
VERTEX
8
Layer 1
10
27.656248
20
0.765821
70
0
0
VERTEX
8
Layer 1
10
27.496726
20
0.884474
70
0
0
VERTEX
8
Layer 1
10
27.424216
20
1.061134
70
0
0
VERTEX
8
Layer 1
10
27.409667
20
1.282619
70
0
0
VERTEX
8
Layer 1
10
27.409667
20
2.150098
70
0
0
VERTEX
8
Layer 1
10
27.646973
20
2.150098
70
0
0
VERTEX
8
Layer 1
10
27.646973
20
1.373584
70
0
0
VERTEX
8
Layer 1
10
27.661523
20
1.123096
70
0
0
VERTEX
8
Layer 1
10
27.756442
20
0.975439
70
0
0
VERTEX
8
Layer 1
10
27.935739
20
0.922705
70
0
0
VERTEX
8
Layer 1
10
28.136130
20
0.976757
70
0
0
VERTEX
8
Layer 1
10
28.267965
20
1.125731
70
0
0
VERTEX
8
Layer 1
10
28.307520
20
1.399950
70
0
0
VERTEX
8
Layer 1
10
28.307520
20
2.150098
70
0
0
VERTEX
8
Layer 1
10
28.544824
20
2.150098
70
0
0
VERTEX
8
Layer 1
10
28.544824
20
0.750000
70
0
0
VERTEX
8
Layer 1
10
28.332567
20
0.750000
70
0
0
SEQEND
8
Layer 1
0
POLYLINE
8
Layer 1
62
7
70
0
10
0.000000
20
0.000000
66
1
0
VERTEX
8
Layer 1
10
28.821681
20
1.167920
70
0
0
VERTEX
8
Layer 1
10
29.056349
20
1.204833
70
0
0
VERTEX
8
Layer 1
10
29.165774
20
0.988623
70
0
0
VERTEX
8
Layer 1
10
29.418898
20
0.913476
70
0
0
VERTEX
8
Layer 1
10
29.661477
20
0.979393
70
0
0
VERTEX
8
Layer 1
10
29.740572
20
1.136278
70
0
0
VERTEX
8
Layer 1
10
29.670702
20
1.262840
70
0
0
VERTEX
8
Layer 1
10
29.428124
20
1.343260
70
0
0
VERTEX
8
Layer 1
10
29.065575
20
1.456639
70
0
0
VERTEX
8
Layer 1
10
28.912645
20
1.589794
70
0
0
VERTEX
8
Layer 1
10
28.861225
20
1.778319
70
0
0
VERTEX
8
Layer 1
10
28.903406
20
1.951024
70
0
0
VERTEX
8
Layer 1
10
29.020736
20
2.084178
70
0
0
VERTEX
8
Layer 1
10
29.171030
20
2.152732
70
0
0
VERTEX
8
Layer 1
10
29.376693
20
2.181736
70
0
0
VERTEX
8
Layer 1
10
29.665413
20
2.134275
70
0
0
VERTEX
8
Layer 1
10
29.849984
20
2.005075
70
0
0
VERTEX
8
Layer 1
10
29.931719
20
1.788864
70
0
0
VERTEX
8
Layer 1
10
29.699687
20
1.757223
70
0
0
VERTEX
8
Layer 1
10
29.607407
20
1.925973
70
0
0
VERTEX
8
Layer 1
10
29.393832
20
1.986618
70
0
0
VERTEX
8
Layer 1
10
29.160482
20
1.932566
70
0
0
VERTEX
8
Layer 1
10
29.090612
20
1.806003
70
0
0
VERTEX
8
Layer 1
10
29.119622
20
1.722947
70
0
0
VERTEX
8
Layer 1
10
29.210597
20
1.659665
70
0
0
VERTEX
8
Layer 1
10
29.420215
20
1.599020
70
0
0
VERTEX
8
Layer 1
10
29.770899
20
1.488278
70
0
0
VERTEX
8
Layer 1
10
29.927784
20
1.364352
70
0
0
VERTEX
8
Layer 1
10
29.984469
20
1.161325
70
0
0
VERTEX
8
Layer 1
10
29.914599
20
0.937204
70
0
0
VERTEX
8
Layer 1
10
29.715527
20
0.775046
70
0
0
VERTEX
8
Layer 1
10
29.420214
20
0.718356
70
0
0
VERTEX
8
Layer 1
10
29.003613
20
0.831735
70
0
0
VERTEX
8
Layer 1
10
28.821680
20
1.167917
70
0
0
VERTEX
8
Layer 1
10
28.821681
20
1.167920
70
0
0
SEQEND
8
Layer 1
0
POLYLINE
8
Layer 1
62
7
70
0
10
0.000000
20
0.000000
66
1
0
VERTEX
8
Layer 1
10
32.265234
20
1.886426
70
0
0
VERTEX
8
Layer 1
10
30.989063
20
1.886426
70
0
0
VERTEX
8
Layer 1
10
30.989063
20
2.107910
70
0
0
VERTEX
8
Layer 1
10
32.265234
20
2.107910
70
0
0
VERTEX
8
Layer 1
10
32.265234
20
1.886426
70
0
0
SEQEND
8
Layer 1
0
POLYLINE
8
Layer 1
62
7
70
0
10
0.000000
20
0.000000
66
1
0
VERTEX
8
Layer 1
10
32.265234
20
1.299756
70
0
0
VERTEX
8
Layer 1
10
30.989063
20
1.299756
70
0
0
VERTEX
8
Layer 1
10
30.989063
20
1.521240
70
0
0
VERTEX
8
Layer 1
10
32.265234
20
1.521240
70
0
0
VERTEX
8
Layer 1
10
32.265234
20
1.299756
70
0
0
SEQEND
8
Layer 1
0
POLYLINE
8
Layer 1
62
7
70
0
10
0.000000
20
0.000000
66
1
0
VERTEX
8
Layer 1
10
33.277734
20
1.703174
70
0
0
VERTEX
8
Layer 1
10
33.347604
20
2.254248
70
0
0
VERTEX
8
Layer 1
10
33.557223
20
2.577246
70
0
0
VERTEX
8
Layer 1
10
33.907906
20
2.690625
70
0
0
VERTEX
8
Layer 1
10
34.180807
20
2.627343
70
0
0
VERTEX
8
Layer 1
10
34.374606
20
2.446728
70
0
0
VERTEX
8
Layer 1
10
34.494576
20
2.159325
70
0
0
VERTEX
8
Layer 1
10
34.538076
20
1.703173
70
0
0
VERTEX
8
Layer 1
10
34.468206
20
1.153417
70
0
0
VERTEX
8
Layer 1
10
34.258587
20
0.830419
70
0
0
VERTEX
8
Layer 1
10
33.907903
20
0.717040
70
0
0
VERTEX
8
Layer 1
10
33.468889
20
0.917431
70
0
0
VERTEX
8
Layer 1
10
33.277728
20
1.703173
70
0
0
VERTEX
8
Layer 1
10
33.277734
20
1.703174
70
0
0
SEQEND
8
Layer 1
0
POLYLINE
8
Layer 1
62
7
70
0
10
0.000000
20
0.000000
66
1
0
VERTEX
8
Layer 1
10
33.521631
20
1.703174
70
0
0
VERTEX
8
Layer 1
10
33.632376
20
1.069043
70
0
0
VERTEX
8
Layer 1
10
33.907912
20
0.912158
70
0
0
VERTEX
8
Layer 1
10
34.182132
20
1.070361
70
0
0
VERTEX
8
Layer 1
10
34.294197
20
1.703174
70
0
0
VERTEX
8
Layer 1
10
34.182132
20
2.337305
70
0
0
VERTEX
8
Layer 1
10
33.905276
20
2.494189
70
0
0
VERTEX
8
Layer 1
10
33.644241
20
2.355762
70
0
0
VERTEX
8
Layer 1
10
33.521631
20
1.703174
70
0
0
VERTEX
8
Layer 1
10
33.521631
20
1.703174
70
0
0
SEQEND
8
Layer 1
0
POLYLINE
8
Layer 1
62
7
70
1
10
0.000000
20
0.000000
66
1
0
VERTEX
8
Layer 1
10
34.845262
20
0.750000
70
0
0
VERTEX
8
Layer 1
10
34.845262
20
2.150098
70
0
0
VERTEX
8
Layer 1
10
35.057519
20
2.150098
70
0
0
VERTEX
8
Layer 1
10
35.057519
20
1.953662
70
0
0
VERTEX
8
Layer 1
10
35.232859
20
2.118457
70
0
0
VERTEX
8
Layer 1
10
35.482031
20
2.181738
70
0
0
VERTEX
8
Layer 1
10
35.736474
20
2.117139
70
0
0
VERTEX
8
Layer 1
10
35.877534
20
1.936523
70
0
0
VERTEX
8
Layer 1
10
36.309956
20
2.181738
70
0
0
VERTEX
8
Layer 1
10
36.630317
20
2.065722
70
0
0
VERTEX
8
Layer 1
10
36.742382
20
1.711083
70
0
0
VERTEX
8
Layer 1
10
36.742382
20
0.750000
70
0
0
VERTEX
8
Layer 1
10
36.506395
20
0.750000
70
0
0
VERTEX
8
Layer 1
10
36.506395
20
1.631982
70
0
0
VERTEX
8
Layer 1
10
36.482665
20
1.836328
70
0
0
VERTEX
8
Layer 1
10
36.399610
20
1.937842
70
0
0
VERTEX
8
Layer 1
10
36.257230
20
1.976074
70
0
0
VERTEX
8
Layer 1
10
36.012015
20
1.877197
70
0
0
VERTEX
8
Layer 1
10
35.914455
20
1.563428
70
0
0
VERTEX
8
Layer 1
10
35.914455
20
0.750000
70
0
0
VERTEX
8
Layer 1
10
35.677148
20
0.750000
70
0
0
VERTEX
8
Layer 1
10
35.677148
20
1.659668
70
0
0
VERTEX
8
Layer 1
10
35.619143
20
1.896973
70
0
0
VERTEX
8
Layer 1
10
35.429298
20
1.976074
70
0
0
VERTEX
8
Layer 1
10
35.243410
20
1.923340
70
0
0
VERTEX
8
Layer 1
10
35.120801
20
1.769092
70
0
0
VERTEX
8
Layer 1
10
35.082566
20
1.476416
70
0
0
VERTEX
8
Layer 1
10
35.082566
20
0.750000
70
0
0
VERTEX
8
Layer 1
10
34.845262
20
0.750000
70
0
0
SEQEND
8
Layer 1
0
POLYLINE
8
Layer 1
62
7
70
1
10
0.000000
20
0.000000
66
1
0
VERTEX
8
Layer 1
10
37.094383
20
0.750000
70
0
0
VERTEX
8
Layer 1
10
37.094383
20
2.150098
70
0
0
VERTEX
8
Layer 1
10
37.306640
20
2.150098
70
0
0
VERTEX
8
Layer 1
10
37.306640
20
1.953662
70
0
0
VERTEX
8
Layer 1
10
37.481982
20
2.118457
70
0
0
VERTEX
8
Layer 1
10
37.731152
20
2.181738
70
0
0
VERTEX
8
Layer 1
10
37.985595
20
2.117139
70
0
0
VERTEX
8
Layer 1
10
38.126655
20
1.936523
70
0
0
VERTEX
8
Layer 1
10
38.559077
20
2.181738
70
0
0
VERTEX
8
Layer 1
10
38.879438
20
2.065722
70
0
0
VERTEX
8
Layer 1
10
38.991503
20
1.711083
70
0
0
VERTEX
8
Layer 1
10
38.991503
20
0.750000
70
0
0
VERTEX
8
Layer 1
10
38.755516
20
0.750000
70
0
0
VERTEX
8
Layer 1
10
38.755516
20
1.631982
70
0
0
VERTEX
8
Layer 1
10
38.731786
20
1.836328
70
0
0
VERTEX
8
Layer 1
10
38.648731
20
1.937842
70
0
0
VERTEX
8
Layer 1
10
38.506352
20
1.976074
70
0
0
VERTEX
8
Layer 1
10
38.261136
20
1.877197
70
0
0
VERTEX
8
Layer 1
10
38.163576
20
1.563428
70
0
0
VERTEX
8
Layer 1
10
38.163576
20
0.750000
70
0
0
VERTEX
8
Layer 1
10
37.926269
20
0.750000
70
0
0
VERTEX
8
Layer 1
10
37.926269
20
1.659668
70
0
0
VERTEX
8
Layer 1
10
37.868264
20
1.896973
70
0
0
VERTEX
8
Layer 1
10
37.678421
20
1.976074
70
0
0
VERTEX
8
Layer 1
10
37.492531
20
1.923340
70
0
0
VERTEX
8
Layer 1
10
37.369922
20
1.769092
70
0
0
VERTEX
8
Layer 1
10
37.331687
20
1.476416
70
0
0
VERTEX
8
Layer 1
10
37.331687
20
0.750000
70
0
0
VERTEX
8
Layer 1
10
37.094383
20
0.750000
70
0
0
SEQEND
8
Layer 1
0
POLYLINE
8
Layer 1
62
7
70
1
10
0.000000
20
0.000000
66
1
0
VERTEX
8
Layer 1
10
40.566942
20
0.750000
70
0
0
VERTEX
8
Layer 1
10
40.566942
20
2.454639
70
0
0
VERTEX
8
Layer 1
10
39.930174
20
2.454639
70
0
0
VERTEX
8
Layer 1
10
39.930174
20
2.682715
70
0
0
VERTEX
8
Layer 1
10
41.462108
20
2.682715
70
0
0
VERTEX
8
Layer 1
10
41.462108
20
2.454639
70
0
0
VERTEX
8
Layer 1
10
40.822704
20
2.454639
70
0
0
VERTEX
8
Layer 1
10
40.822704
20
0.750000
70
0
0
VERTEX
8
Layer 1
10
40.566942
20
0.750000
70
0
0
SEQEND
8
Layer 1
0
POLYLINE
8
Layer 1
62
7
70
1
10
0.000000
20
0.000000
66
1
0
VERTEX
8
Layer 1
10
41.694139
20
0.750000
70
0
0
VERTEX
8
Layer 1
10
41.694139
20
2.682715
70
0
0
VERTEX
8
Layer 1
10
41.931444
20
2.682715
70
0
0
VERTEX
8
Layer 1
10
41.931444
20
1.989258
70
0
0
VERTEX
8
Layer 1
10
42.350682
20
2.181738
70
0
0
VERTEX
8
Layer 1
10
42.620946
20
2.119775
70
0
0
VERTEX
8
Layer 1
10
42.784422
20
1.951025
70
0
0
VERTEX
8
Layer 1
10
42.834522
20
1.637255
70
0
0
VERTEX
8
Layer 1
10
42.834522
20
0.750000
70
0
0
VERTEX
8
Layer 1
10
42.597216
20
0.750000
70
0
0
VERTEX
8
Layer 1
10
42.597216
20
1.637256
70
0
0
VERTEX
8
Layer 1
10
42.519426
20
1.895654
70
0
0
VERTEX
8
Layer 1
10
42.301897
20
1.977392
70
0
0
VERTEX
8
Layer 1
10
42.102825
20
1.922021
70
0
0
VERTEX
8
Layer 1
10
41.970990
20
1.774364
70
0
0
VERTEX
8
Layer 1
10
41.931435
20
1.515966
70
0
0
VERTEX
8
Layer 1
10
41.931435
20
0.750000
70
0
0
VERTEX
8
Layer 1
10
41.694139
20
0.750000
70
0
0
SEQEND
8
Layer 1
0
POLYLINE
8
Layer 1
62
7
70
1
10
0.000000
20
0.000000
66
1
0
VERTEX
8
Layer 1
10
43.197069
20
2.409814
70
0
0
VERTEX
8
Layer 1
10
43.197069
20
2.682715
70
0
0
VERTEX
8
Layer 1
10
43.434373
20
2.682715
70
0
0
VERTEX
8
Layer 1
10
43.434373
20
2.409814
70
0
0
VERTEX
8
Layer 1
10
43.197069
20
2.409814
70
0
0
SEQEND
8
Layer 1
0
POLYLINE
8
Layer 1
62
7
70
1
10
0.000000
20
0.000000
66
1
0
VERTEX
8
Layer 1
10
43.197069
20
0.750000
70
0
0
VERTEX
8
Layer 1
10
43.197069
20
2.150098
70
0
0
VERTEX
8
Layer 1
10
43.434373
20
2.150098
70
0
0
VERTEX
8
Layer 1
10
43.434373
20
0.750000
70
0
0
VERTEX
8
Layer 1
10
43.197069
20
0.750000
70
0
0
SEQEND
8
Layer 1
0
POLYLINE
8
Layer 1
62
7
70
0
10
0.000000
20
0.000000
66
1
0
VERTEX
8
Layer 1
10
44.709226
20
1.262842
70
0
0
VERTEX
8
Layer 1
10
44.942577
20
1.232519
70
0
0
VERTEX
8
Layer 1
10
44.746142
20
0.854150
70
0
0
VERTEX
8
Layer 1
10
44.359862
20
0.718360
70
0
0
VERTEX
8
Layer 1
10
43.897118
20
0.905567
70
0
0
VERTEX
8
Layer 1
10
43.723094
20
1.444776
70
0
0
VERTEX
8
Layer 1
10
43.798244
20
1.841602
70
0
0
VERTEX
8
Layer 1
10
44.026320
20
2.096045
70
0
0
VERTEX
8
Layer 1
10
44.361183
20
2.181739
70
0
0
VERTEX
8
Layer 1
10
44.734278
20
2.065723
70
0
0
VERTEX
8
Layer 1
10
44.920167
20
1.738770
70
0
0
VERTEX
8
Layer 1
10
44.689455
20
1.703173
70
0
0
VERTEX
8
Layer 1
10
44.572125
20
1.915429
70
0
0
VERTEX
8
Layer 1
10
44.370416
20
1.986620
70
0
0
VERTEX
8
Layer 1
10
44.079059
20
1.857421
70
0
0
VERTEX
8
Layer 1
10
43.966994
20
1.451366
70
0
0
VERTEX
8
Layer 1
10
44.075099
20
1.041357
70
0
0
VERTEX
8
Layer 1
10
44.357228
20
0.913476
70
0
0
VERTEX
8
Layer 1
10
44.590578
20
0.999169
70
0
0
VERTEX
8
Layer 1
10
44.709228
20
1.262841
70
0
0
VERTEX
8
Layer 1
10
44.709226
20
1.262842
70
0
0
SEQEND
8
Layer 1
0
POLYLINE
8
Layer 1
62
7
70
1
10
0.000000
20
0.000000
66
1
0
VERTEX
8
Layer 1
10
45.146922
20
0.750000
70
0
0
VERTEX
8
Layer 1
10
45.146922
20
2.682715
70
0
0
VERTEX
8
Layer 1
10
45.384226
20
2.682715
70
0
0
VERTEX
8
Layer 1
10
45.384226
20
1.580566
70
0
0
VERTEX
8
Layer 1
10
45.945847
20
2.150098
70
0
0
VERTEX
8
Layer 1
10
46.253025
20
2.150098
70
0
0
VERTEX
8
Layer 1
10
45.717771
20
1.630664
70
0
0
VERTEX
8
Layer 1
10
46.307077
20
0.750000
70
0
0
VERTEX
8
Layer 1
10
46.014402
20
0.750000
70
0
0
VERTEX
8
Layer 1
10
45.551658
20
1.465869
70
0
0
VERTEX
8
Layer 1
10
45.384226
20
1.305029
70
0
0
VERTEX
8
Layer 1
10
45.384226
20
0.750000
70
0
0
VERTEX
8
Layer 1
10
45.146922
20
0.750000
70
0
0
SEQEND
8
Layer 1
0
POLYLINE
8
Layer 1
62
7
70
1
10
0.000000
20
0.000000
66
1
0
VERTEX
8
Layer 1
10
46.495605
20
0.750000
70
0
0
VERTEX
8
Layer 1
10
46.495605
20
2.150098
70
0
0
VERTEX
8
Layer 1
10
46.709179
20
2.150098
70
0
0
VERTEX
8
Layer 1
10
46.709179
20
1.951025
70
0
0
VERTEX
8
Layer 1
10
47.154785
20
2.181738
70
0
0
VERTEX
8
Layer 1
10
47.386817
20
2.135595
70
0
0
VERTEX
8
Layer 1
10
47.546339
20
2.016942
70
0
0
VERTEX
8
Layer 1
10
47.620168
20
1.841601
70
0
0
VERTEX
8
Layer 1
10
47.633369
20
1.610888
70
0
0
VERTEX
8
Layer 1
10
47.633369
20
0.750000
70
0
0
VERTEX
8
Layer 1
10
47.396045
20
0.750000
70
0
0
VERTEX
8
Layer 1
10
47.396045
20
1.601660
70
0
0
VERTEX
8
Layer 1
10
47.368355
20
1.817871
70
0
0
VERTEX
8
Layer 1
10
47.269475
20
1.932569
70
0
0
VERTEX
8
Layer 1
10
47.104680
20
1.976075
70
0
0
VERTEX
8
Layer 1
10
46.842327
20
1.879835
70
0
0
VERTEX
8
Layer 1
10
46.732902
20
1.514649
70
0
0
VERTEX
8
Layer 1
10
46.732902
20
0.750000
70
0
0
VERTEX
8
Layer 1
10
46.495605
20
0.750000
70
0
0
SEQEND
8
Layer 1
0
POLYLINE
8
Layer 1
62
7
70
0
10
0.000000
20
0.000000
66
1
0
VERTEX
8
Layer 1
10
48.955663
20
1.200879
70
0
0
VERTEX
8
Layer 1
10
49.200879
20
1.170556
70
0
0
VERTEX
8
Layer 1
10
48.985986
20
0.837011
70
0
0
VERTEX
8
Layer 1
10
48.585204
20
0.718360
70
0
0
VERTEX
8
Layer 1
10
48.097412
20
0.906885
70
0
0
VERTEX
8
Layer 1
10
47.918115
20
1.438184
70
0
0
VERTEX
8
Layer 1
10
48.100049
20
1.986621
70
0
0
VERTEX
8
Layer 1
10
48.572021
20
2.181739
70
0
0
VERTEX
8
Layer 1
10
49.030811
20
1.990577
70
0
0
VERTEX
8
Layer 1
10
49.208789
20
1.452686
70
0
0
VERTEX
8
Layer 1
10
49.207470
20
1.389405
70
0
0
VERTEX
8
Layer 1
10
48.163329
20
1.389405
70
0
0
VERTEX
8
Layer 1
10
48.293844
20
1.036085
70
0
0
VERTEX
8
Layer 1
10
48.586520
20
0.913478
70
0
0
VERTEX
8
Layer 1
10
48.809322
20
0.982033
70
0
0
VERTEX
8
Layer 1
10
48.955662
20
1.200880
70
0
0
VERTEX
8
Layer 1
10
48.955663
20
1.200879
70
0
0
SEQEND
8
Layer 1
0
POLYLINE
8
Layer 1
62
7
70
0
10
0.000000
20
0.000000
66
1
0
VERTEX
8
Layer 1
10
48.176513
20
1.584521
70
0
0
VERTEX
8
Layer 1
10
48.958300
20
1.584521
70
0
0
VERTEX
8
Layer 1
10
48.868645
20
1.849512
70
0
0
VERTEX
8
Layer 1
10
48.574651
20
1.986621
70
0
0
VERTEX
8
Layer 1
10
48.299115
20
1.877197
70
0
0
VERTEX
8
Layer 1
10
48.176505
20
1.584521
70
0
0
VERTEX
8
Layer 1
10
48.176513
20
1.584521
70
0
0
SEQEND
8
Layer 1
0
POLYLINE
8
Layer 1
62
7
70
0
10
0.000000
20
0.000000
66
1
0
VERTEX
8
Layer 1
10
49.403905
20
1.167920
70
0
0
VERTEX
8
Layer 1
10
49.638573
20
1.204833
70
0
0
VERTEX
8
Layer 1
10
49.747998
20
0.988623
70
0
0
VERTEX
8
Layer 1
10
50.001123
20
0.913476
70
0
0
VERTEX
8
Layer 1
10
50.243701
20
0.979393
70
0
0
VERTEX
8
Layer 1
10
50.322796
20
1.136278
70
0
0
VERTEX
8
Layer 1
10
50.252926
20
1.262840
70
0
0
VERTEX
8
Layer 1
10
50.010349
20
1.343260
70
0
0
VERTEX
8
Layer 1
10
49.647799
20
1.456639
70
0
0
VERTEX
8
Layer 1
10
49.494870
20
1.589794
70
0
0
VERTEX
8
Layer 1
10
49.443450
20
1.778319
70
0
0
VERTEX
8
Layer 1
10
49.485630
20
1.951024
70
0
0
VERTEX
8
Layer 1
10
49.602960
20
2.084178
70
0
0
VERTEX
8
Layer 1
10
49.753252
20
2.152732
70
0
0
VERTEX
8
Layer 1
10
49.958916
20
2.181736
70
0
0
VERTEX
8
Layer 1
10
50.247637
20
2.134275
70
0
0
VERTEX
8
Layer 1
10
50.432208
20
2.005075
70
0
0
VERTEX
8
Layer 1
10
50.513943
20
1.788864
70
0
0
VERTEX
8
Layer 1
10
50.281911
20
1.757223
70
0
0
VERTEX
8
Layer 1
10
50.189631
20
1.925973
70
0
0
VERTEX
8
Layer 1
10
49.976056
20
1.986618
70
0
0
VERTEX
8
Layer 1
10
49.742707
20
1.932566
70
0
0
VERTEX
8
Layer 1
10
49.672837
20
1.806003
70
0
0
VERTEX
8
Layer 1
10
49.701847
20
1.722947
70
0
0
VERTEX
8
Layer 1
10
49.792807
20
1.659665
70
0
0
VERTEX
8
Layer 1
10
50.002426
20
1.599020
70
0
0
VERTEX
8
Layer 1
10
50.353110
20
1.488278
70
0
0
VERTEX
8
Layer 1
10
50.509995
20
1.364352
70
0
0
VERTEX
8
Layer 1
10
50.566680
20
1.161325
70
0
0
VERTEX
8
Layer 1
10
50.496810
20
0.937204
70
0
0
VERTEX
8
Layer 1
10
50.297737
20
0.775046
70
0
0
VERTEX
8
Layer 1
10
50.002425
20
0.718356
70
0
0
VERTEX
8
Layer 1
10
49.585824
20
0.831735
70
0
0
VERTEX
8
Layer 1
10
49.403891
20
1.167917
70
0
0
VERTEX
8
Layer 1
10
49.403905
20
1.167920
70
0
0
SEQEND
8
Layer 1
0
POLYLINE
8
Layer 1
62
7
70
0
10
0.000000
20
0.000000
66
1
0
VERTEX
8
Layer 1
10
50.753907
20
1.167920
70
0
0
VERTEX
8
Layer 1
10
50.988576
20
1.204833
70
0
0
VERTEX
8
Layer 1
10
51.098001
20
0.988623
70
0
0
VERTEX
8
Layer 1
10
51.351126
20
0.913476
70
0
0
VERTEX
8
Layer 1
10
51.593705
20
0.979393
70
0
0
VERTEX
8
Layer 1
10
51.672799
20
1.136278
70
0
0
VERTEX
8
Layer 1
10
51.602930
20
1.262840
70
0
0
VERTEX
8
Layer 1
10
51.360351
20
1.343260
70
0
0
VERTEX
8
Layer 1
10
50.997803
20
1.456639
70
0
0
VERTEX
8
Layer 1
10
50.844873
20
1.589794
70
0
0
VERTEX
8
Layer 1
10
50.793453
20
1.778319
70
0
0
VERTEX
8
Layer 1
10
50.835648
20
1.951024
70
0
0
VERTEX
8
Layer 1
10
50.952978
20
2.084178
70
0
0
VERTEX
8
Layer 1
10
51.103270
20
2.152732
70
0
0
VERTEX
8
Layer 1
10
51.308935
20
2.181736
70
0
0
VERTEX
8
Layer 1
10
51.597656
20
2.134275
70
0
0
VERTEX
8
Layer 1
10
51.782226
20
2.005075
70
0
0
VERTEX
8
Layer 1
10
51.863961
20
1.788864
70
0
0
VERTEX
8
Layer 1
10
51.631930
20
1.757223
70
0
0
VERTEX
8
Layer 1
10
51.539650
20
1.925973
70
0
0
VERTEX
8
Layer 1
10
51.326077
20
1.986618
70
0
0
VERTEX
8
Layer 1
10
51.092727
20
1.932566
70
0
0
VERTEX
8
Layer 1
10
51.022857
20
1.806003
70
0
0
VERTEX
8
Layer 1
10
51.051867
20
1.722947
70
0
0
VERTEX
8
Layer 1
10
51.142842
20
1.659665
70
0
0
VERTEX
8
Layer 1
10
51.352461
20
1.599020
70
0
0
VERTEX
8
Layer 1
10
51.703145
20
1.488278
70
0
0
VERTEX
8
Layer 1
10
51.860030
20
1.364352
70
0
0
VERTEX
8
Layer 1
10
51.916715
20
1.161325
70
0
0
VERTEX
8
Layer 1
10
51.846845
20
0.937204
70
0
0
VERTEX
8
Layer 1
10
51.647772
20
0.775046
70
0
0
VERTEX
8
Layer 1
10
51.352460
20
0.718356
70
0
0
VERTEX
8
Layer 1
10
50.935857
20
0.831735
70
0
0
VERTEX
8
Layer 1
10
50.753924
20
1.167917
70
0
0
VERTEX
8
Layer 1
10
50.753907
20
1.167920
70
0
0
SEQEND
8
Layer 1
0
POLYLINE
8
Layer 1
62
7
70
0
10
0.000000
20
0.000000
66
1
0
VERTEX
8
Layer 1
10
54.197462
20
1.886426
70
0
0
VERTEX
8
Layer 1
10
52.921289
20
1.886426
70
0
0
VERTEX
8
Layer 1
10
52.921289
20
2.107910
70
0
0
VERTEX
8
Layer 1
10
54.197462
20
2.107910
70
0
0
VERTEX
8
Layer 1
10
54.197462
20
1.886426
70
0
0
SEQEND
8
Layer 1
0
POLYLINE
8
Layer 1
62
7
70
0
10
0.000000
20
0.000000
66
1
0
VERTEX
8
Layer 1
10
54.197462
20
1.299756
70
0
0
VERTEX
8
Layer 1
10
52.921289
20
1.299756
70
0
0
VERTEX
8
Layer 1
10
52.921289
20
1.521240
70
0
0
VERTEX
8
Layer 1
10
54.197462
20
1.521240
70
0
0
VERTEX
8
Layer 1
10
54.197462
20
1.299756
70
0
0
SEQEND
8
Layer 1
0
POLYLINE
8
Layer 1
62
7
70
0
10
0.000000
20
0.000000
66
1
0
VERTEX
8
Layer 1
10
56.103808
20
0.750000
70
0
0
VERTEX
8
Layer 1
10
55.866504
20
0.750000
70
0
0
VERTEX
8
Layer 1
10
55.866504
20
2.262158
70
0
0
VERTEX
8
Layer 1
10
55.641064
20
2.098682
70
0
0
VERTEX
8
Layer 1
10
55.391895
20
1.976075
70
0
0
VERTEX
8
Layer 1
10
55.391895
20
2.205469
70
0
0
VERTEX
8
Layer 1
10
55.739941
20
2.432226
70
0
0
VERTEX
8
Layer 1
10
55.950879
20
2.690625
70
0
0
VERTEX
8
Layer 1
10
56.103808
20
2.690625
70
0
0
VERTEX
8
Layer 1
10
56.103808
20
0.750000
70
0
0
SEQEND
8
Layer 1
0
POLYLINE
8
Layer 1
62
7
70
0
10
0.000000
20
0.000000
66
1
0
VERTEX
8
Layer 1
10
56.711569
20
1.703174
70
0
0
VERTEX
8
Layer 1
10
56.781439
20
2.254248
70
0
0
VERTEX
8
Layer 1
10
56.991059
20
2.577246
70
0
0
VERTEX
8
Layer 1
10
57.341742
20
2.690625
70
0
0
VERTEX
8
Layer 1
10
57.614642
20
2.627343
70
0
0
VERTEX
8
Layer 1
10
57.808442
20
2.446728
70
0
0
VERTEX
8
Layer 1
10
57.928411
20
2.159325
70
0
0
VERTEX
8
Layer 1
10
57.971912
20
1.703173
70
0
0
VERTEX
8
Layer 1
10
57.902042
20
1.153417
70
0
0
VERTEX
8
Layer 1
10
57.692423
20
0.830419
70
0
0
VERTEX
8
Layer 1
10
57.341739
20
0.717040
70
0
0
VERTEX
8
Layer 1
10
56.902725
20
0.917431
70
0
0
VERTEX
8
Layer 1
10
56.711564
20
1.703173
70
0
0
VERTEX
8
Layer 1
10
56.711569
20
1.703174
70
0
0
SEQEND
8
Layer 1
0
POLYLINE
8
Layer 1
62
7
70
0
10
0.000000
20
0.000000
66
1
0
VERTEX
8
Layer 1
10
56.955465
20
1.703174
70
0
0
VERTEX
8
Layer 1
10
57.066210
20
1.069043
70
0
0
VERTEX
8
Layer 1
10
57.341748
20
0.912158
70
0
0
VERTEX
8
Layer 1
10
57.615966
20
1.070361
70
0
0
VERTEX
8
Layer 1
10
57.728031
20
1.703174
70
0
0
VERTEX
8
Layer 1
10
57.615966
20
2.337305
70
0
0
VERTEX
8
Layer 1
10
57.339111
20
2.494189
70
0
0
VERTEX
8
Layer 1
10
57.078075
20
2.355762
70
0
0
VERTEX
8
Layer 1
10
56.955465
20
1.703174
70
0
0
VERTEX
8
Layer 1
10
56.955465
20
1.703174
70
0
0
SEQEND
8
Layer 1
0
POLYLINE
8
Layer 1
62
7
70
0
10
0.000000
20
0.000000
66
1
0
VERTEX
8
Layer 1
10
58.213182
20
1.703174
70
0
0
VERTEX
8
Layer 1
10
58.283052
20
2.254248
70
0
0
VERTEX
8
Layer 1
10
58.492671
20
2.577246
70
0
0
VERTEX
8
Layer 1
10
58.843355
20
2.690625
70
0
0
VERTEX
8
Layer 1
10
59.116256
20
2.627343
70
0
0
VERTEX
8
Layer 1
10
59.310054
20
2.446728
70
0
0
VERTEX
8
Layer 1
10
59.430024
20
2.159325
70
0
0
VERTEX
8
Layer 1
10
59.473524
20
1.703173
70
0
0
VERTEX
8
Layer 1
10
59.403654
20
1.153417
70
0
0
VERTEX
8
Layer 1
10
59.194035
20
0.830419
70
0
0
VERTEX
8
Layer 1
10
58.843350
20
0.717040
70
0
0
VERTEX
8
Layer 1
10
58.404337
20
0.917431
70
0
0
VERTEX
8
Layer 1
10
58.213174
20
1.703173
70
0
0
VERTEX
8
Layer 1
10
58.213182
20
1.703174
70
0
0
SEQEND
8
Layer 1
0
POLYLINE
8
Layer 1
62
7
70
0
10
0.000000
20
0.000000
66
1
0
VERTEX
8
Layer 1
10
58.457079
20
1.703174
70
0
0
VERTEX
8
Layer 1
10
58.567824
20
1.069043
70
0
0
VERTEX
8
Layer 1
10
58.843361
20
0.912158
70
0
0
VERTEX
8
Layer 1
10
59.117580
20
1.070361
70
0
0
VERTEX
8
Layer 1
10
59.229645
20
1.703174
70
0
0
VERTEX
8
Layer 1
10
59.117580
20
2.337305
70
0
0
VERTEX
8
Layer 1
10
58.840725
20
2.494189
70
0
0
VERTEX
8
Layer 1
10
58.579689
20
2.355762
70
0
0
VERTEX
8
Layer 1
10
58.457079
20
1.703174
70
0
0
VERTEX
8
Layer 1
10
58.457079
20
1.703174
70
0
0
SEQEND
8
Layer 1
0
POLYLINE
8
Layer 1
62
7
70
0
10
0.000000
20
0.000000
66
1
0
VERTEX
8
Layer 1
10
59.759621
20
2.218652
70
0
0
VERTEX
8
Layer 1
10
59.863765
20
2.570654
70
0
0
VERTEX
8
Layer 1
10
60.165671
20
2.715674
70
0
0
VERTEX
8
Layer 1
10
60.466257
20
2.585156
70
0
0
VERTEX
8
Layer 1
10
60.586227
20
2.204150
70
0
0
VERTEX
8
Layer 1
10
60.464937
20
1.825781
70
0
0
VERTEX
8
Layer 1
10
60.168306
20
1.693945
70
0
0
VERTEX
8
Layer 1
10
59.875630
20
1.824463
70
0
0
VERTEX
8
Layer 1
10
59.759620
20
2.218652
70
0
0
VERTEX
8
Layer 1
10
59.759621
20
2.218652
70
0
0
SEQEND
8
Layer 1
0
POLYLINE
8
Layer 1
62
7
70
0
10
0.000000
20
0.000000
66
1
0
VERTEX
8
Layer 1
10
60.172268
20
2.552197
70
0
0
VERTEX
8
Layer 1
10
60.024608
20
2.475733
70
0
0
VERTEX
8
Layer 1
10
59.966603
20
2.194923
70
0
0
VERTEX
8
Layer 1
10
60.025928
20
1.932569
70
0
0
VERTEX
8
Layer 1
10
60.172268
20
1.857422
70
0
0
VERTEX
8
Layer 1
10
60.319927
20
1.933888
70
0
0
VERTEX
8
Layer 1
10
60.379252
20
2.213380
70
0
0
VERTEX
8
Layer 1
10
60.319927
20
2.475733
70
0
0
VERTEX
8
Layer 1
10
60.172268
20
2.552197
70
0
0
VERTEX
8
Layer 1
10
60.172268
20
2.552197
70
0
0
SEQEND
8
Layer 1
0
POLYLINE
8
Layer 1
62
7
70
1
10
0.000000
20
0.000000
66
1
0
VERTEX
8
Layer 1
10
60.173585
20
0.678809
70
0
0
VERTEX
8
Layer 1
10
61.230909
20
2.715674
70
0
0
VERTEX
8
Layer 1
10
61.423391
20
2.715674
70
0
0
VERTEX
8
Layer 1
10
60.370020
20
0.678809
70
0
0
VERTEX
8
Layer 1
10
60.173585
20
0.678809
70
0
0
SEQEND
8
Layer 1
0
POLYLINE
8
Layer 1
62
7
70
0
10
0.000000
20
0.000000
66
1
0
VERTEX
8
Layer 1
10
61.009425
20
1.203516
70
0
0
VERTEX
8
Layer 1
10
61.113570
20
1.555518
70
0
0
VERTEX
8
Layer 1
10
61.416792
20
1.700538
70
0
0
VERTEX
8
Layer 1
10
61.717379
20
1.570020
70
0
0
VERTEX
8
Layer 1
10
61.837349
20
1.189014
70
0
0
VERTEX
8
Layer 1
10
61.716059
20
0.810645
70
0
0
VERTEX
8
Layer 1
10
61.418109
20
0.678808
70
0
0
VERTEX
8
Layer 1
10
61.125433
20
0.809326
70
0
0
VERTEX
8
Layer 1
10
61.009423
20
1.203515
70
0
0
VERTEX
8
Layer 1
10
61.009425
20
1.203516
70
0
0
SEQEND
8
Layer 1
0
POLYLINE
8
Layer 1
62
7
70
0
10
0.000000
20
0.000000
66
1
0
VERTEX
8
Layer 1
10
61.423390
20
1.537060
70
0
0
VERTEX
8
Layer 1
10
61.274411
20
1.460596
70
0
0
VERTEX
8
Layer 1
10
61.216405
20
1.179786
70
0
0
VERTEX
8
Layer 1
10
61.275730
20
0.918751
70
0
0
VERTEX
8
Layer 1
10
61.422070
20
0.842285
70
0
0
VERTEX
8
Layer 1
10
61.571050
20
0.918751
70
0
0
VERTEX
8
Layer 1
10
61.630375
20
1.198243
70
0
0
VERTEX
8
Layer 1
10
61.571050
20
1.460596
70
0
0
VERTEX
8
Layer 1
10
61.423390
20
1.537060
70
0
0
VERTEX
8
Layer 1
10
61.423390
20
1.537060
70
0
0
SEQEND
8
Layer 1
0
POLYLINE
8
Layer 1
62
7
70
0
10
0.000000
20
0.000000
66
1
0
VERTEX
8
Layer 1
10
62.884126
20
1.691308
70
0
0
VERTEX
8
Layer 1
10
62.948726
20
2.120105
70
0
0
VERTEX
8
Layer 1
10
63.142524
20
2.444092
70
0
0
VERTEX
8
Layer 1
10
63.438496
20
2.648767
70
0
0
VERTEX
8
Layer 1
10
63.809615
20
2.716992
70
0
0
VERTEX
8
Layer 1
10
64.292135
20
2.589111
70
0
0
VERTEX
8
Layer 1
10
64.619087
20
2.231836
70
0
0
VERTEX
8
Layer 1
10
64.732472
20
1.713721
70
0
0
VERTEX
8
Layer 1
10
64.613822
20
1.187695
70
0
0
VERTEX
8
Layer 1
10
64.277640
20
0.835693
70
0
0
VERTEX
8
Layer 1
10
63.808304
20
0.717040
70
0
0
VERTEX
8
Layer 1
10
63.320511
20
0.848877
70
0
0
VERTEX
8
Layer 1
10
62.994876
20
1.208789
70
0
0
VERTEX
8
Layer 1
10
62.884131
20
1.691308
70
0
0
VERTEX
8
Layer 1
10
62.884126
20
1.691308
70
0
0
SEQEND
8
Layer 1
0
POLYLINE
8
Layer 1
62
7
70
0
10
0.000000
20
0.000000
66
1
0
VERTEX
8
Layer 1
10
63.147798
20
1.687348
70
0
0
VERTEX
8
Layer 1
10
63.335006
20
1.136274
70
0
0
VERTEX
8
Layer 1
10
63.806978
20
0.935884
70
0
0
VERTEX
8
Layer 1
10
64.281587
20
1.138911
70
0
0
VERTEX
8
Layer 1
10
64.468794
20
1.715034
70
0
0
VERTEX
8
Layer 1
10
64.388379
20
2.126362
70
0
0
VERTEX
8
Layer 1
10
64.155029
20
2.399263
70
0
0
VERTEX
8
Layer 1
10
63.810938
20
2.496821
70
0
0
VERTEX
8
Layer 1
10
63.342920
20
2.309614
70
0
0
VERTEX
8
Layer 1
10
63.147803
20
1.687348
70
0
0
VERTEX
8
Layer 1
10
63.147798
20
1.687348
70
0
0
SEQEND
8
Layer 1
0
POLYLINE
8
Layer 1
62
7
70
1
10
0.000000
20
0.000000
66
1
0
VERTEX
8
Layer 1
10
65.029101
20
0.750000
70
0
0
VERTEX
8
Layer 1
10
65.029101
20
2.150098
70
0
0
VERTEX
8
Layer 1
10
65.242676
20
2.150098
70
0
0
VERTEX
8
Layer 1
10
65.242676
20
1.937842
70
0
0
VERTEX
8
Layer 1
10
65.392968
20
2.134277
70
0
0
VERTEX
8
Layer 1
10
65.545899
20
2.181739
70
0
0
VERTEX
8
Layer 1
10
65.789794
20
2.105273
70
0
0
VERTEX
8
Layer 1
10
65.708059
20
1.885107
70
0
0
VERTEX
8
Layer 1
10
65.534035
20
1.936523
70
0
0
VERTEX
8
Layer 1
10
65.394295
20
1.889061
70
0
0
VERTEX
8
Layer 1
10
65.305960
20
1.759862
70
0
0
VERTEX
8
Layer 1
10
65.266405
20
1.483006
70
0
0
VERTEX
8
Layer 1
10
65.266405
20
0.750000
70
0
0
VERTEX
8
Layer 1
10
65.029101
20
0.750000
70
0
0
SEQEND
8
Layer 1
0
POLYLINE
8
Layer 1
62
7
70
1
10
0.000000
20
0.000000
66
1
0
VERTEX
8
Layer 1
10
65.932173
20
2.409814
70
0
0
VERTEX
8
Layer 1
10
65.932173
20
2.682715
70
0
0
VERTEX
8
Layer 1
10
66.169477
20
2.682715
70
0
0
VERTEX
8
Layer 1
10
66.169477
20
2.409814
70
0
0
VERTEX
8
Layer 1
10
65.932173
20
2.409814
70
0
0
SEQEND
8
Layer 1
0
POLYLINE
8
Layer 1
62
7
70
1
10
0.000000
20
0.000000
66
1
0
VERTEX
8
Layer 1
10
65.932173
20
0.750000
70
0
0
VERTEX
8
Layer 1
10
65.932173
20
2.150098
70
0
0
VERTEX
8
Layer 1
10
66.169477
20
2.150098
70
0
0
VERTEX
8
Layer 1
10
66.169477
20
0.750000
70
0
0
VERTEX
8
Layer 1
10
65.932173
20
0.750000
70
0
0
SEQEND
8
Layer 1
0
POLYLINE
8
Layer 1
62
7
70
0
10
0.000000
20
0.000000
66
1
0
VERTEX
8
Layer 1
10
66.487203
20
0.633984
70
0
0
VERTEX
8
Layer 1
10
66.717915
20
0.599706
70
0
0
VERTEX
8
Layer 1
10
66.798330
20
0.444140
70
0
0
VERTEX
8
Layer 1
10
67.039588
20
0.378222
70
0
0
VERTEX
8
Layer 1
10
67.294032
20
0.444140
70
0
0
VERTEX
8
Layer 1
10
67.415322
20
0.628710
70
0
0
VERTEX
8
Layer 1
10
67.432467
20
0.933251
70
0
0
VERTEX
8
Layer 1
10
67.044869
20
0.750000
70
0
0
VERTEX
8
Layer 1
10
66.597945
20
0.958301
70
0
0
VERTEX
8
Layer 1
10
66.439741
20
1.457959
70
0
0
VERTEX
8
Layer 1
10
66.512252
20
1.827100
70
0
0
VERTEX
8
Layer 1
10
66.721871
20
2.089453
70
0
0
VERTEX
8
Layer 1
10
67.046187
20
2.181738
70
0
0
VERTEX
8
Layer 1
10
67.454879
20
1.981347
70
0
0
VERTEX
8
Layer 1
10
67.454879
20
2.150097
70
0
0
VERTEX
8
Layer 1
10
67.673726
20
2.150097
70
0
0
VERTEX
8
Layer 1
10
67.673726
20
0.939843
70
0
0
VERTEX
8
Layer 1
10
67.606496
20
0.477099
70
0
0
VERTEX
8
Layer 1
10
67.395558
20
0.260888
70
0
0
VERTEX
8
Layer 1
10
67.040919
20
0.181787
70
0
0
VERTEX
8
Layer 1
10
66.636183
20
0.295166
70
0
0
VERTEX
8
Layer 1
10
66.487203
20
0.633984
70
0
0
VERTEX
8
Layer 1
10
66.487203
20
0.633984
70
0
0
SEQEND
8
Layer 1
0
POLYLINE
8
Layer 1
62
7
70
0
10
0.000000
20
0.000000
66
1
0
VERTEX
8
Layer 1
10
66.683639
20
1.475097
70
0
0
VERTEX
8
Layer 1
10
66.793064
20
1.072998
70
0
0
VERTEX
8
Layer 1
10
67.067281
20
0.946435
70
0
0
VERTEX
8
Layer 1
10
67.341501
20
1.071679
70
0
0
VERTEX
8
Layer 1
10
67.452246
20
1.467187
70
0
0
VERTEX
8
Layer 1
10
67.337556
20
1.854784
70
0
0
VERTEX
8
Layer 1
10
67.063338
20
1.985302
70
0
0
VERTEX
8
Layer 1
10
66.794393
20
1.856103
70
0
0
VERTEX
8
Layer 1
10
66.683648
20
1.475097
70
0
0
VERTEX
8
Layer 1
10
66.683639
20
1.475097
70
0
0
SEQEND
8
Layer 1
0
POLYLINE
8
Layer 1
62
7
70
1
10
0.000000
20
0.000000
66
1
0
VERTEX
8
Layer 1
10
68.033640
20
2.409814
70
0
0
VERTEX
8
Layer 1
10
68.033640
20
2.682715
70
0
0
VERTEX
8
Layer 1
10
68.270944
20
2.682715
70
0
0
VERTEX
8
Layer 1
10
68.270944
20
2.409814
70
0
0
VERTEX
8
Layer 1
10
68.033640
20
2.409814
70
0
0
SEQEND
8
Layer 1
0
POLYLINE
8
Layer 1
62
7
70
1
10
0.000000
20
0.000000
66
1
0
VERTEX
8
Layer 1
10
68.033640
20
0.750000
70
0
0
VERTEX
8
Layer 1
10
68.033640
20
2.150098
70
0
0
VERTEX
8
Layer 1
10
68.270944
20
2.150098
70
0
0
VERTEX
8
Layer 1
10
68.270944
20
0.750000
70
0
0
VERTEX
8
Layer 1
10
68.033640
20
0.750000
70
0
0
SEQEND
8
Layer 1
0
POLYLINE
8
Layer 1
62
7
70
1
10
0.000000
20
0.000000
66
1
0
VERTEX
8
Layer 1
10
68.632176
20
0.750000
70
0
0
VERTEX
8
Layer 1
10
68.632176
20
2.150098
70
0
0
VERTEX
8
Layer 1
10
68.845749
20
2.150098
70
0
0
VERTEX
8
Layer 1
10
68.845749
20
1.951025
70
0
0
VERTEX
8
Layer 1
10
69.291355
20
2.181738
70
0
0
VERTEX
8
Layer 1
10
69.523386
20
2.135595
70
0
0
VERTEX
8
Layer 1
10
69.682908
20
2.016942
70
0
0
VERTEX
8
Layer 1
10
69.756738
20
1.841601
70
0
0
VERTEX
8
Layer 1
10
69.769938
20
1.610888
70
0
0
VERTEX
8
Layer 1
10
69.769938
20
0.750000
70
0
0
VERTEX
8
Layer 1
10
69.532616
20
0.750000
70
0
0
VERTEX
8
Layer 1
10
69.532616
20
1.601660
70
0
0
VERTEX
8
Layer 1
10
69.504926
20
1.817871
70
0
0
VERTEX
8
Layer 1
10
69.406046
20
1.932569
70
0
0
VERTEX
8
Layer 1
10
69.241250
20
1.976075
70
0
0
VERTEX
8
Layer 1
10
68.978897
20
1.879835
70
0
0
VERTEX
8
Layer 1
10
68.869472
20
1.514649
70
0
0
VERTEX
8
Layer 1
10
68.869472
20
0.750000
70
0
0
VERTEX
8
Layer 1
10
68.632176
20
0.750000
70
0
0
SEQEND
8
Layer 1
0
POLYLINE
8
Layer 1
62
7
70
0
10
0.000000
20
0.000000
66
1
0
VERTEX
8
Layer 1
10
72.132418
20
1.886426
70
0
0
VERTEX
8
Layer 1
10
70.856247
20
1.886426
70
0
0
VERTEX
8
Layer 1
10
70.856247
20
2.107910
70
0
0
VERTEX
8
Layer 1
10
72.132418
20
2.107910
70
0
0
VERTEX
8
Layer 1
10
72.132418
20
1.886426
70
0
0
SEQEND
8
Layer 1
0
POLYLINE
8
Layer 1
62
7
70
0
10
0.000000
20
0.000000
66
1
0
VERTEX
8
Layer 1
10
72.132418
20
1.299756
70
0
0
VERTEX
8
Layer 1
10
70.856247
20
1.299756
70
0
0
VERTEX
8
Layer 1
10
70.856247
20
1.521240
70
0
0
VERTEX
8
Layer 1
10
72.132418
20
1.521240
70
0
0
VERTEX
8
Layer 1
10
72.132418
20
1.299756
70
0
0
SEQEND
8
Layer 1
0
POLYLINE
8
Layer 1
62
7
70
0
10
0.000000
20
0.000000
66
1
0
VERTEX
8
Layer 1
10
73.144918
20
1.703174
70
0
0
VERTEX
8
Layer 1
10
73.214788
20
2.254248
70
0
0
VERTEX
8
Layer 1
10
73.424408
20
2.577246
70
0
0
VERTEX
8
Layer 1
10
73.775091
20
2.690625
70
0
0
VERTEX
8
Layer 1
10
74.047992
20
2.627343
70
0
0
VERTEX
8
Layer 1
10
74.241790
20
2.446728
70
0
0
VERTEX
8
Layer 1
10
74.361761
20
2.159325
70
0
0
VERTEX
8
Layer 1
10
74.405260
20
1.703173
70
0
0
VERTEX
8
Layer 1
10
74.335391
20
1.153417
70
0
0
VERTEX
8
Layer 1
10
74.125771
20
0.830419
70
0
0
VERTEX
8
Layer 1
10
73.775088
20
0.717040
70
0
0
VERTEX
8
Layer 1
10
73.336074
20
0.917431
70
0
0
VERTEX
8
Layer 1
10
73.144913
20
1.703173
70
0
0
VERTEX
8
Layer 1
10
73.144918
20
1.703174
70
0
0
SEQEND
8
Layer 1
0
POLYLINE
8
Layer 1
62
7
70
0
10
0.000000
20
0.000000
66
1
0
VERTEX
8
Layer 1
10
73.388815
20
1.703174
70
0
0
VERTEX
8
Layer 1
10
73.499561
20
1.069043
70
0
0
VERTEX
8
Layer 1
10
73.775097
20
0.912158
70
0
0
VERTEX
8
Layer 1
10
74.049317
20
1.070361
70
0
0
VERTEX
8
Layer 1
10
74.161382
20
1.703174
70
0
0
VERTEX
8
Layer 1
10
74.049317
20
2.337305
70
0
0
VERTEX
8
Layer 1
10
73.772460
20
2.494189
70
0
0
VERTEX
8
Layer 1
10
73.511426
20
2.355762
70
0
0
VERTEX
8
Layer 1
10
73.388816
20
1.703174
70
0
0
VERTEX
8
Layer 1
10
73.388815
20
1.703174
70
0
0
SEQEND
8
Layer 1
0
POLYLINE
8
Layer 1
62
7
70
0
10
0.000000
20
0.000000
66
1
0
VERTEX
8
Layer 1
10
74.691357
20
2.218652
70
0
0
VERTEX
8
Layer 1
10
74.795502
20
2.570654
70
0
0
VERTEX
8
Layer 1
10
75.097407
20
2.715674
70
0
0
VERTEX
8
Layer 1
10
75.397992
20
2.585156
70
0
0
VERTEX
8
Layer 1
10
75.517962
20
2.204150
70
0
0
VERTEX
8
Layer 1
10
75.396672
20
1.825781
70
0
0
VERTEX
8
Layer 1
10
75.100041
20
1.693945
70
0
0
VERTEX
8
Layer 1
10
74.807365
20
1.824463
70
0
0
VERTEX
8
Layer 1
10
74.691355
20
2.218652
70
0
0
VERTEX
8
Layer 1
10
74.691357
20
2.218652
70
0
0
SEQEND
8
Layer 1
0
POLYLINE
8
Layer 1
62
7
70
0
10
0.000000
20
0.000000
66
1
0
VERTEX
8
Layer 1
10
75.104003
20
2.552197
70
0
0
VERTEX
8
Layer 1
10
74.956343
20
2.475733
70
0
0
VERTEX
8
Layer 1
10
74.898337
20
2.194923
70
0
0
VERTEX
8
Layer 1
10
74.957662
20
1.932569
70
0
0
VERTEX
8
Layer 1
10
75.104003
20
1.857422
70
0
0
VERTEX
8
Layer 1
10
75.251662
20
1.933888
70
0
0
VERTEX
8
Layer 1
10
75.310987
20
2.213380
70
0
0
VERTEX
8
Layer 1
10
75.251662
20
2.475733
70
0
0
VERTEX
8
Layer 1
10
75.104003
20
2.552197
70
0
0
VERTEX
8
Layer 1
10
75.104003
20
2.552197
70
0
0
SEQEND
8
Layer 1
0
POLYLINE
8
Layer 1
62
7
70
0
10
0.000000
20
0.000000
66
1
0
VERTEX
8
Layer 1
10
75.105321
20
0.678809
70
0
0
VERTEX
8
Layer 1
10
76.162645
20
2.715674
70
0
0
VERTEX
8
Layer 1
10
76.355126
20
2.715674
70
0
0
VERTEX
8
Layer 1
10
75.301757
20
0.678809
70
0
0
VERTEX
8
Layer 1
10
75.105321
20
0.678809
70
0
0
SEQEND
8
Layer 1
0
POLYLINE
8
Layer 1
62
7
70
0
10
0.000000
20
0.000000
66
1
0
VERTEX
8
Layer 1
10
75.941161
20
1.203516
70
0
0
VERTEX
8
Layer 1
10
76.045306
20
1.555518
70
0
0
VERTEX
8
Layer 1
10
76.348530
20
1.700538
70
0
0
VERTEX
8
Layer 1
10
76.649115
20
1.570020
70
0
0
VERTEX
8
Layer 1
10
76.769085
20
1.189014
70
0
0
VERTEX
8
Layer 1
10
76.647795
20
0.810645
70
0
0
VERTEX
8
Layer 1
10
76.349847
20
0.678808
70
0
0
VERTEX
8
Layer 1
10
76.057170
20
0.809326
70
0
0
VERTEX
8
Layer 1
10
75.941160
20
1.203515
70
0
0
VERTEX
8
Layer 1
10
75.941161
20
1.203516
70
0
0
SEQEND
8
Layer 1
0
POLYLINE
8
Layer 1
62
7
70
0
10
0.000000
20
0.000000
66
1
0
VERTEX
8
Layer 1
10
76.355125
20
1.537060
70
0
0
VERTEX
8
Layer 1
10
76.206145
20
1.460596
70
0
0
VERTEX
8
Layer 1
10
76.148140
20
1.179786
70
0
0
VERTEX
8
Layer 1
10
76.207465
20
0.918751
70
0
0
VERTEX
8
Layer 1
10
76.353805
20
0.842285
70
0
0
VERTEX
8
Layer 1
10
76.502785
20
0.918751
70
0
0
VERTEX
8
Layer 1
10
76.562110
20
1.198243
70
0
0
VERTEX
8
Layer 1
10
76.502785
20
1.460596
70
0
0
VERTEX
8
Layer 1
10
76.355125
20
1.537060
70
0
0
VERTEX
8
Layer 1
10
76.355125
20
1.537060
70
0
0
SEQEND
8
Layer 1
0
POLYLINE
8
Layer 1
62
7
70
1
10
0.000000
20
0.000000
66
1
0
VERTEX
8
Layer 1
10
77.893652
20
0.750000
70
0
0
VERTEX
8
Layer 1
10
77.893652
20
2.682715
70
0
0
VERTEX
8
Layer 1
10
78.622704
20
2.682715
70
0
0
VERTEX
8
Layer 1
10
78.916698
20
2.664257
70
0
0
VERTEX
8
Layer 1
10
79.155321
20
2.573291
70
0
0
VERTEX
8
Layer 1
10
79.309569
20
2.387403
70
0
0
VERTEX
8
Layer 1
10
79.368894
20
2.123731
70
0
0
VERTEX
8
Layer 1
10
79.212009
20
1.705811
70
0
0
VERTEX
8
Layer 1
10
78.645114
20
1.535742
70
0
0
VERTEX
8
Layer 1
10
78.149414
20
1.535742
70
0
0
VERTEX
8
Layer 1
10
78.149414
20
0.750000
70
0
0
VERTEX
8
Layer 1
10
77.893652
20
0.750000
70
0
0
SEQEND
8
Layer 1
0
POLYLINE
8
Layer 1
62
7
70
0
10
0.000000
20
0.000000
66
1
0
VERTEX
8
Layer 1
10
78.149414
20
1.763818
70
0
0
VERTEX
8
Layer 1
10
78.649071
20
1.763818
70
0
0
VERTEX
8
Layer 1
10
79.001073
20
1.856103
70
0
0
VERTEX
8
Layer 1
10
79.105218
20
2.115820
70
0
0
VERTEX
8
Layer 1
10
79.043253
20
2.322802
70
0
0
VERTEX
8
Layer 1
10
78.882420
20
2.437500
70
0
0
VERTEX
8
Layer 1
10
78.643797
20
2.454639
70
0
0
VERTEX
8
Layer 1
10
78.149414
20
2.454639
70
0
0
VERTEX
8
Layer 1
10
78.149414
20
1.763818
70
0
0
SEQEND
8
Layer 1
0
POLYLINE
8
Layer 1
62
7
70
1
10
0.000000
20
0.000000
66
1
0
VERTEX
8
Layer 1
10
79.665524
20
2.409814
70
0
0
VERTEX
8
Layer 1
10
79.665524
20
2.682715
70
0
0
VERTEX
8
Layer 1
10
79.902828
20
2.682715
70
0
0
VERTEX
8
Layer 1
10
79.902828
20
2.409814
70
0
0
VERTEX
8
Layer 1
10
79.665524
20
2.409814
70
0
0
SEQEND
8
Layer 1
0
POLYLINE
8
Layer 1
62
7
70
1
10
0.000000
20
0.000000
66
1
0
VERTEX
8
Layer 1
10
79.665524
20
0.750000
70
0
0
VERTEX
8
Layer 1
10
79.665524
20
2.150098
70
0
0
VERTEX
8
Layer 1
10
79.902828
20
2.150098
70
0
0
VERTEX
8
Layer 1
10
79.902828
20
0.750000
70
0
0
VERTEX
8
Layer 1
10
79.665524
20
0.750000
70
0
0
SEQEND
8
Layer 1
0
POLYLINE
8
Layer 1
62
7
70
0
10
0.000000
20
0.000000
66
1
0
VERTEX
8
Layer 1
10
80.782174
20
0.962256
70
0
0
VERTEX
8
Layer 1
10
80.816449
20
0.752637
70
0
0
VERTEX
8
Layer 1
10
80.637153
20
0.731544
70
0
0
VERTEX
8
Layer 1
10
80.436762
20
0.772413
70
0
0
VERTEX
8
Layer 1
10
80.336562
20
0.879199
70
0
0
VERTEX
8
Layer 1
10
80.307552
20
1.160010
70
0
0
VERTEX
8
Layer 1
10
80.307552
20
1.965527
70
0
0
VERTEX
8
Layer 1
10
80.133542
20
1.965527
70
0
0
VERTEX
8
Layer 1
10
80.133542
20
2.150098
70
0
0
VERTEX
8
Layer 1
10
80.307566
20
2.150098
70
0
0
VERTEX
8
Layer 1
10
80.307566
20
2.496826
70
0
0
VERTEX
8
Layer 1
10
80.543552
20
2.639209
70
0
0
VERTEX
8
Layer 1
10
80.543552
20
2.150098
70
0
0
VERTEX
8
Layer 1
10
80.782175
20
2.150098
70
0
0
VERTEX
8
Layer 1
10
80.782175
20
1.965528
70
0
0
VERTEX
8
Layer 1
10
80.543552
20
1.965528
70
0
0
VERTEX
8
Layer 1
10
80.543552
20
1.146827
70
0
0
VERTEX
8
Layer 1
10
80.555402
20
1.016309
70
0
0
VERTEX
8
Layer 1
10
80.596277
20
0.970166
70
0
0
VERTEX
8
Layer 1
10
80.678012
20
0.953026
70
0
0
VERTEX
8
Layer 1
10
80.782157
20
0.962251
70
0
0
VERTEX
8
Layer 1
10
80.782174
20
0.962256
70
0
0
SEQEND
8
Layer 1
0
POLYLINE
8
Layer 1
62
7
70
0
10
0.000000
20
0.000000
66
1
0
VERTEX
8
Layer 1
10
81.927831
20
1.262842
70
0
0
VERTEX
8
Layer 1
10
82.161180
20
1.232519
70
0
0
VERTEX
8
Layer 1
10
81.964744
20
0.854150
70
0
0
VERTEX
8
Layer 1
10
81.578466
20
0.718360
70
0
0
VERTEX
8
Layer 1
10
81.115722
20
0.905567
70
0
0
VERTEX
8
Layer 1
10
80.941698
20
1.444776
70
0
0
VERTEX
8
Layer 1
10
81.016848
20
1.841602
70
0
0
VERTEX
8
Layer 1
10
81.244923
20
2.096045
70
0
0
VERTEX
8
Layer 1
10
81.579787
20
2.181739
70
0
0
VERTEX
8
Layer 1
10
81.952882
20
2.065723
70
0
0
VERTEX
8
Layer 1
10
82.138771
20
1.738770
70
0
0
VERTEX
8
Layer 1
10
81.908058
20
1.703173
70
0
0
VERTEX
8
Layer 1
10
81.790728
20
1.915429
70
0
0
VERTEX
8
Layer 1
10
81.589018
20
1.986620
70
0
0
VERTEX
8
Layer 1
10
81.297661
20
1.857421
70
0
0
VERTEX
8
Layer 1
10
81.185596
20
1.451366
70
0
0
VERTEX
8
Layer 1
10
81.293701
20
1.041357
70
0
0
VERTEX
8
Layer 1
10
81.575830
20
0.913476
70
0
0
VERTEX
8
Layer 1
10
81.809179
20
0.999169
70
0
0
VERTEX
8
Layer 1
10
81.927829
20
1.262841
70
0
0
VERTEX
8
Layer 1
10
81.927831
20
1.262842
70
0
0
SEQEND
8
Layer 1
0
POLYLINE
8
Layer 1
62
7
70
1
10
0.000000
20
0.000000
66
1
0
VERTEX
8
Layer 1
10
82.364205
20
0.750000
70
0
0
VERTEX
8
Layer 1
10
82.364205
20
2.682715
70
0
0
VERTEX
8
Layer 1
10
82.601509
20
2.682715
70
0
0
VERTEX
8
Layer 1
10
82.601509
20
1.989258
70
0
0
VERTEX
8
Layer 1
10
83.020747
20
2.181738
70
0
0
VERTEX
8
Layer 1
10
83.291011
20
2.119775
70
0
0
VERTEX
8
Layer 1
10
83.454487
20
1.951025
70
0
0
VERTEX
8
Layer 1
10
83.504587
20
1.637255
70
0
0
VERTEX
8
Layer 1
10
83.504587
20
0.750000
70
0
0
VERTEX
8
Layer 1
10
83.267280
20
0.750000
70
0
0
VERTEX
8
Layer 1
10
83.267280
20
1.637256
70
0
0
VERTEX
8
Layer 1
10
83.189505
20
1.895654
70
0
0
VERTEX
8
Layer 1
10
82.971975
20
1.977392
70
0
0
VERTEX
8
Layer 1
10
82.772904
20
1.922021
70
0
0
VERTEX
8
Layer 1
10
82.641069
20
1.774364
70
0
0
VERTEX
8
Layer 1
10
82.601514
20
1.515966
70
0
0
VERTEX
8
Layer 1
10
82.601514
20
0.750000
70
0
0
VERTEX
8
Layer 1
10
82.364205
20
0.750000
70
0
0
SEQEND
8
Layer 1
0
POLYLINE
8
Layer 1
62
7
70
0
10
0.000000
20
0.000000
66
1
0
VERTEX
8
Layer 1
10
85.864453
20
1.886426
70
0
0
VERTEX
8
Layer 1
10
84.588280
20
1.886426
70
0
0
VERTEX
8
Layer 1
10
84.588280
20
2.107910
70
0
0
VERTEX
8
Layer 1
10
85.864453
20
2.107910
70
0
0
VERTEX
8
Layer 1
10
85.864453
20
1.886426
70
0
0
SEQEND
8
Layer 1
0
POLYLINE
8
Layer 1
62
7
70
0
10
0.000000
20
0.000000
66
1
0
VERTEX
8
Layer 1
10
85.864453
20
1.299756
70
0
0
VERTEX
8
Layer 1
10
84.588280
20
1.299756
70
0
0
VERTEX
8
Layer 1
10
84.588280
20
1.521240
70
0
0
VERTEX
8
Layer 1
10
85.864453
20
1.521240
70
0
0
VERTEX
8
Layer 1
10
85.864453
20
1.299756
70
0
0
SEQEND
8
Layer 1
0
POLYLINE
8
Layer 1
62
7
70
0
10
0.000000
20
0.000000
66
1
0
VERTEX
8
Layer 1
10
86.876953
20
1.703174
70
0
0
VERTEX
8
Layer 1
10
86.946823
20
2.254248
70
0
0
VERTEX
8
Layer 1
10
87.156442
20
2.577246
70
0
0
VERTEX
8
Layer 1
10
87.507126
20
2.690625
70
0
0
VERTEX
8
Layer 1
10
87.780027
20
2.627343
70
0
0
VERTEX
8
Layer 1
10
87.973826
20
2.446728
70
0
0
VERTEX
8
Layer 1
10
88.093795
20
2.159325
70
0
0
VERTEX
8
Layer 1
10
88.137296
20
1.703173
70
0
0
VERTEX
8
Layer 1
10
88.067426
20
1.153417
70
0
0
VERTEX
8
Layer 1
10
87.857807
20
0.830419
70
0
0
VERTEX
8
Layer 1
10
87.507123
20
0.717040
70
0
0
VERTEX
8
Layer 1
10
87.068109
20
0.917431
70
0
0
VERTEX
8
Layer 1
10
86.876947
20
1.703173
70
0
0
VERTEX
8
Layer 1
10
86.876953
20
1.703174
70
0
0
SEQEND
8
Layer 1
0
POLYLINE
8
Layer 1
62
7
70
0
10
0.000000
20
0.000000
66
1
0
VERTEX
8
Layer 1
10
87.120849
20
1.703174
70
0
0
VERTEX
8
Layer 1
10
87.231594
20
1.069043
70
0
0
VERTEX
8
Layer 1
10
87.507131
20
0.912158
70
0
0
VERTEX
8
Layer 1
10
87.781349
20
1.070361
70
0
0
VERTEX
8
Layer 1
10
87.893414
20
1.703174
70
0
0
VERTEX
8
Layer 1
10
87.781349
20
2.337305
70
0
0
VERTEX
8
Layer 1
10
87.504493
20
2.494189
70
0
0
VERTEX
8
Layer 1
10
87.243459
20
2.355762
70
0
0
VERTEX
8
Layer 1
10
87.120849
20
1.703174
70
0
0
VERTEX
8
Layer 1
10
87.120849
20
1.703174
70
0
0
SEQEND
8
Layer 1
0
POLYLINE
8
Layer 1
62
7
70
0
10
0.000000
20
0.000000
66
1
0
VERTEX
8
Layer 1
10
88.435251
20
2.350488
70
0
0
VERTEX
8
Layer 1
10
88.542036
20
2.608887
70
0
0
VERTEX
8
Layer 1
10
88.800435
20
2.715673
70
0
0
VERTEX
8
Layer 1
10
89.060151
20
2.608887
70
0
0
VERTEX
8
Layer 1
10
89.166936
20
2.350488
70
0
0
VERTEX
8
Layer 1
10
89.058831
20
2.090771
70
0
0
VERTEX
8
Layer 1
10
88.800434
20
1.983985
70
0
0
VERTEX
8
Layer 1
10
88.542034
20
2.090771
70
0
0
VERTEX
8
Layer 1
10
88.435249
20
2.350488
70
0
0
VERTEX
8
Layer 1
10
88.435251
20
2.350488
70
0
0
SEQEND
8
Layer 1
0
POLYLINE
8
Layer 1
62
7
70
0
10
0.000000
20
0.000000
66
1
0
VERTEX
8
Layer 1
10
88.578951
20
2.350488
70
0
0
VERTEX
8
Layer 1
10
88.643556
20
2.192285
70
0
0
VERTEX
8
Layer 1
10
88.801760
20
2.127686
70
0
0
VERTEX
8
Layer 1
10
88.957326
20
2.192285
70
0
0
VERTEX
8
Layer 1
10
89.023251
20
2.350488
70
0
0
VERTEX
8
Layer 1
10
88.957326
20
2.507373
70
0
0
VERTEX
8
Layer 1
10
88.801760
20
2.573290
70
0
0
VERTEX
8
Layer 1
10
88.643556
20
2.507373
70
0
0
VERTEX
8
Layer 1
10
88.578951
20
2.350488
70
0
0
VERTEX
8
Layer 1
10
88.578951
20
2.350488
70
0
0
SEQEND
8
Layer 1
 0 
ENDSEC
 0 
EOF