999
"DXF R12 Output" (www.mydxf.blogspot.com)
 0 
SECTION
 2 
HEADER
 9 
$ACADVER
 1 
AC1009
 9 
$EXTMIN
 10 
 0 
 20 
 0 
 9 
$EXTMAX
 10 
 8.5 
 20 
 11 
 0 
ENDSEC
 0 
SECTION
 2 
ENTITIES
0
POLYLINE
8
Layer 1
62
96
70
0
10
0.000000
20
0.000000
66
1
0
VERTEX
8
Layer 1
10
13.000000
20
4.500000
70
0
0
VERTEX
8
Layer 1
10
13.000000
20
18.500000
70
0
0
SEQEND
8
Layer 1
0
POLYLINE
8
Layer 1
62
96
70
0
10
0.000000
20
0.000000
66
1
0
VERTEX
8
Layer 1
10
23.000000
20
4.500000
70
0
0
VERTEX
8
Layer 1
10
23.000000
20
18.500000
70
0
0
SEQEND
8
Layer 1
0
POLYLINE
8
Layer 1
62
96
70
0
10
0.000000
20
0.000000
66
1
0
VERTEX
8
Layer 1
10
33.000000
20
4.500000
70
0
0
VERTEX
8
Layer 1
10
33.000000
20
18.500000
70
0
0
SEQEND
8
Layer 1
0
POLYLINE
8
Layer 1
62
96
70
0
10
0.000000
20
0.000000
66
1
0
VERTEX
8
Layer 1
10
43.000000
20
4.500000
70
0
0
VERTEX
8
Layer 1
10
43.000000
20
18.500000
70
0
0
SEQEND
8
Layer 1
0
POLYLINE
8
Layer 1
62
96
70
0
10
0.000000
20
0.000000
66
1
0
VERTEX
8
Layer 1
10
53.000000
20
4.500000
70
0
0
VERTEX
8
Layer 1
10
53.000000
20
18.500000
70
0
0
SEQEND
8
Layer 1
0
POLYLINE
8
Layer 1
62
96
70
0
10
0.000000
20
0.000000
66
1
0
VERTEX
8
Layer 1
10
63.000000
20
4.500000
70
0
0
VERTEX
8
Layer 1
10
63.000000
20
18.500000
70
0
0
SEQEND
8
Layer 1
0
POLYLINE
8
Layer 1
62
96
70
0
10
0.000000
20
0.000000
66
1
0
VERTEX
8
Layer 1
10
73.000000
20
4.500000
70
0
0
VERTEX
8
Layer 1
10
73.000000
20
18.500000
70
0
0
SEQEND
8
Layer 1
0
POLYLINE
8
Layer 1
62
96
70
0
10
0.000000
20
0.000000
66
1
0
VERTEX
8
Layer 1
10
83.000000
20
4.500000
70
0
0
VERTEX
8
Layer 1
10
83.000000
20
18.500000
70
0
0
SEQEND
8
Layer 1
0
POLYLINE
8
Layer 1
62
96
70
0
10
0.000000
20
0.000000
66
1
0
VERTEX
8
Layer 1
10
93.000000
20
4.500000
70
0
0
VERTEX
8
Layer 1
10
93.000000
20
18.500000
70
0
0
SEQEND
8
Layer 1
0
POLYLINE
8
Layer 1
62
96
70
0
10
0.000000
20
0.000000
66
1
0
VERTEX
8
Layer 1
10
103.000000
20
4.500000
70
0
0
VERTEX
8
Layer 1
10
103.000000
20
18.500000
70
0
0
SEQEND
8
Layer 1
0
POLYLINE
8
Layer 1
62
10
70
0
10
0.000000
20
0.000000
66
1
0
VERTEX
8
Layer 1
10
103.000000
20
11.580000
70
0
0
VERTEX
8
Layer 1
10
102.850000
20
11.600000
70
0
0
VERTEX
8
Layer 1
10
102.380000
20
11.640000
70
0
0
VERTEX
8
Layer 1
10
101.620000
20
11.710000
70
0
0
VERTEX
8
Layer 1
10
100.550000
20
11.810000
70
0
0
VERTEX
8
Layer 1
10
99.190000
20
11.930000
70
0
0
VERTEX
8
Layer 1
10
97.550000
20
12.080000
70
0
0
VERTEX
8
Layer 1
10
95.630000
20
12.240000
70
0
0
VERTEX
8
Layer 1
10
93.450000
20
12.430000
70
0
0
VERTEX
8
Layer 1
10
91.020000
20
12.630000
70
0
0
VERTEX
8
Layer 1
10
88.360000
20
12.840000
70
0
0
VERTEX
8
Layer 1
10
85.470000
20
13.060000
70
0
0
VERTEX
8
Layer 1
10
82.390000
20
13.290000
70
0
0
VERTEX
8
Layer 1
10
79.120000
20
13.530000
70
0
0
VERTEX
8
Layer 1
10
75.700000
20
13.760000
70
0
0
VERTEX
8
Layer 1
10
72.130000
20
14.000000
70
0
0
VERTEX
8
Layer 1
10
68.450000
20
14.230000
70
0
0
VERTEX
8
Layer 1
10
64.670000
20
14.450000
70
0
0
VERTEX
8
Layer 1
10
60.820000
20
14.660000
70
0
0
VERTEX
8
Layer 1
10
56.920000
20
14.850000
70
0
0
VERTEX
8
Layer 1
10
53.000000
20
15.030000
70
0
0
VERTEX
8
Layer 1
10
49.080000
20
15.180000
70
0
0
VERTEX
8
Layer 1
10
45.180000
20
15.310000
70
0
0
VERTEX
8
Layer 1
10
41.330000
20
15.410000
70
0
0
VERTEX
8
Layer 1
10
37.550000
20
15.470000
70
0
0
VERTEX
8
Layer 1
10
33.870000
20
15.500000
70
0
0
VERTEX
8
Layer 1
10
30.300000
20
15.490000
70
0
0
VERTEX
8
Layer 1
10
26.880000
20
15.440000
70
0
0
VERTEX
8
Layer 1
10
23.610000
20
15.350000
70
0
0
VERTEX
8
Layer 1
10
20.530000
20
15.210000
70
0
0
VERTEX
8
Layer 1
10
17.640000
20
15.040000
70
0
0
VERTEX
8
Layer 1
10
14.980000
20
14.820000
70
0
0
VERTEX
8
Layer 1
10
12.550000
20
14.570000
70
0
0
VERTEX
8
Layer 1
10
10.370000
20
14.280000
70
0
0
VERTEX
8
Layer 1
10
8.450000
20
13.960000
70
0
0
VERTEX
8
Layer 1
10
6.810000
20
13.610000
70
0
0
VERTEX
8
Layer 1
10
5.450000
20
13.230000
70
0
0
VERTEX
8
Layer 1
10
4.380000
20
12.820000
70
0
0
VERTEX
8
Layer 1
10
3.620000
20
12.400000
70
0
0
VERTEX
8
Layer 1
10
3.150000
20
11.960000
70
0
0
VERTEX
8
Layer 1
10
3.000000
20
11.500000
70
0
0
VERTEX
8
Layer 1
10
3.150000
20
11.040000
70
0
0
VERTEX
8
Layer 1
10
3.620000
20
10.600000
70
0
0
VERTEX
8
Layer 1
10
4.380000
20
10.180000
70
0
0
VERTEX
8
Layer 1
10
5.450000
20
9.770000
70
0
0
VERTEX
8
Layer 1
10
6.810000
20
9.390000
70
0
0
VERTEX
8
Layer 1
10
8.450000
20
9.040000
70
0
0
VERTEX
8
Layer 1
10
10.370000
20
8.720000
70
0
0
VERTEX
8
Layer 1
10
12.550000
20
8.430000
70
0
0
VERTEX
8
Layer 1
10
14.980000
20
8.180000
70
0
0
VERTEX
8
Layer 1
10
17.640000
20
7.960000
70
0
0
VERTEX
8
Layer 1
10
20.530000
20
7.790000
70
0
0
VERTEX
8
Layer 1
10
23.610000
20
7.650000
70
0
0
VERTEX
8
Layer 1
10
26.880000
20
7.560000
70
0
0
VERTEX
8
Layer 1
10
30.300000
20
7.510000
70
0
0
VERTEX
8
Layer 1
10
33.870000
20
7.500000
70
0
0
VERTEX
8
Layer 1
10
37.550000
20
7.530000
70
0
0
VERTEX
8
Layer 1
10
41.330000
20
7.590000
70
0
0
VERTEX
8
Layer 1
10
45.180000
20
7.690000
70
0
0
VERTEX
8
Layer 1
10
49.080000
20
7.820000
70
0
0
VERTEX
8
Layer 1
10
53.000000
20
7.970000
70
0
0
VERTEX
8
Layer 1
10
56.920000
20
8.150000
70
0
0
VERTEX
8
Layer 1
10
60.820000
20
8.340000
70
0
0
VERTEX
8
Layer 1
10
64.670000
20
8.550000
70
0
0
VERTEX
8
Layer 1
10
68.450000
20
8.770000
70
0
0
VERTEX
8
Layer 1
10
72.130000
20
9.000000
70
0
0
VERTEX
8
Layer 1
10
75.700000
20
9.240000
70
0
0
VERTEX
8
Layer 1
10
79.120000
20
9.470000
70
0
0
VERTEX
8
Layer 1
10
82.390000
20
9.710000
70
0
0
VERTEX
8
Layer 1
10
85.470000
20
9.940000
70
0
0
VERTEX
8
Layer 1
10
88.360000
20
10.160000
70
0
0
VERTEX
8
Layer 1
10
91.020000
20
10.370000
70
0
0
VERTEX
8
Layer 1
10
93.450000
20
10.570000
70
0
0
VERTEX
8
Layer 1
10
95.630000
20
10.760000
70
0
0
VERTEX
8
Layer 1
10
97.550000
20
10.920000
70
0
0
VERTEX
8
Layer 1
10
99.190000
20
11.070000
70
0
0
VERTEX
8
Layer 1
10
100.550000
20
11.190000
70
0
0
VERTEX
8
Layer 1
10
101.620000
20
11.290000
70
0
0
VERTEX
8
Layer 1
10
102.380000
20
11.360000
70
0
0
VERTEX
8
Layer 1
10
102.850000
20
11.400000
70
0
0
VERTEX
8
Layer 1
10
103.000000
20
11.420000
70
0
0
SEQEND
8
Layer 1
0
POLYLINE
8
Layer 1
62
170
70
0
10
0.000000
20
0.000000
66
1
0
VERTEX
8
Layer 1
10
3.000000
20
11.500000
70
0
0
VERTEX
8
Layer 1
10
103.000000
20
11.500000
70
0
0
SEQEND
8
Layer 1
0
POLYLINE
8
Layer 1
62
7
70
0
10
0.000000
20
0.000000
66
1
0
VERTEX
8
Layer 1
10
0.000000
20
11.500000
70
0
0
VERTEX
8
Layer 1
10
106.000000
20
11.500000
70
0
0
SEQEND
8
Layer 1
0
POLYLINE
8
Layer 1
62
7
70
0
10
0.000000
20
0.000000
66
1
0
VERTEX
8
Layer 1
10
3.000000
20
4.500000
70
0
0
VERTEX
8
Layer 1
10
3.000000
20
18.500000
70
0
0
SEQEND
8
Layer 1
0
POLYLINE
8
Layer 1
62
7
70
1
10
0.000000
20
0.000000
66
1
0
VERTEX
8
Layer 1
10
1.137109
20
2.500000
70
0
0
VERTEX
8
Layer 1
10
1.137109
20
3.788477
70
0
0
VERTEX
8
Layer 1
10
1.312012
20
3.788477
70
0
0
VERTEX
8
Layer 1
10
1.988770
20
2.776855
70
0
0
VERTEX
8
Layer 1
10
1.988770
20
3.788477
70
0
0
VERTEX
8
Layer 1
10
2.152246
20
3.788477
70
0
0
VERTEX
8
Layer 1
10
2.152246
20
2.500000
70
0
0
VERTEX
8
Layer 1
10
1.977344
20
2.500000
70
0
0
VERTEX
8
Layer 1
10
1.300586
20
3.512500
70
0
0
VERTEX
8
Layer 1
10
1.300586
20
2.500000
70
0
0
VERTEX
8
Layer 1
10
1.137109
20
2.500000
70
0
0
SEQEND
8
Layer 1
0
POLYLINE
8
Layer 1
62
7
70
1
10
0.000000
20
0.000000
66
1
0
VERTEX
8
Layer 1
10
3.027637
20
2.615137
70
0
0
VERTEX
8
Layer 1
10
2.858008
20
2.509668
70
0
0
VERTEX
8
Layer 1
10
2.683984
20
2.478906
70
0
0
VERTEX
8
Layer 1
10
2.447559
20
2.553613
70
0
0
VERTEX
8
Layer 1
10
2.364942
20
2.746093
70
0
0
VERTEX
8
Layer 1
10
2.395704
20
2.870898
70
0
0
VERTEX
8
Layer 1
10
2.477442
20
2.962304
70
0
0
VERTEX
8
Layer 1
10
2.591699
20
3.014159
70
0
0
VERTEX
8
Layer 1
10
2.732324
20
3.037890
70
0
0
VERTEX
8
Layer 1
10
3.014453
20
3.092382
70
0
0
VERTEX
8
Layer 1
10
3.015332
20
3.133691
70
0
0
VERTEX
8
Layer 1
10
2.970508
20
3.269922
70
0
0
VERTEX
8
Layer 1
10
2.790332
20
3.323535
70
0
0
VERTEX
8
Layer 1
10
2.625098
20
3.283984
70
0
0
VERTEX
8
Layer 1
10
2.546875
20
3.145995
70
0
0
VERTEX
8
Layer 1
10
2.392187
20
3.167090
70
0
0
VERTEX
8
Layer 1
10
2.461621
20
3.327051
70
0
0
VERTEX
8
Layer 1
10
2.601368
20
3.421094
70
0
0
VERTEX
8
Layer 1
10
2.813184
20
3.454493
70
0
0
VERTEX
8
Layer 1
10
3.007422
20
3.426368
70
0
0
VERTEX
8
Layer 1
10
3.117285
20
3.355177
70
0
0
VERTEX
8
Layer 1
10
3.166504
20
3.247950
70
0
0
VERTEX
8
Layer 1
10
3.174414
20
3.102052
70
0
0
VERTEX
8
Layer 1
10
3.174414
20
2.891114
70
0
0
VERTEX
8
Layer 1
10
3.184084
20
2.611622
70
0
0
VERTEX
8
Layer 1
10
3.224512
20
2.500000
70
0
0
VERTEX
8
Layer 1
10
3.059277
20
2.500000
70
0
0
VERTEX
8
Layer 1
10
3.027637
20
2.615137
70
0
0
VERTEX
8
Layer 1
10
3.027637
20
2.615137
70
0
0
SEQEND
8
Layer 1
0
POLYLINE
8
Layer 1
62
7
70
0
10
0.000000
20
0.000000
66
1
0
VERTEX
8
Layer 1
10
3.014453
20
2.968457
70
0
0
VERTEX
8
Layer 1
10
2.756055
20
2.908691
70
0
0
VERTEX
8
Layer 1
10
2.618066
20
2.877050
70
0
0
VERTEX
8
Layer 1
10
2.555664
20
2.825195
70
0
0
VERTEX
8
Layer 1
10
2.533691
20
2.750488
70
0
0
VERTEX
8
Layer 1
10
2.581152
20
2.645019
70
0
0
VERTEX
8
Layer 1
10
2.721777
20
2.602831
70
0
0
VERTEX
8
Layer 1
10
2.884375
20
2.642382
70
0
0
VERTEX
8
Layer 1
10
2.988965
20
2.752245
70
0
0
VERTEX
8
Layer 1
10
3.014453
20
2.910449
70
0
0
VERTEX
8
Layer 1
10
3.014453
20
2.968457
70
0
0
SEQEND
8
Layer 1
0
POLYLINE
8
Layer 1
62
7
70
1
10
0.000000
20
0.000000
66
1
0
VERTEX
8
Layer 1
10
3.419629
20
2.500000
70
0
0
VERTEX
8
Layer 1
10
3.419629
20
3.433398
70
0
0
VERTEX
8
Layer 1
10
3.561133
20
3.433398
70
0
0
VERTEX
8
Layer 1
10
3.561133
20
3.302441
70
0
0
VERTEX
8
Layer 1
10
3.678027
20
3.412305
70
0
0
VERTEX
8
Layer 1
10
3.844141
20
3.454493
70
0
0
VERTEX
8
Layer 1
10
4.013770
20
3.411427
70
0
0
VERTEX
8
Layer 1
10
4.107813
20
3.291016
70
0
0
VERTEX
8
Layer 1
10
4.396094
20
3.454493
70
0
0
VERTEX
8
Layer 1
10
4.609668
20
3.377149
70
0
0
VERTEX
8
Layer 1
10
4.684375
20
3.140723
70
0
0
VERTEX
8
Layer 1
10
4.684375
20
2.500000
70
0
0
VERTEX
8
Layer 1
10
4.527051
20
2.500000
70
0
0
VERTEX
8
Layer 1
10
4.527051
20
3.087988
70
0
0
VERTEX
8
Layer 1
10
4.511231
20
3.224219
70
0
0
VERTEX
8
Layer 1
10
4.455860
20
3.291895
70
0
0
VERTEX
8
Layer 1
10
4.360938
20
3.317383
70
0
0
VERTEX
8
Layer 1
10
4.197461
20
3.251465
70
0
0
VERTEX
8
Layer 1
10
4.132422
20
3.042285
70
0
0
VERTEX
8
Layer 1
10
4.132422
20
2.500000
70
0
0
VERTEX
8
Layer 1
10
3.974219
20
2.500000
70
0
0
VERTEX
8
Layer 1
10
3.974219
20
3.106445
70
0
0
VERTEX
8
Layer 1
10
3.935547
20
3.264648
70
0
0
VERTEX
8
Layer 1
10
3.808984
20
3.317382
70
0
0
VERTEX
8
Layer 1
10
3.685058
20
3.282226
70
0
0
VERTEX
8
Layer 1
10
3.603320
20
3.179394
70
0
0
VERTEX
8
Layer 1
10
3.577832
20
2.984277
70
0
0
VERTEX
8
Layer 1
10
3.577832
20
2.500000
70
0
0
VERTEX
8
Layer 1
10
3.419629
20
2.500000
70
0
0
SEQEND
8
Layer 1
0
POLYLINE
8
Layer 1
62
7
70
0
10
0.000000
20
0.000000
66
1
0
VERTEX
8
Layer 1
10
5.558008
20
2.800586
70
0
0
VERTEX
8
Layer 1
10
5.721484
20
2.780371
70
0
0
VERTEX
8
Layer 1
10
5.578222
20
2.558008
70
0
0
VERTEX
8
Layer 1
10
5.311035
20
2.478906
70
0
0
VERTEX
8
Layer 1
10
4.985840
20
2.604589
70
0
0
VERTEX
8
Layer 1
10
4.866308
20
2.958788
70
0
0
VERTEX
8
Layer 1
10
4.987597
20
3.324413
70
0
0
VERTEX
8
Layer 1
10
5.302246
20
3.454492
70
0
0
VERTEX
8
Layer 1
10
5.608105
20
3.327050
70
0
0
VERTEX
8
Layer 1
10
5.726758
20
2.968456
70
0
0
VERTEX
8
Layer 1
10
5.725879
20
2.926269
70
0
0
VERTEX
8
Layer 1
10
5.029785
20
2.926269
70
0
0
VERTEX
8
Layer 1
10
5.116797
20
2.690723
70
0
0
VERTEX
8
Layer 1
10
5.311914
20
2.608985
70
0
0
VERTEX
8
Layer 1
10
5.460449
20
2.654688
70
0
0
VERTEX
8
Layer 1
10
5.558007
20
2.800586
70
0
0
VERTEX
8
Layer 1
10
5.558008
20
2.800586
70
0
0
SEQEND
8
Layer 1
0
POLYLINE
8
Layer 1
62
7
70
0
10
0.000000
20
0.000000
66
1
0
VERTEX
8
Layer 1
10
5.038574
20
3.056348
70
0
0
VERTEX
8
Layer 1
10
5.559766
20
3.056348
70
0
0
VERTEX
8
Layer 1
10
5.500000
20
3.233008
70
0
0
VERTEX
8
Layer 1
10
5.304004
20
3.324414
70
0
0
VERTEX
8
Layer 1
10
5.120312
20
3.251465
70
0
0
VERTEX
8
Layer 1
10
5.038574
20
3.056348
70
0
0
VERTEX
8
Layer 1
10
5.038574
20
3.056348
70
0
0
SEQEND
8
Layer 1
0
POLYLINE
8
Layer 1
62
7
70
0
10
0.000000
20
0.000000
66
1
0
VERTEX
8
Layer 1
10
7.252539
20
3.257617
70
0
0
VERTEX
8
Layer 1
10
6.401758
20
3.257617
70
0
0
VERTEX
8
Layer 1
10
6.401758
20
3.405273
70
0
0
VERTEX
8
Layer 1
10
7.252539
20
3.405273
70
0
0
VERTEX
8
Layer 1
10
7.252539
20
3.257617
70
0
0
SEQEND
8
Layer 1
0
POLYLINE
8
Layer 1
62
7
70
1
10
0.000000
20
0.000000
66
1
0
VERTEX
8
Layer 1
10
7.252539
20
2.866504
70
0
0
VERTEX
8
Layer 1
10
6.401758
20
2.866504
70
0
0
VERTEX
8
Layer 1
10
6.401758
20
3.014160
70
0
0
VERTEX
8
Layer 1
10
7.252539
20
3.014160
70
0
0
VERTEX
8
Layer 1
10
7.252539
20
2.866504
70
0
0
SEQEND
8
Layer 1
0
POLYLINE
8
Layer 1
62
7
70
1
10
0.000000
20
0.000000
66
1
0
VERTEX
8
Layer 1
10
7.989941
20
2.500000
70
0
0
VERTEX
8
Layer 1
10
7.989941
20
3.788477
70
0
0
VERTEX
8
Layer 1
10
8.164844
20
3.788477
70
0
0
VERTEX
8
Layer 1
10
8.841601
20
2.776855
70
0
0
VERTEX
8
Layer 1
10
8.841601
20
3.788477
70
0
0
VERTEX
8
Layer 1
10
9.005078
20
3.788477
70
0
0
VERTEX
8
Layer 1
10
9.005078
20
2.500000
70
0
0
VERTEX
8
Layer 1
10
8.830176
20
2.500000
70
0
0
VERTEX
8
Layer 1
10
8.153418
20
3.512500
70
0
0
VERTEX
8
Layer 1
10
8.153418
20
2.500000
70
0
0
VERTEX
8
Layer 1
10
7.989941
20
2.500000
70
0
0
SEQEND
8
Layer 1
0
POLYLINE
8
Layer 1
62
7
70
1
10
0.000000
20
0.000000
66
1
0
VERTEX
8
Layer 1
10
9.150097
20
2.500000
70
0
0
VERTEX
8
Layer 1
10
9.644921
20
3.788477
70
0
0
VERTEX
8
Layer 1
10
9.828613
20
3.788477
70
0
0
VERTEX
8
Layer 1
10
10.355956
20
2.500000
70
0
0
VERTEX
8
Layer 1
10
10.161718
20
2.500000
70
0
0
VERTEX
8
Layer 1
10
10.011425
20
2.890234
70
0
0
VERTEX
8
Layer 1
10
9.472656
20
2.890234
70
0
0
VERTEX
8
Layer 1
10
9.331152
20
2.500000
70
0
0
VERTEX
8
Layer 1
10
9.150097
20
2.500000
70
0
0
SEQEND
8
Layer 1
0
POLYLINE
8
Layer 1
62
7
70
1
10
0.000000
20
0.000000
66
1
0
VERTEX
8
Layer 1
10
9.521874
20
3.029101
70
0
0
VERTEX
8
Layer 1
10
9.958691
20
3.029101
70
0
0
VERTEX
8
Layer 1
10
9.824218
20
3.385937
70
0
0
VERTEX
8
Layer 1
10
9.732812
20
3.653125
70
0
0
VERTEX
8
Layer 1
10
9.663378
20
3.407031
70
0
0
VERTEX
8
Layer 1
10
9.521874
20
3.029101
70
0
0
SEQEND
8
Layer 1
0
POLYLINE
8
Layer 1
62
7
70
0
10
0.000000
20
0.000000
66
1
0
VERTEX
8
Layer 1
10
11.411523
20
2.951757
70
0
0
VERTEX
8
Layer 1
10
11.582031
20
2.908691
70
0
0
VERTEX
8
Layer 1
10
11.388672
20
2.587891
70
0
0
VERTEX
8
Layer 1
10
11.048535
20
2.478027
70
0
0
VERTEX
8
Layer 1
10
10.709277
20
2.562402
70
0
0
VERTEX
8
Layer 1
10
10.510644
20
2.808496
70
0
0
VERTEX
8
Layer 1
10
10.442974
20
3.153906
70
0
0
VERTEX
8
Layer 1
10
10.519434
20
3.504590
70
0
0
VERTEX
8
Layer 1
10
10.738282
20
3.732227
70
0
0
VERTEX
8
Layer 1
10
11.051173
20
3.810449
70
0
0
VERTEX
8
Layer 1
10
11.376368
20
3.712012
70
0
0
VERTEX
8
Layer 1
10
11.560059
20
3.435156
70
0
0
VERTEX
8
Layer 1
10
11.392188
20
3.395605
70
0
0
VERTEX
8
Layer 1
10
11.262110
20
3.600390
70
0
0
VERTEX
8
Layer 1
10
11.047657
20
3.664551
70
0
0
VERTEX
8
Layer 1
10
10.798927
20
3.593359
70
0
0
VERTEX
8
Layer 1
10
10.659180
20
3.401758
70
0
0
VERTEX
8
Layer 1
10
10.618750
20
3.154785
70
0
0
VERTEX
8
Layer 1
10
10.666210
20
2.867383
70
0
0
VERTEX
8
Layer 1
10
10.815624
20
2.684570
70
0
0
VERTEX
8
Layer 1
10
11.034471
20
2.623926
70
0
0
VERTEX
8
Layer 1
10
11.277050
20
2.706543
70
0
0
VERTEX
8
Layer 1
10
11.411522
20
2.951758
70
0
0
VERTEX
8
Layer 1
10
11.411523
20
2.951757
70
0
0
SEQEND
8
Layer 1
0
POLYLINE
8
Layer 1
62
7
70
1
10
0.000000
20
0.000000
66
1
0
VERTEX
8
Layer 1
10
11.650585
20
2.500000
70
0
0
VERTEX
8
Layer 1
10
12.145410
20
3.788477
70
0
0
VERTEX
8
Layer 1
10
12.329101
20
3.788477
70
0
0
VERTEX
8
Layer 1
10
12.856445
20
2.500000
70
0
0
VERTEX
8
Layer 1
10
12.662206
20
2.500000
70
0
0
VERTEX
8
Layer 1
10
12.511913
20
2.890234
70
0
0
VERTEX
8
Layer 1
10
11.973144
20
2.890234
70
0
0
VERTEX
8
Layer 1
10
11.831640
20
2.500000
70
0
0
VERTEX
8
Layer 1
10
11.650585
20
2.500000
70
0
0
SEQEND
8
Layer 1
0
POLYLINE
8
Layer 1
62
7
70
1
10
0.000000
20
0.000000
66
1
0
VERTEX
8
Layer 1
10
12.022363
20
3.029101
70
0
0
VERTEX
8
Layer 1
10
12.459179
20
3.029101
70
0
0
VERTEX
8
Layer 1
10
12.324706
20
3.385937
70
0
0
VERTEX
8
Layer 1
10
12.233300
20
3.653125
70
0
0
VERTEX
8
Layer 1
10
12.163867
20
3.407031
70
0
0
VERTEX
8
Layer 1
10
12.022363
20
3.029101
70
0
0
SEQEND
8
Layer 1
0
POLYLINE
8
Layer 1
62
7
70
0
10
0.000000
20
0.000000
66
1
0
VERTEX
8
Layer 1
10
13.329296
20
3.135449
70
0
0
VERTEX
8
Layer 1
10
13.375876
20
3.502832
70
0
0
VERTEX
8
Layer 1
10
13.515622
20
3.718164
70
0
0
VERTEX
8
Layer 1
10
13.749411
20
3.793750
70
0
0
VERTEX
8
Layer 1
10
13.931345
20
3.751562
70
0
0
VERTEX
8
Layer 1
10
14.060544
20
3.631152
70
0
0
VERTEX
8
Layer 1
10
14.140524
20
3.439551
70
0
0
VERTEX
8
Layer 1
10
14.169524
20
3.135449
70
0
0
VERTEX
8
Layer 1
10
14.122944
20
2.768945
70
0
0
VERTEX
8
Layer 1
10
13.983198
20
2.553613
70
0
0
VERTEX
8
Layer 1
10
13.749409
20
2.478027
70
0
0
VERTEX
8
Layer 1
10
13.456734
20
2.611621
70
0
0
VERTEX
8
Layer 1
10
13.329292
20
3.135449
70
0
0
VERTEX
8
Layer 1
10
13.329296
20
3.135449
70
0
0
SEQEND
8
Layer 1
0
POLYLINE
8
Layer 1
62
7
70
0
10
0.000000
20
0.000000
66
1
0
VERTEX
8
Layer 1
10
13.491894
20
3.135449
70
0
0
VERTEX
8
Layer 1
10
13.565724
20
2.712695
70
0
0
VERTEX
8
Layer 1
10
13.749415
20
2.608105
70
0
0
VERTEX
8
Layer 1
10
13.932228
20
2.713574
70
0
0
VERTEX
8
Layer 1
10
14.006938
20
3.135449
70
0
0
VERTEX
8
Layer 1
10
13.932228
20
3.558203
70
0
0
VERTEX
8
Layer 1
10
13.747657
20
3.662793
70
0
0
VERTEX
8
Layer 1
10
13.573634
20
3.570508
70
0
0
VERTEX
8
Layer 1
10
13.491894
20
3.135449
70
0
0
VERTEX
8
Layer 1
10
13.491894
20
3.135449
70
0
0
SEQEND
8
Layer 1
0
POLYLINE
8
Layer 1
62
7
70
0
10
0.000000
20
0.000000
66
1
0
VERTEX
8
Layer 1
10
14.330371
20
3.135449
70
0
0
VERTEX
8
Layer 1
10
14.376951
20
3.502832
70
0
0
VERTEX
8
Layer 1
10
14.516697
20
3.718164
70
0
0
VERTEX
8
Layer 1
10
14.750486
20
3.793750
70
0
0
VERTEX
8
Layer 1
10
14.932420
20
3.751562
70
0
0
VERTEX
8
Layer 1
10
15.061619
20
3.631152
70
0
0
VERTEX
8
Layer 1
10
15.141599
20
3.439551
70
0
0
VERTEX
8
Layer 1
10
15.170599
20
3.135449
70
0
0
VERTEX
8
Layer 1
10
15.124019
20
2.768945
70
0
0
VERTEX
8
Layer 1
10
14.984273
20
2.553613
70
0
0
VERTEX
8
Layer 1
10
14.750484
20
2.478027
70
0
0
VERTEX
8
Layer 1
10
14.457808
20
2.611621
70
0
0
VERTEX
8
Layer 1
10
14.330367
20
3.135449
70
0
0
VERTEX
8
Layer 1
10
14.330371
20
3.135449
70
0
0
SEQEND
8
Layer 1
0
POLYLINE
8
Layer 1
62
7
70
0
10
0.000000
20
0.000000
66
1
0
VERTEX
8
Layer 1
10
14.492969
20
3.135449
70
0
0
VERTEX
8
Layer 1
10
14.566799
20
2.712695
70
0
0
VERTEX
8
Layer 1
10
14.750490
20
2.608105
70
0
0
VERTEX
8
Layer 1
10
14.933303
20
2.713574
70
0
0
VERTEX
8
Layer 1
10
15.008013
20
3.135449
70
0
0
VERTEX
8
Layer 1
10
14.933303
20
3.558203
70
0
0
VERTEX
8
Layer 1
10
14.748732
20
3.662793
70
0
0
VERTEX
8
Layer 1
10
14.574709
20
3.570508
70
0
0
VERTEX
8
Layer 1
10
14.492969
20
3.135449
70
0
0
VERTEX
8
Layer 1
10
14.492969
20
3.135449
70
0
0
SEQEND
8
Layer 1
0
POLYLINE
8
Layer 1
62
7
70
0
10
0.000000
20
0.000000
66
1
0
VERTEX
8
Layer 1
10
15.331445
20
3.135449
70
0
0
VERTEX
8
Layer 1
10
15.378025
20
3.502832
70
0
0
VERTEX
8
Layer 1
10
15.517771
20
3.718164
70
0
0
VERTEX
8
Layer 1
10
15.751560
20
3.793750
70
0
0
VERTEX
8
Layer 1
10
15.933494
20
3.751562
70
0
0
VERTEX
8
Layer 1
10
16.062693
20
3.631152
70
0
0
VERTEX
8
Layer 1
10
16.142673
20
3.439551
70
0
0
VERTEX
8
Layer 1
10
16.171673
20
3.135449
70
0
0
VERTEX
8
Layer 1
10
16.125093
20
2.768945
70
0
0
VERTEX
8
Layer 1
10
15.985347
20
2.553613
70
0
0
VERTEX
8
Layer 1
10
15.751558
20
2.478027
70
0
0
VERTEX
8
Layer 1
10
15.458882
20
2.611621
70
0
0
VERTEX
8
Layer 1
10
15.331441
20
3.135449
70
0
0
VERTEX
8
Layer 1
10
15.331445
20
3.135449
70
0
0
SEQEND
8
Layer 1
0
POLYLINE
8
Layer 1
62
7
70
0
10
0.000000
20
0.000000
66
1
0
VERTEX
8
Layer 1
10
15.494042
20
3.135449
70
0
0
VERTEX
8
Layer 1
10
15.567872
20
2.712695
70
0
0
VERTEX
8
Layer 1
10
15.751563
20
2.608105
70
0
0
VERTEX
8
Layer 1
10
15.934375
20
2.713574
70
0
0
VERTEX
8
Layer 1
10
16.009085
20
3.135449
70
0
0
VERTEX
8
Layer 1
10
15.934375
20
3.558203
70
0
0
VERTEX
8
Layer 1
10
15.749805
20
3.662793
70
0
0
VERTEX
8
Layer 1
10
15.575782
20
3.570508
70
0
0
VERTEX
8
Layer 1
10
15.494042
20
3.135449
70
0
0
VERTEX
8
Layer 1
10
15.494042
20
3.135449
70
0
0
SEQEND
8
Layer 1
0
POLYLINE
8
Layer 1
62
7
70
0
10
0.000000
20
0.000000
66
1
0
VERTEX
8
Layer 1
10
16.575977
20
3.198730
70
0
0
VERTEX
8
Layer 1
10
16.430078
20
3.301562
70
0
0
VERTEX
8
Layer 1
10
16.382618
20
3.461523
70
0
0
VERTEX
8
Layer 1
10
16.483692
20
3.697949
70
0
0
VERTEX
8
Layer 1
10
16.752638
20
3.793750
70
0
0
VERTEX
8
Layer 1
10
17.024220
20
3.695312
70
0
0
VERTEX
8
Layer 1
10
17.127052
20
3.457129
70
0
0
VERTEX
8
Layer 1
10
17.079592
20
3.300683
70
0
0
VERTEX
8
Layer 1
10
16.937209
20
3.198730
70
0
0
VERTEX
8
Layer 1
10
17.117385
20
3.073926
70
0
0
VERTEX
8
Layer 1
10
17.179785
20
2.868261
70
0
0
VERTEX
8
Layer 1
10
17.062891
20
2.590527
70
0
0
VERTEX
8
Layer 1
10
16.755273
20
2.478027
70
0
0
VERTEX
8
Layer 1
10
16.447656
20
2.590527
70
0
0
VERTEX
8
Layer 1
10
16.330762
20
2.872656
70
0
0
VERTEX
8
Layer 1
10
16.394042
20
3.082715
70
0
0
VERTEX
8
Layer 1
10
16.575976
20
3.198730
70
0
0
VERTEX
8
Layer 1
10
16.575977
20
3.198730
70
0
0
SEQEND
8
Layer 1
0
POLYLINE
8
Layer 1
62
7
70
0
10
0.000000
20
0.000000
66
1
0
VERTEX
8
Layer 1
10
16.544337
20
3.466796
70
0
0
VERTEX
8
Layer 1
10
16.603227
20
3.317382
70
0
0
VERTEX
8
Layer 1
10
16.756156
20
3.259374
70
0
0
VERTEX
8
Layer 1
10
16.905570
20
3.316503
70
0
0
VERTEX
8
Layer 1
10
16.964460
20
3.458007
70
0
0
VERTEX
8
Layer 1
10
16.903820
20
3.603906
70
0
0
VERTEX
8
Layer 1
10
16.754406
20
3.663671
70
0
0
VERTEX
8
Layer 1
10
16.604113
20
3.605664
70
0
0
VERTEX
8
Layer 1
10
16.544343
20
3.466796
70
0
0
VERTEX
8
Layer 1
10
16.544337
20
3.466796
70
0
0
SEQEND
8
Layer 1
0
POLYLINE
8
Layer 1
62
7
70
0
10
0.000000
20
0.000000
66
1
0
VERTEX
8
Layer 1
10
16.493357
20
2.871777
70
0
0
VERTEX
8
Layer 1
10
16.524997
20
2.740820
70
0
0
VERTEX
8
Layer 1
10
16.620797
20
2.642383
70
0
0
VERTEX
8
Layer 1
10
16.757027
20
2.608106
70
0
0
VERTEX
8
Layer 1
10
16.944234
20
2.681055
70
0
0
VERTEX
8
Layer 1
10
17.018064
20
2.866504
70
0
0
VERTEX
8
Layer 1
10
16.941604
20
3.055469
70
0
0
VERTEX
8
Layer 1
10
16.751760
20
3.130176
70
0
0
VERTEX
8
Layer 1
10
16.566311
20
3.056348
70
0
0
VERTEX
8
Layer 1
10
16.493361
20
2.871778
70
0
0
VERTEX
8
Layer 1
10
16.493357
20
2.871777
70
0
0
SEQEND
8
Layer 1
0
POLYLINE
8
Layer 1
62
7
70
1
10
0.000000
20
0.000000
66
1
0
VERTEX
8
Layer 1
10
17.657031
20
2.500000
70
0
0
VERTEX
8
Layer 1
10
18.151855
20
3.788477
70
0
0
VERTEX
8
Layer 1
10
18.335547
20
3.788477
70
0
0
VERTEX
8
Layer 1
10
18.862891
20
2.500000
70
0
0
VERTEX
8
Layer 1
10
18.668652
20
2.500000
70
0
0
VERTEX
8
Layer 1
10
18.518359
20
2.890234
70
0
0
VERTEX
8
Layer 1
10
17.979590
20
2.890234
70
0
0
VERTEX
8
Layer 1
10
17.838086
20
2.500000
70
0
0
VERTEX
8
Layer 1
10
17.657031
20
2.500000
70
0
0
SEQEND
8
Layer 1
0
POLYLINE
8
Layer 1
62
7
70
0
10
0.000000
20
0.000000
66
1
0
VERTEX
8
Layer 1
10
18.028809
20
3.029101
70
0
0
VERTEX
8
Layer 1
10
18.465625
20
3.029101
70
0
0
VERTEX
8
Layer 1
10
18.331152
20
3.385937
70
0
0
VERTEX
8
Layer 1
10
18.239742
20
3.653125
70
0
0
VERTEX
8
Layer 1
10
18.170312
20
3.407031
70
0
0
VERTEX
8
Layer 1
10
18.028809
20
3.029101
70
0
0
SEQEND
8
Layer 1
0
POLYLINE
8
Layer 1
62
7
70
1
10
0.000000
20
0.000000
66
1
0
VERTEX
8
Layer 1
10
18.979786
20
3.606543
70
0
0
VERTEX
8
Layer 1
10
18.979786
20
3.788477
70
0
0
VERTEX
8
Layer 1
10
19.137989
20
3.788477
70
0
0
VERTEX
8
Layer 1
10
19.137989
20
3.606543
70
0
0
VERTEX
8
Layer 1
10
18.979786
20
3.606543
70
0
0
SEQEND
8
Layer 1
0
POLYLINE
8
Layer 1
62
7
70
1
10
0.000000
20
0.000000
66
1
0
VERTEX
8
Layer 1
10
18.979786
20
2.500000
70
0
0
VERTEX
8
Layer 1
10
18.979786
20
3.433398
70
0
0
VERTEX
8
Layer 1
10
19.137989
20
3.433398
70
0
0
VERTEX
8
Layer 1
10
19.137989
20
2.500000
70
0
0
VERTEX
8
Layer 1
10
18.979786
20
2.500000
70
0
0
SEQEND
8
Layer 1
0
POLYLINE
8
Layer 1
62
7
70
1
10
0.000000
20
0.000000
66
1
0
VERTEX
8
Layer 1
10
19.377051
20
2.500000
70
0
0
VERTEX
8
Layer 1
10
19.377051
20
3.433398
70
0
0
VERTEX
8
Layer 1
10
19.519434
20
3.433398
70
0
0
VERTEX
8
Layer 1
10
19.519434
20
3.291894
70
0
0
VERTEX
8
Layer 1
10
19.619629
20
3.422852
70
0
0
VERTEX
8
Layer 1
10
19.721582
20
3.454492
70
0
0
VERTEX
8
Layer 1
10
19.884180
20
3.403516
70
0
0
VERTEX
8
Layer 1
10
19.829690
20
3.256738
70
0
0
VERTEX
8
Layer 1
10
19.713674
20
3.291015
70
0
0
VERTEX
8
Layer 1
10
19.620514
20
3.259374
70
0
0
VERTEX
8
Layer 1
10
19.561624
20
3.173241
70
0
0
VERTEX
8
Layer 1
10
19.535254
20
2.988671
70
0
0
VERTEX
8
Layer 1
10
19.535254
20
2.500000
70
0
0
VERTEX
8
Layer 1
10
19.377051
20
2.500000
70
0
0
SEQEND
8
Layer 1
0
POLYLINE
8
Layer 1
62
7
70
1
10
0.000000
20
0.000000
66
1
0
VERTEX
8
Layer 1
10
20.016015
20
2.500000
70
0
0
VERTEX
8
Layer 1
10
20.016015
20
3.310351
70
0
0
VERTEX
8
Layer 1
10
19.876269
20
3.310351
70
0
0
VERTEX
8
Layer 1
10
19.876269
20
3.433398
70
0
0
VERTEX
8
Layer 1
10
20.016015
20
3.433398
70
0
0
VERTEX
8
Layer 1
10
20.016015
20
3.532715
70
0
0
VERTEX
8
Layer 1
10
20.032715
20
3.672461
70
0
0
VERTEX
8
Layer 1
10
20.112695
20
3.771777
70
0
0
VERTEX
8
Layer 1
10
20.274413
20
3.810449
70
0
0
VERTEX
8
Layer 1
10
20.422070
20
3.794629
70
0
0
VERTEX
8
Layer 1
10
20.398340
20
3.656641
70
0
0
VERTEX
8
Layer 1
10
20.305180
20
3.665430
70
0
0
VERTEX
8
Layer 1
10
20.203227
20
3.634668
70
0
0
VERTEX
8
Layer 1
10
20.173347
20
3.519531
70
0
0
VERTEX
8
Layer 1
10
20.173347
20
3.433398
70
0
0
VERTEX
8
Layer 1
10
20.355281
20
3.433398
70
0
0
VERTEX
8
Layer 1
10
20.355281
20
3.310351
70
0
0
VERTEX
8
Layer 1
10
20.173339
20
3.310351
70
0
0
VERTEX
8
Layer 1
10
20.173339
20
2.500000
70
0
0
VERTEX
8
Layer 1
10
20.016015
20
2.500000
70
0
0
SEQEND
8
Layer 1
0
POLYLINE
8
Layer 1
62
7
70
0
10
0.000000
20
0.000000
66
1
0
VERTEX
8
Layer 1
10
20.419432
20
2.966699
70
0
0
VERTEX
8
Layer 1
10
20.563573
20
3.350781
70
0
0
VERTEX
8
Layer 1
10
20.857128
20
3.454492
70
0
0
VERTEX
8
Layer 1
10
21.171776
20
3.327930
70
0
0
VERTEX
8
Layer 1
10
21.293944
20
2.979883
70
0
0
VERTEX
8
Layer 1
10
21.239454
20
2.695996
70
0
0
VERTEX
8
Layer 1
10
21.082130
20
2.536035
70
0
0
VERTEX
8
Layer 1
10
20.857130
20
2.478906
70
0
0
VERTEX
8
Layer 1
10
20.539845
20
2.604590
70
0
0
VERTEX
8
Layer 1
10
20.419434
20
2.966699
70
0
0
VERTEX
8
Layer 1
10
20.419432
20
2.966699
70
0
0
SEQEND
8
Layer 1
0
POLYLINE
8
Layer 1
62
7
70
0
10
0.000000
20
0.000000
66
1
0
VERTEX
8
Layer 1
10
20.582030
20
2.966699
70
0
0
VERTEX
8
Layer 1
10
20.660250
20
2.697754
70
0
0
VERTEX
8
Layer 1
10
20.857125
20
2.608985
70
0
0
VERTEX
8
Layer 1
10
21.053121
20
2.698633
70
0
0
VERTEX
8
Layer 1
10
21.131341
20
2.971973
70
0
0
VERTEX
8
Layer 1
10
21.052241
20
3.233887
70
0
0
VERTEX
8
Layer 1
10
20.857124
20
3.323535
70
0
0
VERTEX
8
Layer 1
10
20.660249
20
3.234766
70
0
0
VERTEX
8
Layer 1
10
20.582029
20
2.966699
70
0
0
VERTEX
8
Layer 1
10
20.582030
20
2.966699
70
0
0
SEQEND
8
Layer 1
0
POLYLINE
8
Layer 1
62
7
70
1
10
0.000000
20
0.000000
66
1
0
VERTEX
8
Layer 1
10
21.480274
20
3.606543
70
0
0
VERTEX
8
Layer 1
10
21.480274
20
3.788477
70
0
0
VERTEX
8
Layer 1
10
21.638477
20
3.788477
70
0
0
VERTEX
8
Layer 1
10
21.638477
20
3.606543
70
0
0
VERTEX
8
Layer 1
10
21.480274
20
3.606543
70
0
0
SEQEND
8
Layer 1
0
POLYLINE
8
Layer 1
62
7
70
1
10
0.000000
20
0.000000
66
1
0
VERTEX
8
Layer 1
10
21.480274
20
2.500000
70
0
0
VERTEX
8
Layer 1
10
21.480274
20
3.433398
70
0
0
VERTEX
8
Layer 1
10
21.638477
20
3.433398
70
0
0
VERTEX
8
Layer 1
10
21.638477
20
2.500000
70
0
0
VERTEX
8
Layer 1
10
21.480274
20
2.500000
70
0
0
SEQEND
8
Layer 1
0
POLYLINE
8
Layer 1
62
7
70
1
10
0.000000
20
0.000000
66
1
0
VERTEX
8
Layer 1
10
21.875782
20
2.500000
70
0
0
VERTEX
8
Layer 1
10
21.875782
20
3.788477
70
0
0
VERTEX
8
Layer 1
10
22.033985
20
3.788477
70
0
0
VERTEX
8
Layer 1
10
22.033985
20
2.500000
70
0
0
VERTEX
8
Layer 1
10
21.875782
20
2.500000
70
0
0
SEQEND
8
Layer 1
0
POLYLINE
8
Layer 1
62
7
70
1
10
0.000000
20
0.000000
66
1
0
VERTEX
8
Layer 1
10
22.794238
20
2.500000
70
0
0
VERTEX
8
Layer 1
10
22.794238
20
3.788477
70
0
0
VERTEX
8
Layer 1
10
23.050879
20
3.788477
70
0
0
VERTEX
8
Layer 1
10
23.355859
20
2.876172
70
0
0
VERTEX
8
Layer 1
10
23.417379
20
2.685449
70
0
0
VERTEX
8
Layer 1
10
23.485929
20
2.891992
70
0
0
VERTEX
8
Layer 1
10
23.794426
20
3.788477
70
0
0
VERTEX
8
Layer 1
10
24.023820
20
3.788477
70
0
0
VERTEX
8
Layer 1
10
24.023820
20
2.500000
70
0
0
VERTEX
8
Layer 1
10
23.859473
20
2.500000
70
0
0
VERTEX
8
Layer 1
10
23.859473
20
3.578418
70
0
0
VERTEX
8
Layer 1
10
23.485059
20
2.500000
70
0
0
VERTEX
8
Layer 1
10
23.331250
20
2.500000
70
0
0
VERTEX
8
Layer 1
10
22.958594
20
3.596875
70
0
0
VERTEX
8
Layer 1
10
22.958594
20
2.500000
70
0
0
VERTEX
8
Layer 1
10
22.794238
20
2.500000
70
0
0
SEQEND
8
Layer 1
0
POLYLINE
8
Layer 1
62
7
70
0
10
0.000000
20
0.000000
66
1
0
VERTEX
8
Layer 1
10
25.111034
20
3.257617
70
0
0
VERTEX
8
Layer 1
10
24.260252
20
3.257617
70
0
0
VERTEX
8
Layer 1
10
24.260252
20
3.405273
70
0
0
VERTEX
8
Layer 1
10
25.111034
20
3.405273
70
0
0
VERTEX
8
Layer 1
10
25.111034
20
3.257617
70
0
0
SEQEND
8
Layer 1
0
POLYLINE
8
Layer 1
62
7
70
0
10
0.000000
20
0.000000
66
1
0
VERTEX
8
Layer 1
10
25.111034
20
2.866504
70
0
0
VERTEX
8
Layer 1
10
24.260252
20
2.866504
70
0
0
VERTEX
8
Layer 1
10
24.260252
20
3.014160
70
0
0
VERTEX
8
Layer 1
10
25.111034
20
3.014160
70
0
0
VERTEX
8
Layer 1
10
25.111034
20
2.866504
70
0
0
SEQEND
8
Layer 1
0
POLYLINE
8
Layer 1
62
7
70
0
10
0.000000
20
0.000000
66
1
0
VERTEX
8
Layer 1
10
25.285936
20
3.135449
70
0
0
VERTEX
8
Layer 1
10
25.332516
20
3.502832
70
0
0
VERTEX
8
Layer 1
10
25.472262
20
3.718164
70
0
0
VERTEX
8
Layer 1
10
25.706052
20
3.793750
70
0
0
VERTEX
8
Layer 1
10
25.887985
20
3.751562
70
0
0
VERTEX
8
Layer 1
10
26.017184
20
3.631152
70
0
0
VERTEX
8
Layer 1
10
26.097164
20
3.439551
70
0
0
VERTEX
8
Layer 1
10
26.126164
20
3.135449
70
0
0
VERTEX
8
Layer 1
10
26.079584
20
2.768945
70
0
0
VERTEX
8
Layer 1
10
25.939838
20
2.553613
70
0
0
VERTEX
8
Layer 1
10
25.706049
20
2.478027
70
0
0
VERTEX
8
Layer 1
10
25.413373
20
2.611621
70
0
0
VERTEX
8
Layer 1
10
25.285931
20
3.135449
70
0
0
VERTEX
8
Layer 1
10
25.285936
20
3.135449
70
0
0
SEQEND
8
Layer 1
0
POLYLINE
8
Layer 1
62
7
70
0
10
0.000000
20
0.000000
66
1
0
VERTEX
8
Layer 1
10
25.448534
20
3.135449
70
0
0
VERTEX
8
Layer 1
10
25.522364
20
2.712695
70
0
0
VERTEX
8
Layer 1
10
25.706056
20
2.608105
70
0
0
VERTEX
8
Layer 1
10
25.888868
20
2.713574
70
0
0
VERTEX
8
Layer 1
10
25.963578
20
3.135449
70
0
0
VERTEX
8
Layer 1
10
25.888868
20
3.558203
70
0
0
VERTEX
8
Layer 1
10
25.704298
20
3.662793
70
0
0
VERTEX
8
Layer 1
10
25.530274
20
3.570508
70
0
0
VERTEX
8
Layer 1
10
25.448534
20
3.135449
70
0
0
VERTEX
8
Layer 1
10
25.448534
20
3.135449
70
0
0
SEQEND
8
Layer 1
0
POLYLINE
8
Layer 1
62
7
70
1
10
0.000000
20
0.000000
66
1
0
VERTEX
8
Layer 1
10
26.375780
20
2.500000
70
0
0
VERTEX
8
Layer 1
10
26.375780
20
2.680176
70
0
0
VERTEX
8
Layer 1
10
26.555955
20
2.680176
70
0
0
VERTEX
8
Layer 1
10
26.555955
20
2.500000
70
0
0
VERTEX
8
Layer 1
10
26.375780
20
2.500000
70
0
0
SEQEND
8
Layer 1
0
POLYLINE
8
Layer 1
62
7
70
0
10
0.000000
20
0.000000
66
1
0
VERTEX
8
Layer 1
10
26.787109
20
3.135449
70
0
0
VERTEX
8
Layer 1
10
26.833689
20
3.502832
70
0
0
VERTEX
8
Layer 1
10
26.973435
20
3.718164
70
0
0
VERTEX
8
Layer 1
10
27.207225
20
3.793750
70
0
0
VERTEX
8
Layer 1
10
27.389158
20
3.751562
70
0
0
VERTEX
8
Layer 1
10
27.518357
20
3.631152
70
0
0
VERTEX
8
Layer 1
10
27.598337
20
3.439551
70
0
0
VERTEX
8
Layer 1
10
27.627337
20
3.135449
70
0
0
VERTEX
8
Layer 1
10
27.580757
20
2.768945
70
0
0
VERTEX
8
Layer 1
10
27.441011
20
2.553613
70
0
0
VERTEX
8
Layer 1
10
27.207222
20
2.478027
70
0
0
VERTEX
8
Layer 1
10
26.914546
20
2.611621
70
0
0
VERTEX
8
Layer 1
10
26.787104
20
3.135449
70
0
0
VERTEX
8
Layer 1
10
26.787109
20
3.135449
70
0
0
SEQEND
8
Layer 1
0
POLYLINE
8
Layer 1
62
7
70
0
10
0.000000
20
0.000000
66
1
0
VERTEX
8
Layer 1
10
26.949707
20
3.135449
70
0
0
VERTEX
8
Layer 1
10
27.023537
20
2.712695
70
0
0
VERTEX
8
Layer 1
10
27.207229
20
2.608105
70
0
0
VERTEX
8
Layer 1
10
27.390041
20
2.713574
70
0
0
VERTEX
8
Layer 1
10
27.464751
20
3.135449
70
0
0
VERTEX
8
Layer 1
10
27.390041
20
3.558203
70
0
0
VERTEX
8
Layer 1
10
27.205471
20
3.662793
70
0
0
VERTEX
8
Layer 1
10
27.031447
20
3.570508
70
0
0
VERTEX
8
Layer 1
10
26.949707
20
3.135449
70
0
0
VERTEX
8
Layer 1
10
26.949707
20
3.135449
70
0
0
SEQEND
8
Layer 1
0
POLYLINE
8
Layer 1
62
7
70
0
10
0.000000
20
0.000000
66
1
0
VERTEX
8
Layer 1
10
27.818066
20
3.479102
70
0
0
VERTEX
8
Layer 1
10
27.887496
20
3.713770
70
0
0
VERTEX
8
Layer 1
10
28.088765
20
3.810449
70
0
0
VERTEX
8
Layer 1
10
28.289156
20
3.723438
70
0
0
VERTEX
8
Layer 1
10
28.369136
20
3.469434
70
0
0
VERTEX
8
Layer 1
10
28.288276
20
3.217188
70
0
0
VERTEX
8
Layer 1
10
28.090522
20
3.129297
70
0
0
VERTEX
8
Layer 1
10
27.895405
20
3.216309
70
0
0
VERTEX
8
Layer 1
10
27.818065
20
3.479101
70
0
0
VERTEX
8
Layer 1
10
27.818066
20
3.479102
70
0
0
SEQEND
8
Layer 1
0
POLYLINE
8
Layer 1
62
7
70
0
10
0.000000
20
0.000000
66
1
0
VERTEX
8
Layer 1
10
28.093164
20
3.701465
70
0
0
VERTEX
8
Layer 1
10
27.994724
20
3.650488
70
0
0
VERTEX
8
Layer 1
10
27.956054
20
3.463281
70
0
0
VERTEX
8
Layer 1
10
27.995604
20
3.288379
70
0
0
VERTEX
8
Layer 1
10
28.093164
20
3.238281
70
0
0
VERTEX
8
Layer 1
10
28.191604
20
3.289258
70
0
0
VERTEX
8
Layer 1
10
28.231154
20
3.475586
70
0
0
VERTEX
8
Layer 1
10
28.191604
20
3.650488
70
0
0
VERTEX
8
Layer 1
10
28.093164
20
3.701465
70
0
0
VERTEX
8
Layer 1
10
28.093164
20
3.701465
70
0
0
SEQEND
8
Layer 1
0
POLYLINE
8
Layer 1
62
7
70
1
10
0.000000
20
0.000000
66
1
0
VERTEX
8
Layer 1
10
28.094043
20
2.452539
70
0
0
VERTEX
8
Layer 1
10
28.798925
20
3.810449
70
0
0
VERTEX
8
Layer 1
10
28.927246
20
3.810449
70
0
0
VERTEX
8
Layer 1
10
28.225000
20
2.452539
70
0
0
VERTEX
8
Layer 1
10
28.094043
20
2.452539
70
0
0
SEQEND
8
Layer 1
0
POLYLINE
8
Layer 1
62
7
70
0
10
0.000000
20
0.000000
66
1
0
VERTEX
8
Layer 1
10
28.651269
20
2.802344
70
0
0
VERTEX
8
Layer 1
10
28.720699
20
3.037012
70
0
0
VERTEX
8
Layer 1
10
28.922847
20
3.133692
70
0
0
VERTEX
8
Layer 1
10
29.123238
20
3.046680
70
0
0
VERTEX
8
Layer 1
10
29.203218
20
2.792676
70
0
0
VERTEX
8
Layer 1
10
29.122358
20
2.540430
70
0
0
VERTEX
8
Layer 1
10
28.923725
20
2.452539
70
0
0
VERTEX
8
Layer 1
10
28.728608
20
2.539551
70
0
0
VERTEX
8
Layer 1
10
28.651268
20
2.802344
70
0
0
VERTEX
8
Layer 1
10
28.651269
20
2.802344
70
0
0
SEQEND
8
Layer 1
0
POLYLINE
8
Layer 1
62
7
70
0
10
0.000000
20
0.000000
66
1
0
VERTEX
8
Layer 1
10
28.927246
20
3.024707
70
0
0
VERTEX
8
Layer 1
10
28.827926
20
2.973731
70
0
0
VERTEX
8
Layer 1
10
28.789256
20
2.786524
70
0
0
VERTEX
8
Layer 1
10
28.828806
20
2.612501
70
0
0
VERTEX
8
Layer 1
10
28.926366
20
2.561523
70
0
0
VERTEX
8
Layer 1
10
29.025686
20
2.612501
70
0
0
VERTEX
8
Layer 1
10
29.065236
20
2.798829
70
0
0
VERTEX
8
Layer 1
10
29.025686
20
2.973731
70
0
0
VERTEX
8
Layer 1
10
28.927246
20
3.024707
70
0
0
VERTEX
8
Layer 1
10
28.927246
20
3.024707
70
0
0
SEQEND
8
Layer 1
0
POLYLINE
8
Layer 1
62
7
70
1
10
0.000000
20
0.000000
66
1
0
VERTEX
8
Layer 1
10
29.952929
20
2.500000
70
0
0
VERTEX
8
Layer 1
10
29.952929
20
3.788477
70
0
0
VERTEX
8
Layer 1
10
30.438964
20
3.788477
70
0
0
VERTEX
8
Layer 1
10
30.634961
20
3.776172
70
0
0
VERTEX
8
Layer 1
10
30.794043
20
3.715527
70
0
0
VERTEX
8
Layer 1
10
30.896875
20
3.591602
70
0
0
VERTEX
8
Layer 1
10
30.936425
20
3.415820
70
0
0
VERTEX
8
Layer 1
10
30.831836
20
3.137207
70
0
0
VERTEX
8
Layer 1
10
30.453906
20
3.023828
70
0
0
VERTEX
8
Layer 1
10
30.123437
20
3.023828
70
0
0
VERTEX
8
Layer 1
10
30.123437
20
2.500000
70
0
0
VERTEX
8
Layer 1
10
29.952929
20
2.500000
70
0
0
SEQEND
8
Layer 1
0
POLYLINE
8
Layer 1
62
7
70
0
10
0.000000
20
0.000000
66
1
0
VERTEX
8
Layer 1
10
30.123437
20
3.175879
70
0
0
VERTEX
8
Layer 1
10
30.456543
20
3.175879
70
0
0
VERTEX
8
Layer 1
10
30.691211
20
3.237402
70
0
0
VERTEX
8
Layer 1
10
30.760641
20
3.410546
70
0
0
VERTEX
8
Layer 1
10
30.719331
20
3.548535
70
0
0
VERTEX
8
Layer 1
10
30.612104
20
3.625000
70
0
0
VERTEX
8
Layer 1
10
30.453022
20
3.636425
70
0
0
VERTEX
8
Layer 1
10
30.123432
20
3.636425
70
0
0
VERTEX
8
Layer 1
10
30.123437
20
3.175879
70
0
0
SEQEND
8
Layer 1
0
POLYLINE
8
Layer 1
62
7
70
0
10
0.000000
20
0.000000
66
1
0
VERTEX
8
Layer 1
10
31.965625
20
3.257617
70
0
0
VERTEX
8
Layer 1
10
31.114844
20
3.257617
70
0
0
VERTEX
8
Layer 1
10
31.114844
20
3.405273
70
0
0
VERTEX
8
Layer 1
10
31.965625
20
3.405273
70
0
0
VERTEX
8
Layer 1
10
31.965625
20
3.257617
70
0
0
SEQEND
8
Layer 1
0
POLYLINE
8
Layer 1
62
7
70
0
10
0.000000
20
0.000000
66
1
0
VERTEX
8
Layer 1
10
31.965625
20
2.866504
70
0
0
VERTEX
8
Layer 1
10
31.114844
20
2.866504
70
0
0
VERTEX
8
Layer 1
10
31.114844
20
3.014160
70
0
0
VERTEX
8
Layer 1
10
31.965625
20
3.014160
70
0
0
VERTEX
8
Layer 1
10
31.965625
20
2.866504
70
0
0
SEQEND
8
Layer 1
0
POLYLINE
8
Layer 1
62
7
70
0
10
0.000000
20
0.000000
66
1
0
VERTEX
8
Layer 1
10
32.140526
20
3.135449
70
0
0
VERTEX
8
Layer 1
10
32.187106
20
3.502832
70
0
0
VERTEX
8
Layer 1
10
32.326852
20
3.718164
70
0
0
VERTEX
8
Layer 1
10
32.560641
20
3.793750
70
0
0
VERTEX
8
Layer 1
10
32.742575
20
3.751562
70
0
0
VERTEX
8
Layer 1
10
32.871774
20
3.631152
70
0
0
VERTEX
8
Layer 1
10
32.951754
20
3.439550
70
0
0
VERTEX
8
Layer 1
10
32.980754
20
3.135449
70
0
0
VERTEX
8
Layer 1
10
32.934174
20
2.768945
70
0
0
VERTEX
8
Layer 1
10
32.794428
20
2.553613
70
0
0
VERTEX
8
Layer 1
10
32.560639
20
2.478027
70
0
0
VERTEX
8
Layer 1
10
32.267963
20
2.611621
70
0
0
VERTEX
8
Layer 1
10
32.140522
20
3.135449
70
0
0
VERTEX
8
Layer 1
10
32.140526
20
3.135449
70
0
0
SEQEND
8
Layer 1
0
POLYLINE
8
Layer 1
62
7
70
0
10
0.000000
20
0.000000
66
1
0
VERTEX
8
Layer 1
10
32.303123
20
3.135449
70
0
0
VERTEX
8
Layer 1
10
32.376953
20
2.712695
70
0
0
VERTEX
8
Layer 1
10
32.560644
20
2.608105
70
0
0
VERTEX
8
Layer 1
10
32.743456
20
2.713574
70
0
0
VERTEX
8
Layer 1
10
32.818166
20
3.135449
70
0
0
VERTEX
8
Layer 1
10
32.743456
20
3.558203
70
0
0
VERTEX
8
Layer 1
10
32.558886
20
3.662793
70
0
0
VERTEX
8
Layer 1
10
32.384863
20
3.570507
70
0
0
VERTEX
8
Layer 1
10
32.303123
20
3.135449
70
0
0
VERTEX
8
Layer 1
10
32.303123
20
3.135449
70
0
0
SEQEND
8
Layer 1
0
POLYLINE
8
Layer 1
62
7
70
1
10
0.000000
20
0.000000
66
1
0
VERTEX
8
Layer 1
10
33.230371
20
2.500000
70
0
0
VERTEX
8
Layer 1
10
33.230371
20
2.680176
70
0
0
VERTEX
8
Layer 1
10
33.410547
20
2.680176
70
0
0
VERTEX
8
Layer 1
10
33.410547
20
2.500000
70
0
0
VERTEX
8
Layer 1
10
33.230371
20
2.500000
70
0
0
SEQEND
8
Layer 1
0
POLYLINE
8
Layer 1
62
7
70
0
10
0.000000
20
0.000000
66
1
0
VERTEX
8
Layer 1
10
33.641697
20
3.135449
70
0
0
VERTEX
8
Layer 1
10
33.688277
20
3.502832
70
0
0
VERTEX
8
Layer 1
10
33.828023
20
3.718164
70
0
0
VERTEX
8
Layer 1
10
34.061812
20
3.793750
70
0
0
VERTEX
8
Layer 1
10
34.243746
20
3.751562
70
0
0
VERTEX
8
Layer 1
10
34.372945
20
3.631152
70
0
0
VERTEX
8
Layer 1
10
34.452925
20
3.439551
70
0
0
VERTEX
8
Layer 1
10
34.481925
20
3.135449
70
0
0
VERTEX
8
Layer 1
10
34.435345
20
2.768945
70
0
0
VERTEX
8
Layer 1
10
34.295599
20
2.553613
70
0
0
VERTEX
8
Layer 1
10
34.061810
20
2.478027
70
0
0
VERTEX
8
Layer 1
10
33.769134
20
2.611621
70
0
0
VERTEX
8
Layer 1
10
33.641693
20
3.135449
70
0
0
VERTEX
8
Layer 1
10
33.641697
20
3.135449
70
0
0
SEQEND
8
Layer 1
0
POLYLINE
8
Layer 1
62
7
70
0
10
0.000000
20
0.000000
66
1
0
VERTEX
8
Layer 1
10
33.804295
20
3.135449
70
0
0
VERTEX
8
Layer 1
10
33.878125
20
2.712695
70
0
0
VERTEX
8
Layer 1
10
34.061816
20
2.608105
70
0
0
VERTEX
8
Layer 1
10
34.244629
20
2.713574
70
0
0
VERTEX
8
Layer 1
10
34.319339
20
3.135449
70
0
0
VERTEX
8
Layer 1
10
34.244629
20
3.558203
70
0
0
VERTEX
8
Layer 1
10
34.060058
20
3.662793
70
0
0
VERTEX
8
Layer 1
10
33.886035
20
3.570508
70
0
0
VERTEX
8
Layer 1
10
33.804295
20
3.135449
70
0
0
VERTEX
8
Layer 1
10
33.804295
20
3.135449
70
0
0
SEQEND
8
Layer 1
0
POLYLINE
8
Layer 1
62
7
70
0
10
0.000000
20
0.000000
66
1
0
VERTEX
8
Layer 1
10
34.672655
20
3.479102
70
0
0
VERTEX
8
Layer 1
10
34.742085
20
3.713770
70
0
0
VERTEX
8
Layer 1
10
34.943355
20
3.810449
70
0
0
VERTEX
8
Layer 1
10
35.143745
20
3.723438
70
0
0
VERTEX
8
Layer 1
10
35.223725
20
3.469434
70
0
0
VERTEX
8
Layer 1
10
35.142865
20
3.217188
70
0
0
VERTEX
8
Layer 1
10
34.945111
20
3.129297
70
0
0
VERTEX
8
Layer 1
10
34.749994
20
3.216309
70
0
0
VERTEX
8
Layer 1
10
34.672654
20
3.479101
70
0
0
VERTEX
8
Layer 1
10
34.672655
20
3.479102
70
0
0
SEQEND
8
Layer 1
0
POLYLINE
8
Layer 1
62
7
70
0
10
0.000000
20
0.000000
66
1
0
VERTEX
8
Layer 1
10
34.947753
20
3.701465
70
0
0
VERTEX
8
Layer 1
10
34.849313
20
3.650488
70
0
0
VERTEX
8
Layer 1
10
34.810643
20
3.463281
70
0
0
VERTEX
8
Layer 1
10
34.850193
20
3.288379
70
0
0
VERTEX
8
Layer 1
10
34.947753
20
3.238281
70
0
0
VERTEX
8
Layer 1
10
35.046193
20
3.289258
70
0
0
VERTEX
8
Layer 1
10
35.085743
20
3.475586
70
0
0
VERTEX
8
Layer 1
10
35.046193
20
3.650488
70
0
0
VERTEX
8
Layer 1
10
34.947753
20
3.701465
70
0
0
VERTEX
8
Layer 1
10
34.947753
20
3.701465
70
0
0
SEQEND
8
Layer 1
0
POLYLINE
8
Layer 1
62
7
70
1
10
0.000000
20
0.000000
66
1
0
VERTEX
8
Layer 1
10
34.948632
20
2.452539
70
0
0
VERTEX
8
Layer 1
10
35.653515
20
3.810449
70
0
0
VERTEX
8
Layer 1
10
35.781835
20
3.810449
70
0
0
VERTEX
8
Layer 1
10
35.079589
20
2.452539
70
0
0
VERTEX
8
Layer 1
10
34.948632
20
2.452539
70
0
0
SEQEND
8
Layer 1
0
POLYLINE
8
Layer 1
62
7
70
0
10
0.000000
20
0.000000
66
1
0
VERTEX
8
Layer 1
10
35.505859
20
2.802344
70
0
0
VERTEX
8
Layer 1
10
35.575289
20
3.037012
70
0
0
VERTEX
8
Layer 1
10
35.777438
20
3.133692
70
0
0
VERTEX
8
Layer 1
10
35.977828
20
3.046680
70
0
0
VERTEX
8
Layer 1
10
36.057808
20
2.792676
70
0
0
VERTEX
8
Layer 1
10
35.976948
20
2.540430
70
0
0
VERTEX
8
Layer 1
10
35.778316
20
2.452539
70
0
0
VERTEX
8
Layer 1
10
35.583198
20
2.539551
70
0
0
VERTEX
8
Layer 1
10
35.505858
20
2.802344
70
0
0
VERTEX
8
Layer 1
10
35.505859
20
2.802344
70
0
0
SEQEND
8
Layer 1
0
POLYLINE
8
Layer 1
62
7
70
0
10
0.000000
20
0.000000
66
1
0
VERTEX
8
Layer 1
10
35.781835
20
3.024707
70
0
0
VERTEX
8
Layer 1
10
35.682515
20
2.973731
70
0
0
VERTEX
8
Layer 1
10
35.643845
20
2.786524
70
0
0
VERTEX
8
Layer 1
10
35.683395
20
2.612501
70
0
0
VERTEX
8
Layer 1
10
35.780955
20
2.561523
70
0
0
VERTEX
8
Layer 1
10
35.880275
20
2.612501
70
0
0
VERTEX
8
Layer 1
10
35.919825
20
2.798829
70
0
0
VERTEX
8
Layer 1
10
35.880275
20
2.973731
70
0
0
VERTEX
8
Layer 1
10
35.781835
20
3.024707
70
0
0
VERTEX
8
Layer 1
10
35.781835
20
3.024707
70
0
0
SEQEND
8
Layer 1
0
POLYLINE
8
Layer 1
62
7
70
1
10
0.000000
20
0.000000
66
1
0
VERTEX
8
Layer 1
10
37.102834
20
2.500000
70
0
0
VERTEX
8
Layer 1
10
37.102834
20
3.636426
70
0
0
VERTEX
8
Layer 1
10
36.678323
20
3.636426
70
0
0
VERTEX
8
Layer 1
10
36.678323
20
3.788477
70
0
0
VERTEX
8
Layer 1
10
37.699612
20
3.788477
70
0
0
VERTEX
8
Layer 1
10
37.699612
20
3.636426
70
0
0
VERTEX
8
Layer 1
10
37.273342
20
3.636426
70
0
0
VERTEX
8
Layer 1
10
37.273342
20
2.500000
70
0
0
VERTEX
8
Layer 1
10
37.102834
20
2.500000
70
0
0
SEQEND
8
Layer 1
0
POLYLINE
8
Layer 1
62
7
70
0
10
0.000000
20
0.000000
66
1
0
VERTEX
8
Layer 1
10
38.686622
20
3.257617
70
0
0
VERTEX
8
Layer 1
10
37.835841
20
3.257617
70
0
0
VERTEX
8
Layer 1
10
37.835841
20
3.405273
70
0
0
VERTEX
8
Layer 1
10
38.686622
20
3.405273
70
0
0
VERTEX
8
Layer 1
10
38.686622
20
3.257617
70
0
0
SEQEND
8
Layer 1
0
POLYLINE
8
Layer 1
62
7
70
0
10
0.000000
20
0.000000
66
1
0
VERTEX
8
Layer 1
10
38.686622
20
2.866504
70
0
0
VERTEX
8
Layer 1
10
37.835841
20
2.866504
70
0
0
VERTEX
8
Layer 1
10
37.835841
20
3.014160
70
0
0
VERTEX
8
Layer 1
10
38.686622
20
3.014160
70
0
0
VERTEX
8
Layer 1
10
38.686622
20
2.866504
70
0
0
SEQEND
8
Layer 1
0
POLYLINE
8
Layer 1
62
7
70
0
10
0.000000
20
0.000000
66
1
0
VERTEX
8
Layer 1
10
39.104980
20
3.198730
70
0
0
VERTEX
8
Layer 1
10
38.959081
20
3.301563
70
0
0
VERTEX
8
Layer 1
10
38.911621
20
3.461523
70
0
0
VERTEX
8
Layer 1
10
39.012696
20
3.697949
70
0
0
VERTEX
8
Layer 1
10
39.281641
20
3.793750
70
0
0
VERTEX
8
Layer 1
10
39.553223
20
3.695312
70
0
0
VERTEX
8
Layer 1
10
39.656055
20
3.457129
70
0
0
VERTEX
8
Layer 1
10
39.608595
20
3.300684
70
0
0
VERTEX
8
Layer 1
10
39.466212
20
3.198731
70
0
0
VERTEX
8
Layer 1
10
39.646388
20
3.073926
70
0
0
VERTEX
8
Layer 1
10
39.708788
20
2.868262
70
0
0
VERTEX
8
Layer 1
10
39.591894
20
2.590527
70
0
0
VERTEX
8
Layer 1
10
39.284277
20
2.478027
70
0
0
VERTEX
8
Layer 1
10
38.976659
20
2.590527
70
0
0
VERTEX
8
Layer 1
10
38.859765
20
2.872656
70
0
0
VERTEX
8
Layer 1
10
38.923045
20
3.082715
70
0
0
VERTEX
8
Layer 1
10
39.104979
20
3.198731
70
0
0
VERTEX
8
Layer 1
10
39.104980
20
3.198730
70
0
0
SEQEND
8
Layer 1
0
POLYLINE
8
Layer 1
62
7
70
0
10
0.000000
20
0.000000
66
1
0
VERTEX
8
Layer 1
10
39.073340
20
3.466797
70
0
0
VERTEX
8
Layer 1
10
39.132230
20
3.317383
70
0
0
VERTEX
8
Layer 1
10
39.285159
20
3.259375
70
0
0
VERTEX
8
Layer 1
10
39.434574
20
3.316504
70
0
0
VERTEX
8
Layer 1
10
39.493464
20
3.458008
70
0
0
VERTEX
8
Layer 1
10
39.432824
20
3.603906
70
0
0
VERTEX
8
Layer 1
10
39.283410
20
3.663672
70
0
0
VERTEX
8
Layer 1
10
39.133117
20
3.605664
70
0
0
VERTEX
8
Layer 1
10
39.073347
20
3.466797
70
0
0
VERTEX
8
Layer 1
10
39.073340
20
3.466797
70
0
0
SEQEND
8
Layer 1
0
POLYLINE
8
Layer 1
62
7
70
0
10
0.000000
20
0.000000
66
1
0
VERTEX
8
Layer 1
10
39.022360
20
2.871777
70
0
0
VERTEX
8
Layer 1
10
39.054000
20
2.740820
70
0
0
VERTEX
8
Layer 1
10
39.149800
20
2.642383
70
0
0
VERTEX
8
Layer 1
10
39.286030
20
2.608106
70
0
0
VERTEX
8
Layer 1
10
39.473237
20
2.681055
70
0
0
VERTEX
8
Layer 1
10
39.547067
20
2.866505
70
0
0
VERTEX
8
Layer 1
10
39.470607
20
3.055469
70
0
0
VERTEX
8
Layer 1
10
39.280763
20
3.130176
70
0
0
VERTEX
8
Layer 1
10
39.095314
20
3.056348
70
0
0
VERTEX
8
Layer 1
10
39.022364
20
2.871778
70
0
0
VERTEX
8
Layer 1
10
39.022360
20
2.871777
70
0
0
SEQEND
8
Layer 1
0
POLYLINE
8
Layer 1
62
7
70
1
10
0.000000
20
0.000000
66
1
0
VERTEX
8
Layer 1
10
39.951368
20
2.500000
70
0
0
VERTEX
8
Layer 1
10
39.951368
20
2.680176
70
0
0
VERTEX
8
Layer 1
10
40.131544
20
2.680176
70
0
0
VERTEX
8
Layer 1
10
40.131544
20
2.500000
70
0
0
VERTEX
8
Layer 1
10
39.951368
20
2.500000
70
0
0
SEQEND
8
Layer 1
0
POLYLINE
8
Layer 1
62
7
70
0
10
0.000000
20
0.000000
66
1
0
VERTEX
8
Layer 1
10
40.362694
20
3.135449
70
0
0
VERTEX
8
Layer 1
10
40.409274
20
3.502832
70
0
0
VERTEX
8
Layer 1
10
40.549020
20
3.718164
70
0
0
VERTEX
8
Layer 1
10
40.782809
20
3.793750
70
0
0
VERTEX
8
Layer 1
10
40.964743
20
3.751562
70
0
0
VERTEX
8
Layer 1
10
41.093942
20
3.631152
70
0
0
VERTEX
8
Layer 1
10
41.173922
20
3.439551
70
0
0
VERTEX
8
Layer 1
10
41.202922
20
3.135449
70
0
0
VERTEX
8
Layer 1
10
41.156342
20
2.768945
70
0
0
VERTEX
8
Layer 1
10
41.016596
20
2.553613
70
0
0
VERTEX
8
Layer 1
10
40.782807
20
2.478027
70
0
0
VERTEX
8
Layer 1
10
40.490131
20
2.611621
70
0
0
VERTEX
8
Layer 1
10
40.362690
20
3.135449
70
0
0
VERTEX
8
Layer 1
10
40.362694
20
3.135449
70
0
0
SEQEND
8
Layer 1
0
POLYLINE
8
Layer 1
62
7
70
0
10
0.000000
20
0.000000
66
1
0
VERTEX
8
Layer 1
10
40.525291
20
3.135449
70
0
0
VERTEX
8
Layer 1
10
40.599121
20
2.712695
70
0
0
VERTEX
8
Layer 1
10
40.782812
20
2.608105
70
0
0
VERTEX
8
Layer 1
10
40.965624
20
2.713574
70
0
0
VERTEX
8
Layer 1
10
41.040334
20
3.135449
70
0
0
VERTEX
8
Layer 1
10
40.965624
20
3.558203
70
0
0
VERTEX
8
Layer 1
10
40.781054
20
3.662793
70
0
0
VERTEX
8
Layer 1
10
40.607031
20
3.570508
70
0
0
VERTEX
8
Layer 1
10
40.525291
20
3.135449
70
0
0
VERTEX
8
Layer 1
10
40.525291
20
3.135449
70
0
0
SEQEND
8
Layer 1
0
POLYLINE
8
Layer 1
62
7
70
0
10
0.000000
20
0.000000
66
1
0
VERTEX
8
Layer 1
10
41.393652
20
3.479102
70
0
0
VERTEX
8
Layer 1
10
41.463082
20
3.713770
70
0
0
VERTEX
8
Layer 1
10
41.664351
20
3.810449
70
0
0
VERTEX
8
Layer 1
10
41.864742
20
3.723438
70
0
0
VERTEX
8
Layer 1
10
41.944722
20
3.469434
70
0
0
VERTEX
8
Layer 1
10
41.863862
20
3.217188
70
0
0
VERTEX
8
Layer 1
10
41.666108
20
3.129297
70
0
0
VERTEX
8
Layer 1
10
41.470991
20
3.216309
70
0
0
VERTEX
8
Layer 1
10
41.393651
20
3.479101
70
0
0
VERTEX
8
Layer 1
10
41.393652
20
3.479102
70
0
0
SEQEND
8
Layer 1
0
POLYLINE
8
Layer 1
62
7
70
0
10
0.000000
20
0.000000
66
1
0
VERTEX
8
Layer 1
10
41.668750
20
3.701465
70
0
0
VERTEX
8
Layer 1
10
41.570310
20
3.650488
70
0
0
VERTEX
8
Layer 1
10
41.531640
20
3.463281
70
0
0
VERTEX
8
Layer 1
10
41.571190
20
3.288379
70
0
0
VERTEX
8
Layer 1
10
41.668750
20
3.238281
70
0
0
VERTEX
8
Layer 1
10
41.767190
20
3.289258
70
0
0
VERTEX
8
Layer 1
10
41.806740
20
3.475586
70
0
0
VERTEX
8
Layer 1
10
41.767190
20
3.650488
70
0
0
VERTEX
8
Layer 1
10
41.668750
20
3.701465
70
0
0
VERTEX
8
Layer 1
10
41.668750
20
3.701465
70
0
0
SEQEND
8
Layer 1
0
POLYLINE
8
Layer 1
62
7
70
1
10
0.000000
20
0.000000
66
1
0
VERTEX
8
Layer 1
10
41.669629
20
2.452539
70
0
0
VERTEX
8
Layer 1
10
42.374512
20
3.810449
70
0
0
VERTEX
8
Layer 1
10
42.502832
20
3.810449
70
0
0
VERTEX
8
Layer 1
10
41.800586
20
2.452539
70
0
0
VERTEX
8
Layer 1
10
41.669629
20
2.452539
70
0
0
SEQEND
8
Layer 1
0
POLYLINE
8
Layer 1
62
7
70
0
10
0.000000
20
0.000000
66
1
0
VERTEX
8
Layer 1
10
42.226855
20
2.802344
70
0
0
VERTEX
8
Layer 1
10
42.296285
20
3.037012
70
0
0
VERTEX
8
Layer 1
10
42.498433
20
3.133692
70
0
0
VERTEX
8
Layer 1
10
42.698824
20
3.046680
70
0
0
VERTEX
8
Layer 1
10
42.778804
20
2.792676
70
0
0
VERTEX
8
Layer 1
10
42.697944
20
2.540430
70
0
0
VERTEX
8
Layer 1
10
42.499311
20
2.452539
70
0
0
VERTEX
8
Layer 1
10
42.304194
20
2.539551
70
0
0
VERTEX
8
Layer 1
10
42.226854
20
2.802344
70
0
0
VERTEX
8
Layer 1
10
42.226855
20
2.802344
70
0
0
SEQEND
8
Layer 1
0
POLYLINE
8
Layer 1
62
7
70
0
10
0.000000
20
0.000000
66
1
0
VERTEX
8
Layer 1
10
42.502832
20
3.024707
70
0
0
VERTEX
8
Layer 1
10
42.403512
20
2.973731
70
0
0
VERTEX
8
Layer 1
10
42.364842
20
2.786524
70
0
0
VERTEX
8
Layer 1
10
42.404392
20
2.612501
70
0
0
VERTEX
8
Layer 1
10
42.501952
20
2.561523
70
0
0
VERTEX
8
Layer 1
10
42.601272
20
2.612501
70
0
0
VERTEX
8
Layer 1
10
42.640822
20
2.798829
70
0
0
VERTEX
8
Layer 1
10
42.601272
20
2.973731
70
0
0
VERTEX
8
Layer 1
10
42.502832
20
3.024707
70
0
0
VERTEX
8
Layer 1
10
42.502832
20
3.024707
70
0
0
SEQEND
8
Layer 1
0
POLYLINE
8
Layer 1
62
7
70
0
10
0.000000
20
0.000000
66
1
0
VERTEX
8
Layer 1
10
2.058203
20
0.951758
70
0
0
VERTEX
8
Layer 1
10
2.228711
20
0.908692
70
0
0
VERTEX
8
Layer 1
10
2.035351
20
0.587891
70
0
0
VERTEX
8
Layer 1
10
1.695215
20
0.478027
70
0
0
VERTEX
8
Layer 1
10
1.355957
20
0.562402
70
0
0
VERTEX
8
Layer 1
10
1.157324
20
0.808496
70
0
0
VERTEX
8
Layer 1
10
1.089648
20
1.153906
70
0
0
VERTEX
8
Layer 1
10
1.166113
20
1.504590
70
0
0
VERTEX
8
Layer 1
10
1.384961
20
1.732227
70
0
0
VERTEX
8
Layer 1
10
1.697852
20
1.810450
70
0
0
VERTEX
8
Layer 1
10
2.023047
20
1.712013
70
0
0
VERTEX
8
Layer 1
10
2.206738
20
1.435157
70
0
0
VERTEX
8
Layer 1
10
2.038867
20
1.395606
70
0
0
VERTEX
8
Layer 1
10
1.908789
20
1.600391
70
0
0
VERTEX
8
Layer 1
10
1.694336
20
1.664551
70
0
0
VERTEX
8
Layer 1
10
1.445606
20
1.593359
70
0
0
VERTEX
8
Layer 1
10
1.305859
20
1.401757
70
0
0
VERTEX
8
Layer 1
10
1.265429
20
1.154784
70
0
0
VERTEX
8
Layer 1
10
1.312890
20
0.867382
70
0
0
VERTEX
8
Layer 1
10
1.462305
20
0.684570
70
0
0
VERTEX
8
Layer 1
10
1.681152
20
0.623926
70
0
0
VERTEX
8
Layer 1
10
1.923730
20
0.706543
70
0
0
VERTEX
8
Layer 1
10
2.058203
20
0.951757
70
0
0
VERTEX
8
Layer 1
10
2.058203
20
0.951758
70
0
0
SEQEND
8
Layer 1
0
POLYLINE
8
Layer 1
62
7
70
1
10
0.000000
20
0.000000
66
1
0
VERTEX
8
Layer 1
10
2.418555
20
0.500000
70
0
0
VERTEX
8
Layer 1
10
2.418555
20
1.788476
70
0
0
VERTEX
8
Layer 1
10
2.576758
20
1.788476
70
0
0
VERTEX
8
Layer 1
10
2.576758
20
1.326172
70
0
0
VERTEX
8
Layer 1
10
2.856250
20
1.454492
70
0
0
VERTEX
8
Layer 1
10
3.036426
20
1.413183
70
0
0
VERTEX
8
Layer 1
10
3.145410
20
1.300683
70
0
0
VERTEX
8
Layer 1
10
3.178808
20
1.091503
70
0
0
VERTEX
8
Layer 1
10
3.178808
20
0.500000
70
0
0
VERTEX
8
Layer 1
10
3.020605
20
0.500000
70
0
0
VERTEX
8
Layer 1
10
3.020605
20
1.091504
70
0
0
VERTEX
8
Layer 1
10
2.968750
20
1.263769
70
0
0
VERTEX
8
Layer 1
10
2.823731
20
1.318262
70
0
0
VERTEX
8
Layer 1
10
2.691016
20
1.281348
70
0
0
VERTEX
8
Layer 1
10
2.603125
20
1.182910
70
0
0
VERTEX
8
Layer 1
10
2.576758
20
1.010644
70
0
0
VERTEX
8
Layer 1
10
2.576758
20
0.500000
70
0
0
VERTEX
8
Layer 1
10
2.418555
20
0.500000
70
0
0
SEQEND
8
Layer 1
0
POLYLINE
8
Layer 1
62
7
70
1
10
0.000000
20
0.000000
66
1
0
VERTEX
8
Layer 1
10
3.360742
20
0.966699
70
0
0
VERTEX
8
Layer 1
10
3.504883
20
1.350781
70
0
0
VERTEX
8
Layer 1
10
3.798437
20
1.454492
70
0
0
VERTEX
8
Layer 1
10
4.113086
20
1.327930
70
0
0
VERTEX
8
Layer 1
10
4.235254
20
0.979883
70
0
0
VERTEX
8
Layer 1
10
4.180762
20
0.695996
70
0
0
VERTEX
8
Layer 1
10
4.023438
20
0.536035
70
0
0
VERTEX
8
Layer 1
10
3.798438
20
0.478906
70
0
0
VERTEX
8
Layer 1
10
3.481153
20
0.604590
70
0
0
VERTEX
8
Layer 1
10
3.360742
20
0.966699
70
0
0
VERTEX
8
Layer 1
10
3.360742
20
0.966699
70
0
0
SEQEND
8
Layer 1
0
POLYLINE
8
Layer 1
62
7
70
0
10
0.000000
20
0.000000
66
1
0
VERTEX
8
Layer 1
10
3.523340
20
0.966699
70
0
0
VERTEX
8
Layer 1
10
3.601563
20
0.697754
70
0
0
VERTEX
8
Layer 1
10
3.798438
20
0.608985
70
0
0
VERTEX
8
Layer 1
10
3.994434
20
0.698633
70
0
0
VERTEX
8
Layer 1
10
4.072657
20
0.971973
70
0
0
VERTEX
8
Layer 1
10
3.993555
20
1.233887
70
0
0
VERTEX
8
Layer 1
10
3.798438
20
1.323535
70
0
0
VERTEX
8
Layer 1
10
3.601563
20
1.234765
70
0
0
VERTEX
8
Layer 1
10
3.523340
20
0.966698
70
0
0
VERTEX
8
Layer 1
10
3.523340
20
0.966699
70
0
0
SEQEND
8
Layer 1
0
POLYLINE
8
Layer 1
62
7
70
1
10
0.000000
20
0.000000
66
1
0
VERTEX
8
Layer 1
10
4.418945
20
0.500000
70
0
0
VERTEX
8
Layer 1
10
4.418945
20
1.433398
70
0
0
VERTEX
8
Layer 1
10
4.561328
20
1.433398
70
0
0
VERTEX
8
Layer 1
10
4.561328
20
1.291895
70
0
0
VERTEX
8
Layer 1
10
4.661523
20
1.422852
70
0
0
VERTEX
8
Layer 1
10
4.763476
20
1.454493
70
0
0
VERTEX
8
Layer 1
10
4.926074
20
1.403516
70
0
0
VERTEX
8
Layer 1
10
4.871582
20
1.256738
70
0
0
VERTEX
8
Layer 1
10
4.755566
20
1.291015
70
0
0
VERTEX
8
Layer 1
10
4.662402
20
1.259374
70
0
0
VERTEX
8
Layer 1
10
4.603515
20
1.173241
70
0
0
VERTEX
8
Layer 1
10
4.577148
20
0.988671
70
0
0
VERTEX
8
Layer 1
10
4.577148
20
0.500000
70
0
0
VERTEX
8
Layer 1
10
4.418945
20
0.500000
70
0
0
SEQEND
8
Layer 1
0
POLYLINE
8
Layer 1
62
7
70
1
10
0.000000
20
0.000000
66
1
0
VERTEX
8
Layer 1
10
5.625683
20
0.500000
70
0
0
VERTEX
8
Layer 1
10
5.625683
20
0.617773
70
0
0
VERTEX
8
Layer 1
10
5.364648
20
0.478906
70
0
0
VERTEX
8
Layer 1
10
5.158984
20
0.540429
70
0
0
VERTEX
8
Layer 1
10
5.013965
20
0.711816
70
0
0
VERTEX
8
Layer 1
10
4.962988
20
0.965820
70
0
0
VERTEX
8
Layer 1
10
5.009570
20
1.218945
70
0
0
VERTEX
8
Layer 1
10
5.149316
20
1.393847
70
0
0
VERTEX
8
Layer 1
10
5.357616
20
1.454492
70
0
0
VERTEX
8
Layer 1
10
5.507910
20
1.418457
70
0
0
VERTEX
8
Layer 1
10
5.615136
20
1.326172
70
0
0
VERTEX
8
Layer 1
10
5.615136
20
1.788476
70
0
0
VERTEX
8
Layer 1
10
5.772461
20
1.788476
70
0
0
VERTEX
8
Layer 1
10
5.772461
20
0.500000
70
0
0
VERTEX
8
Layer 1
10
5.625683
20
0.500000
70
0
0
SEQEND
8
Layer 1
0
POLYLINE
8
Layer 1
62
7
70
0
10
0.000000
20
0.000000
66
1
0
VERTEX
8
Layer 1
10
5.125586
20
0.965820
70
0
0
VERTEX
8
Layer 1
10
5.201172
20
0.697754
70
0
0
VERTEX
8
Layer 1
10
5.379590
20
0.608985
70
0
0
VERTEX
8
Layer 1
10
5.555371
20
0.693360
70
0
0
VERTEX
8
Layer 1
10
5.628320
20
0.952637
70
0
0
VERTEX
8
Layer 1
10
5.554492
20
1.233887
70
0
0
VERTEX
8
Layer 1
10
5.372558
20
1.323535
70
0
0
VERTEX
8
Layer 1
10
5.195898
20
1.237402
70
0
0
VERTEX
8
Layer 1
10
5.125586
20
0.965820
70
0
0
VERTEX
8
Layer 1
10
5.125586
20
0.965820
70
0
0
SEQEND
8
Layer 1
0
POLYLINE
8
Layer 1
62
7
70
0
10
0.000000
20
0.000000
66
1
0
VERTEX
8
Layer 1
10
7.353613
20
1.257617
70
0
0
VERTEX
8
Layer 1
10
6.502832
20
1.257617
70
0
0
VERTEX
8
Layer 1
10
6.502832
20
1.405273
70
0
0
VERTEX
8
Layer 1
10
7.353613
20
1.405273
70
0
0
VERTEX
8
Layer 1
10
7.353613
20
1.257617
70
0
0
SEQEND
8
Layer 1
0
POLYLINE
8
Layer 1
62
7
70
1
10
0.000000
20
0.000000
66
1
0
VERTEX
8
Layer 1
10
7.353613
20
0.866504
70
0
0
VERTEX
8
Layer 1
10
6.502832
20
0.866504
70
0
0
VERTEX
8
Layer 1
10
6.502832
20
1.014160
70
0
0
VERTEX
8
Layer 1
10
7.353613
20
1.014160
70
0
0
VERTEX
8
Layer 1
10
7.353613
20
0.866504
70
0
0
SEQEND
8
Layer 1
0
POLYLINE
8
Layer 1
62
7
70
1
10
0.000000
20
0.000000
66
1
0
VERTEX
8
Layer 1
10
8.624512
20
0.500000
70
0
0
VERTEX
8
Layer 1
10
8.466308
20
0.500000
70
0
0
VERTEX
8
Layer 1
10
8.466308
20
1.508105
70
0
0
VERTEX
8
Layer 1
10
8.316015
20
1.399121
70
0
0
VERTEX
8
Layer 1
10
8.149902
20
1.317383
70
0
0
VERTEX
8
Layer 1
10
8.149902
20
1.470312
70
0
0
VERTEX
8
Layer 1
10
8.381933
20
1.621484
70
0
0
VERTEX
8
Layer 1
10
8.522558
20
1.793750
70
0
0
VERTEX
8
Layer 1
10
8.624512
20
1.793750
70
0
0
VERTEX
8
Layer 1
10
8.624512
20
0.500000
70
0
0
SEQEND
8
Layer 1
0
POLYLINE
8
Layer 1
62
7
70
1
10
0.000000
20
0.000000
66
1
0
VERTEX
8
Layer 1
10
9.029687
20
1.135449
70
0
0
VERTEX
8
Layer 1
10
9.076269
20
1.502832
70
0
0
VERTEX
8
Layer 1
10
9.216016
20
1.718164
70
0
0
VERTEX
8
Layer 1
10
9.449805
20
1.793750
70
0
0
VERTEX
8
Layer 1
10
9.631738
20
1.751562
70
0
0
VERTEX
8
Layer 1
10
9.760937
20
1.631152
70
0
0
VERTEX
8
Layer 1
10
9.840917
20
1.439550
70
0
0
VERTEX
8
Layer 1
10
9.869921
20
1.135449
70
0
0
VERTEX
8
Layer 1
10
9.823339
20
0.768945
70
0
0
VERTEX
8
Layer 1
10
9.683593
20
0.553613
70
0
0
VERTEX
8
Layer 1
10
9.449804
20
0.478027
70
0
0
VERTEX
8
Layer 1
10
9.157129
20
0.611621
70
0
0
VERTEX
8
Layer 1
10
9.029687
20
1.135449
70
0
0
VERTEX
8
Layer 1
10
9.029687
20
1.135449
70
0
0
SEQEND
8
Layer 1
0
POLYLINE
8
Layer 1
62
7
70
0
10
0.000000
20
0.000000
66
1
0
VERTEX
8
Layer 1
10
9.192285
20
1.135449
70
0
0
VERTEX
8
Layer 1
10
9.266113
20
0.712695
70
0
0
VERTEX
8
Layer 1
10
9.449805
20
0.608106
70
0
0
VERTEX
8
Layer 1
10
9.632617
20
0.713574
70
0
0
VERTEX
8
Layer 1
10
9.707324
20
1.135449
70
0
0
VERTEX
8
Layer 1
10
9.632617
20
1.558203
70
0
0
VERTEX
8
Layer 1
10
9.448047
20
1.662793
70
0
0
VERTEX
8
Layer 1
10
9.274023
20
1.570508
70
0
0
VERTEX
8
Layer 1
10
9.192285
20
1.135449
70
0
0
VERTEX
8
Layer 1
10
9.192285
20
1.135449
70
0
0
SEQEND
8
Layer 1
0
POLYLINE
8
Layer 1
62
7
70
0
10
0.000000
20
0.000000
66
1
0
VERTEX
8
Layer 1
10
10.030762
20
1.135449
70
0
0
VERTEX
8
Layer 1
10
10.077342
20
1.502832
70
0
0
VERTEX
8
Layer 1
10
10.217088
20
1.718164
70
0
0
VERTEX
8
Layer 1
10
10.450877
20
1.793750
70
0
0
VERTEX
8
Layer 1
10
10.632810
20
1.751562
70
0
0
VERTEX
8
Layer 1
10
10.762010
20
1.631152
70
0
0
VERTEX
8
Layer 1
10
10.841990
20
1.439550
70
0
0
VERTEX
8
Layer 1
10
10.870990
20
1.135449
70
0
0
VERTEX
8
Layer 1
10
10.824410
20
0.768945
70
0
0
VERTEX
8
Layer 1
10
10.684664
20
0.553613
70
0
0
VERTEX
8
Layer 1
10
10.450875
20
0.478027
70
0
0
VERTEX
8
Layer 1
10
10.158199
20
0.611621
70
0
0
VERTEX
8
Layer 1
10
10.030758
20
1.135449
70
0
0
VERTEX
8
Layer 1
10
10.030762
20
1.135449
70
0
0
SEQEND
8
Layer 1
0
POLYLINE
8
Layer 1
62
7
70
0
10
0.000000
20
0.000000
66
1
0
VERTEX
8
Layer 1
10
10.193359
20
1.135449
70
0
0
VERTEX
8
Layer 1
10
10.267189
20
0.712695
70
0
0
VERTEX
8
Layer 1
10
10.450881
20
0.608106
70
0
0
VERTEX
8
Layer 1
10
10.633693
20
0.713574
70
0
0
VERTEX
8
Layer 1
10
10.708403
20
1.135449
70
0
0
VERTEX
8
Layer 1
10
10.633693
20
1.558203
70
0
0
VERTEX
8
Layer 1
10
10.449123
20
1.662793
70
0
0
VERTEX
8
Layer 1
10
10.275100
20
1.570508
70
0
0
VERTEX
8
Layer 1
10
10.193360
20
1.135449
70
0
0
VERTEX
8
Layer 1
10
10.193359
20
1.135449
70
0
0
SEQEND
8
Layer 1
0
POLYLINE
8
Layer 1
62
7
70
1
10
0.000000
20
0.000000
66
1
0
VERTEX
8
Layer 1
10
11.075781
20
0.500000
70
0
0
VERTEX
8
Layer 1
10
11.075781
20
1.433398
70
0
0
VERTEX
8
Layer 1
10
11.217285
20
1.433398
70
0
0
VERTEX
8
Layer 1
10
11.217285
20
1.302441
70
0
0
VERTEX
8
Layer 1
10
11.334179
20
1.412305
70
0
0
VERTEX
8
Layer 1
10
11.500293
20
1.454492
70
0
0
VERTEX
8
Layer 1
10
11.669921
20
1.411426
70
0
0
VERTEX
8
Layer 1
10
11.763961
20
1.291016
70
0
0
VERTEX
8
Layer 1
10
12.052243
20
1.454492
70
0
0
VERTEX
8
Layer 1
10
12.265817
20
1.377148
70
0
0
VERTEX
8
Layer 1
10
12.340527
20
1.140722
70
0
0
VERTEX
8
Layer 1
10
12.340527
20
0.500000
70
0
0
VERTEX
8
Layer 1
10
12.183203
20
0.500000
70
0
0
VERTEX
8
Layer 1
10
12.183203
20
1.087988
70
0
0
VERTEX
8
Layer 1
10
12.167383
20
1.224219
70
0
0
VERTEX
8
Layer 1
10
12.112013
20
1.291895
70
0
0
VERTEX
8
Layer 1
10
12.017093
20
1.317383
70
0
0
VERTEX
8
Layer 1
10
11.853617
20
1.251465
70
0
0
VERTEX
8
Layer 1
10
11.788577
20
1.042285
70
0
0
VERTEX
8
Layer 1
10
11.788577
20
0.500000
70
0
0
VERTEX
8
Layer 1
10
11.630371
20
0.500000
70
0
0
VERTEX
8
Layer 1
10
11.630371
20
1.106445
70
0
0
VERTEX
8
Layer 1
10
11.591701
20
1.264648
70
0
0
VERTEX
8
Layer 1
10
11.465138
20
1.317382
70
0
0
VERTEX
8
Layer 1
10
11.341213
20
1.282226
70
0
0
VERTEX
8
Layer 1
10
11.259473
20
1.179394
70
0
0
VERTEX
8
Layer 1
10
11.233983
20
0.984277
70
0
0
VERTEX
8
Layer 1
10
11.233983
20
0.500000
70
0
0
VERTEX
8
Layer 1
10
11.075781
20
0.500000
70
0
0
SEQEND
8
Layer 1
0
POLYLINE
8
Layer 1
62
7
70
1
10
0.000000
20
0.000000
66
1
0
VERTEX
8
Layer 1
10
12.575195
20
0.500000
70
0
0
VERTEX
8
Layer 1
10
12.575195
20
1.433398
70
0
0
VERTEX
8
Layer 1
10
12.716699
20
1.433398
70
0
0
VERTEX
8
Layer 1
10
12.716699
20
1.302441
70
0
0
VERTEX
8
Layer 1
10
12.833594
20
1.412305
70
0
0
VERTEX
8
Layer 1
10
12.999707
20
1.454492
70
0
0
VERTEX
8
Layer 1
10
13.169336
20
1.411426
70
0
0
VERTEX
8
Layer 1
10
13.263376
20
1.291016
70
0
0
VERTEX
8
Layer 1
10
13.551657
20
1.454492
70
0
0
VERTEX
8
Layer 1
10
13.765231
20
1.377148
70
0
0
VERTEX
8
Layer 1
10
13.839941
20
1.140722
70
0
0
VERTEX
8
Layer 1
10
13.839941
20
0.500000
70
0
0
VERTEX
8
Layer 1
10
13.682617
20
0.500000
70
0
0
VERTEX
8
Layer 1
10
13.682617
20
1.087988
70
0
0
VERTEX
8
Layer 1
10
13.666797
20
1.224219
70
0
0
VERTEX
8
Layer 1
10
13.611427
20
1.291895
70
0
0
VERTEX
8
Layer 1
10
13.516507
20
1.317383
70
0
0
VERTEX
8
Layer 1
10
13.353030
20
1.251465
70
0
0
VERTEX
8
Layer 1
10
13.287990
20
1.042285
70
0
0
VERTEX
8
Layer 1
10
13.287990
20
0.500000
70
0
0
VERTEX
8
Layer 1
10
13.129785
20
0.500000
70
0
0
VERTEX
8
Layer 1
10
13.129785
20
1.106445
70
0
0
VERTEX
8
Layer 1
10
13.091115
20
1.264648
70
0
0
VERTEX
8
Layer 1
10
12.964553
20
1.317382
70
0
0
VERTEX
8
Layer 1
10
12.840627
20
1.282226
70
0
0
VERTEX
8
Layer 1
10
12.758887
20
1.179394
70
0
0
VERTEX
8
Layer 1
10
12.733397
20
0.984277
70
0
0
VERTEX
8
Layer 1
10
12.733397
20
0.500000
70
0
0
VERTEX
8
Layer 1
10
12.575195
20
0.500000
70
0
0
SEQEND
8
Layer 1
0
POLYLINE
8
Layer 1
62
7
70
1
10
0.000000
20
0.000000
66
1
0
VERTEX
8
Layer 1
10
14.597559
20
0.500000
70
0
0
VERTEX
8
Layer 1
10
14.597559
20
1.788476
70
0
0
VERTEX
8
Layer 1
10
15.168848
20
1.788476
70
0
0
VERTEX
8
Layer 1
10
15.430762
20
1.753320
70
0
0
VERTEX
8
Layer 1
10
15.574023
20
1.631152
70
0
0
VERTEX
8
Layer 1
10
15.627633
20
1.436914
70
0
0
VERTEX
8
Layer 1
10
15.538863
20
1.205762
70
0
0
VERTEX
8
Layer 1
10
15.264644
20
1.086231
70
0
0
VERTEX
8
Layer 1
10
15.367476
20
1.022071
70
0
0
VERTEX
8
Layer 1
10
15.508980
20
0.850684
70
0
0
VERTEX
8
Layer 1
10
15.733105
20
0.500000
70
0
0
VERTEX
8
Layer 1
10
15.518652
20
0.500000
70
0
0
VERTEX
8
Layer 1
10
15.348145
20
0.768066
70
0
0
VERTEX
8
Layer 1
10
15.225098
20
0.945606
70
0
0
VERTEX
8
Layer 1
10
15.138088
20
1.031738
70
0
0
VERTEX
8
Layer 1
10
15.060748
20
1.066015
70
0
0
VERTEX
8
Layer 1
10
14.965828
20
1.072165
70
0
0
VERTEX
8
Layer 1
10
14.768066
20
1.072165
70
0
0
VERTEX
8
Layer 1
10
14.768066
20
0.500000
70
0
0
VERTEX
8
Layer 1
10
14.597559
20
0.500000
70
0
0
SEQEND
8
Layer 1
0
POLYLINE
8
Layer 1
62
7
70
0
10
0.000000
20
0.000000
66
1
0
VERTEX
8
Layer 1
10
14.768066
20
1.219824
70
0
0
VERTEX
8
Layer 1
10
15.134570
20
1.219824
70
0
0
VERTEX
8
Layer 1
10
15.317383
20
1.243554
70
0
0
VERTEX
8
Layer 1
10
15.417578
20
1.320898
70
0
0
VERTEX
8
Layer 1
10
15.451858
20
1.436914
70
0
0
VERTEX
8
Layer 1
10
15.385058
20
1.587207
70
0
0
VERTEX
8
Layer 1
10
15.175878
20
1.646094
70
0
0
VERTEX
8
Layer 1
10
14.768065
20
1.646094
70
0
0
VERTEX
8
Layer 1
10
14.768066
20
1.219824
70
0
0
SEQEND
8
Layer 1
0
POLYLINE
8
Layer 1
62
7
70
0
10
0.000000
20
0.000000
66
1
0
VERTEX
8
Layer 1
10
16.483691
20
0.615137
70
0
0
VERTEX
8
Layer 1
10
16.314062
20
0.509668
70
0
0
VERTEX
8
Layer 1
10
16.140039
20
0.478906
70
0
0
VERTEX
8
Layer 1
10
15.903613
20
0.553613
70
0
0
VERTEX
8
Layer 1
10
15.820993
20
0.746093
70
0
0
VERTEX
8
Layer 1
10
15.851753
20
0.870898
70
0
0
VERTEX
8
Layer 1
10
15.933493
20
0.962304
70
0
0
VERTEX
8
Layer 1
10
16.047751
20
1.014159
70
0
0
VERTEX
8
Layer 1
10
16.188376
20
1.037890
70
0
0
VERTEX
8
Layer 1
10
16.470504
20
1.092382
70
0
0
VERTEX
8
Layer 1
10
16.471383
20
1.133691
70
0
0
VERTEX
8
Layer 1
10
16.426563
20
1.269922
70
0
0
VERTEX
8
Layer 1
10
16.246387
20
1.323535
70
0
0
VERTEX
8
Layer 1
10
16.081153
20
1.283984
70
0
0
VERTEX
8
Layer 1
10
16.002933
20
1.145995
70
0
0
VERTEX
8
Layer 1
10
15.848246
20
1.167089
70
0
0
VERTEX
8
Layer 1
10
15.917676
20
1.327050
70
0
0
VERTEX
8
Layer 1
10
16.057422
20
1.421093
70
0
0
VERTEX
8
Layer 1
10
16.269239
20
1.454491
70
0
0
VERTEX
8
Layer 1
10
16.463477
20
1.426366
70
0
0
VERTEX
8
Layer 1
10
16.573340
20
1.355175
70
0
0
VERTEX
8
Layer 1
10
16.622560
20
1.247949
70
0
0
VERTEX
8
Layer 1
10
16.630460
20
1.102050
70
0
0
VERTEX
8
Layer 1
10
16.630460
20
0.891113
70
0
0
VERTEX
8
Layer 1
10
16.640160
20
0.611621
70
0
0
VERTEX
8
Layer 1
10
16.680566
20
0.500000
70
0
0
VERTEX
8
Layer 1
10
16.515332
20
0.500000
70
0
0
VERTEX
8
Layer 1
10
16.483692
20
0.615137
70
0
0
VERTEX
8
Layer 1
10
16.483691
20
0.615137
70
0
0
SEQEND
8
Layer 1
0
POLYLINE
8
Layer 1
62
7
70
0
10
0.000000
20
0.000000
66
1
0
VERTEX
8
Layer 1
10
16.470507
20
0.968457
70
0
0
VERTEX
8
Layer 1
10
16.212109
20
0.908691
70
0
0
VERTEX
8
Layer 1
10
16.074121
20
0.877050
70
0
0
VERTEX
8
Layer 1
10
16.011721
20
0.825194
70
0
0
VERTEX
8
Layer 1
10
15.989751
20
0.750487
70
0
0
VERTEX
8
Layer 1
10
16.037211
20
0.645018
70
0
0
VERTEX
8
Layer 1
10
16.177836
20
0.602830
70
0
0
VERTEX
8
Layer 1
10
16.340433
20
0.642381
70
0
0
VERTEX
8
Layer 1
10
16.445023
20
0.752244
70
0
0
VERTEX
8
Layer 1
10
16.470513
20
0.910448
70
0
0
VERTEX
8
Layer 1
10
16.470507
20
0.968457
70
0
0
SEQEND
8
Layer 1
0
POLYLINE
8
Layer 1
62
7
70
1
10
0.000000
20
0.000000
66
1
0
VERTEX
8
Layer 1
10
17.481249
20
0.500000
70
0
0
VERTEX
8
Layer 1
10
17.481249
20
0.617773
70
0
0
VERTEX
8
Layer 1
10
17.220214
20
0.478906
70
0
0
VERTEX
8
Layer 1
10
17.014550
20
0.540429
70
0
0
VERTEX
8
Layer 1
10
16.869530
20
0.711816
70
0
0
VERTEX
8
Layer 1
10
16.818550
20
0.965820
70
0
0
VERTEX
8
Layer 1
10
16.865130
20
1.218945
70
0
0
VERTEX
8
Layer 1
10
17.004876
20
1.393847
70
0
0
VERTEX
8
Layer 1
10
17.213177
20
1.454492
70
0
0
VERTEX
8
Layer 1
10
17.363470
20
1.418457
70
0
0
VERTEX
8
Layer 1
10
17.470696
20
1.326172
70
0
0
VERTEX
8
Layer 1
10
17.470696
20
1.788476
70
0
0
VERTEX
8
Layer 1
10
17.628021
20
1.788476
70
0
0
VERTEX
8
Layer 1
10
17.628021
20
0.500000
70
0
0
VERTEX
8
Layer 1
10
17.481249
20
0.500000
70
0
0
SEQEND
8
Layer 1
0
POLYLINE
8
Layer 1
62
7
70
0
10
0.000000
20
0.000000
66
1
0
VERTEX
8
Layer 1
10
16.981152
20
0.965820
70
0
0
VERTEX
8
Layer 1
10
17.056742
20
0.697754
70
0
0
VERTEX
8
Layer 1
10
17.235159
20
0.608985
70
0
0
VERTEX
8
Layer 1
10
17.410941
20
0.693360
70
0
0
VERTEX
8
Layer 1
10
17.483891
20
0.952637
70
0
0
VERTEX
8
Layer 1
10
17.410061
20
1.233887
70
0
0
VERTEX
8
Layer 1
10
17.228127
20
1.323535
70
0
0
VERTEX
8
Layer 1
10
17.051467
20
1.237402
70
0
0
VERTEX
8
Layer 1
10
16.981157
20
0.965820
70
0
0
VERTEX
8
Layer 1
10
16.981152
20
0.965820
70
0
0
SEQEND
8
Layer 1
0
POLYLINE
8
Layer 1
62
7
70
1
10
0.000000
20
0.000000
66
1
0
VERTEX
8
Layer 1
10
17.877636
20
1.606543
70
0
0
VERTEX
8
Layer 1
10
17.877636
20
1.788476
70
0
0
VERTEX
8
Layer 1
10
18.035839
20
1.788476
70
0
0
VERTEX
8
Layer 1
10
18.035839
20
1.606543
70
0
0
VERTEX
8
Layer 1
10
17.877636
20
1.606543
70
0
0
SEQEND
8
Layer 1
0
POLYLINE
8
Layer 1
62
7
70
1
10
0.000000
20
0.000000
66
1
0
VERTEX
8
Layer 1
10
17.877636
20
0.500000
70
0
0
VERTEX
8
Layer 1
10
17.877636
20
1.433398
70
0
0
VERTEX
8
Layer 1
10
18.035839
20
1.433398
70
0
0
VERTEX
8
Layer 1
10
18.035839
20
0.500000
70
0
0
VERTEX
8
Layer 1
10
17.877636
20
0.500000
70
0
0
SEQEND
8
Layer 1
0
POLYLINE
8
Layer 1
62
7
70
1
10
0.000000
20
0.000000
66
1
0
VERTEX
8
Layer 1
10
18.888378
20
0.500000
70
0
0
VERTEX
8
Layer 1
10
18.888378
20
0.637109
70
0
0
VERTEX
8
Layer 1
10
18.592186
20
0.478906
70
0
0
VERTEX
8
Layer 1
10
18.437499
20
0.510547
70
0
0
VERTEX
8
Layer 1
10
18.331151
20
0.589649
70
0
0
VERTEX
8
Layer 1
10
18.282811
20
0.707423
70
0
0
VERTEX
8
Layer 1
10
18.273111
20
0.855079
70
0
0
VERTEX
8
Layer 1
10
18.273111
20
1.433398
70
0
0
VERTEX
8
Layer 1
10
18.431315
20
1.433398
70
0
0
VERTEX
8
Layer 1
10
18.431315
20
0.915723
70
0
0
VERTEX
8
Layer 1
10
18.441015
20
0.748731
70
0
0
VERTEX
8
Layer 1
10
18.504295
20
0.650293
70
0
0
VERTEX
8
Layer 1
10
18.623826
20
0.615137
70
0
0
VERTEX
8
Layer 1
10
18.757420
20
0.651172
70
0
0
VERTEX
8
Layer 1
10
18.845310
20
0.750488
70
0
0
VERTEX
8
Layer 1
10
18.871680
20
0.933300
70
0
0
VERTEX
8
Layer 1
10
18.871680
20
1.433398
70
0
0
VERTEX
8
Layer 1
10
19.029883
20
1.433398
70
0
0
VERTEX
8
Layer 1
10
19.029883
20
0.500000
70
0
0
VERTEX
8
Layer 1
10
18.888378
20
0.500000
70
0
0
SEQEND
8
Layer 1
0
POLYLINE
8
Layer 1
62
7
70
0
10
0.000000
20
0.000000
66
1
0
VERTEX
8
Layer 1
10
19.214454
20
0.778613
70
0
0
VERTEX
8
Layer 1
10
19.370899
20
0.803222
70
0
0
VERTEX
8
Layer 1
10
19.443849
20
0.659082
70
0
0
VERTEX
8
Layer 1
10
19.612599
20
0.608984
70
0
0
VERTEX
8
Layer 1
10
19.774318
20
0.652929
70
0
0
VERTEX
8
Layer 1
10
19.827048
20
0.757518
70
0
0
VERTEX
8
Layer 1
10
19.780468
20
0.841893
70
0
0
VERTEX
8
Layer 1
10
19.618749
20
0.895506
70
0
0
VERTEX
8
Layer 1
10
19.377050
20
0.971092
70
0
0
VERTEX
8
Layer 1
10
19.275097
20
1.059862
70
0
0
VERTEX
8
Layer 1
10
19.240817
20
1.185546
70
0
0
VERTEX
8
Layer 1
10
19.268937
20
1.300683
70
0
0
VERTEX
8
Layer 1
10
19.347157
20
1.389452
70
0
0
VERTEX
8
Layer 1
10
19.447353
20
1.435155
70
0
0
VERTEX
8
Layer 1
10
19.584462
20
1.454491
70
0
0
VERTEX
8
Layer 1
10
19.776942
20
1.422850
70
0
0
VERTEX
8
Layer 1
10
19.899989
20
1.336717
70
0
0
VERTEX
8
Layer 1
10
19.954479
20
1.192576
70
0
0
VERTEX
8
Layer 1
10
19.799791
20
1.171482
70
0
0
VERTEX
8
Layer 1
10
19.738271
20
1.283982
70
0
0
VERTEX
8
Layer 1
10
19.595888
20
1.324412
70
0
0
VERTEX
8
Layer 1
10
19.440321
20
1.288377
70
0
0
VERTEX
8
Layer 1
10
19.393741
20
1.204002
70
0
0
VERTEX
8
Layer 1
10
19.413081
20
1.148631
70
0
0
VERTEX
8
Layer 1
10
19.473731
20
1.106443
70
0
0
VERTEX
8
Layer 1
10
19.613477
20
1.066013
70
0
0
VERTEX
8
Layer 1
10
19.847266
20
0.992185
70
0
0
VERTEX
8
Layer 1
10
19.951856
20
0.909568
70
0
0
VERTEX
8
Layer 1
10
19.989646
20
0.774217
70
0
0
VERTEX
8
Layer 1
10
19.943066
20
0.624803
70
0
0
VERTEX
8
Layer 1
10
19.810351
20
0.516697
70
0
0
VERTEX
8
Layer 1
10
19.613476
20
0.478904
70
0
0
VERTEX
8
Layer 1
10
19.335742
20
0.554490
70
0
0
VERTEX
8
Layer 1
10
19.214453
20
0.778611
70
0
0
VERTEX
8
Layer 1
10
19.214454
20
0.778613
70
0
0
SEQEND
8
Layer 1
0
POLYLINE
8
Layer 1
62
7
70
0
10
0.000000
20
0.000000
66
1
0
VERTEX
8
Layer 1
10
21.510156
20
1.257617
70
0
0
VERTEX
8
Layer 1
10
20.659375
20
1.257617
70
0
0
VERTEX
8
Layer 1
10
20.659375
20
1.405273
70
0
0
VERTEX
8
Layer 1
10
21.510156
20
1.405273
70
0
0
VERTEX
8
Layer 1
10
21.510156
20
1.257617
70
0
0
SEQEND
8
Layer 1
0
POLYLINE
8
Layer 1
62
7
70
0
10
0.000000
20
0.000000
66
1
0
VERTEX
8
Layer 1
10
21.510156
20
0.866504
70
0
0
VERTEX
8
Layer 1
10
20.659375
20
0.866504
70
0
0
VERTEX
8
Layer 1
10
20.659375
20
1.014160
70
0
0
VERTEX
8
Layer 1
10
21.510156
20
1.014160
70
0
0
VERTEX
8
Layer 1
10
21.510156
20
0.866504
70
0
0
SEQEND
8
Layer 1
0
POLYLINE
8
Layer 1
62
7
70
0
10
0.000000
20
0.000000
66
1
0
VERTEX
8
Layer 1
10
22.185156
20
1.135449
70
0
0
VERTEX
8
Layer 1
10
22.231736
20
1.502832
70
0
0
VERTEX
8
Layer 1
10
22.371482
20
1.718164
70
0
0
VERTEX
8
Layer 1
10
22.605271
20
1.793750
70
0
0
VERTEX
8
Layer 1
10
22.787205
20
1.751562
70
0
0
VERTEX
8
Layer 1
10
22.916404
20
1.631152
70
0
0
VERTEX
8
Layer 1
10
22.996384
20
1.439550
70
0
0
VERTEX
8
Layer 1
10
23.025384
20
1.135449
70
0
0
VERTEX
8
Layer 1
10
22.978804
20
0.768945
70
0
0
VERTEX
8
Layer 1
10
22.839058
20
0.553613
70
0
0
VERTEX
8
Layer 1
10
22.605269
20
0.478027
70
0
0
VERTEX
8
Layer 1
10
22.312593
20
0.611621
70
0
0
VERTEX
8
Layer 1
10
22.185152
20
1.135449
70
0
0
VERTEX
8
Layer 1
10
22.185156
20
1.135449
70
0
0
SEQEND
8
Layer 1
0
POLYLINE
8
Layer 1
62
7
70
0
10
0.000000
20
0.000000
66
1
0
VERTEX
8
Layer 1
10
22.347754
20
1.135449
70
0
0
VERTEX
8
Layer 1
10
22.421584
20
0.712695
70
0
0
VERTEX
8
Layer 1
10
22.605275
20
0.608105
70
0
0
VERTEX
8
Layer 1
10
22.788088
20
0.713574
70
0
0
VERTEX
8
Layer 1
10
22.862798
20
1.135449
70
0
0
VERTEX
8
Layer 1
10
22.788088
20
1.558203
70
0
0
VERTEX
8
Layer 1
10
22.603517
20
1.662793
70
0
0
VERTEX
8
Layer 1
10
22.429494
20
1.570508
70
0
0
VERTEX
8
Layer 1
10
22.347754
20
1.135449
70
0
0
VERTEX
8
Layer 1
10
22.347754
20
1.135449
70
0
0
SEQEND
8
Layer 1
0
POLYLINE
8
Layer 1
62
7
70
1
10
0.000000
20
0.000000
66
1
0
VERTEX
8
Layer 1
10
23.230175
20
0.500000
70
0
0
VERTEX
8
Layer 1
10
23.230175
20
1.433398
70
0
0
VERTEX
8
Layer 1
10
23.371679
20
1.433398
70
0
0
VERTEX
8
Layer 1
10
23.371679
20
1.302441
70
0
0
VERTEX
8
Layer 1
10
23.488573
20
1.412305
70
0
0
VERTEX
8
Layer 1
10
23.654687
20
1.454492
70
0
0
VERTEX
8
Layer 1
10
23.824316
20
1.411426
70
0
0
VERTEX
8
Layer 1
10
23.918356
20
1.291016
70
0
0
VERTEX
8
Layer 1
10
24.206637
20
1.454492
70
0
0
VERTEX
8
Layer 1
10
24.420211
20
1.377148
70
0
0
VERTEX
8
Layer 1
10
24.494921
20
1.140722
70
0
0
VERTEX
8
Layer 1
10
24.494921
20
0.500000
70
0
0
VERTEX
8
Layer 1
10
24.337597
20
0.500000
70
0
0
VERTEX
8
Layer 1
10
24.337597
20
1.087988
70
0
0
VERTEX
8
Layer 1
10
24.321777
20
1.224219
70
0
0
VERTEX
8
Layer 1
10
24.266407
20
1.291895
70
0
0
VERTEX
8
Layer 1
10
24.171487
20
1.317383
70
0
0
VERTEX
8
Layer 1
10
24.008010
20
1.251465
70
0
0
VERTEX
8
Layer 1
10
23.942970
20
1.042285
70
0
0
VERTEX
8
Layer 1
10
23.942970
20
0.500000
70
0
0
VERTEX
8
Layer 1
10
23.784765
20
0.500000
70
0
0
VERTEX
8
Layer 1
10
23.784765
20
1.106445
70
0
0
VERTEX
8
Layer 1
10
23.746095
20
1.264648
70
0
0
VERTEX
8
Layer 1
10
23.619532
20
1.317382
70
0
0
VERTEX
8
Layer 1
10
23.495607
20
1.282226
70
0
0
VERTEX
8
Layer 1
10
23.413867
20
1.179394
70
0
0
VERTEX
8
Layer 1
10
23.388377
20
0.984277
70
0
0
VERTEX
8
Layer 1
10
23.388377
20
0.500000
70
0
0
VERTEX
8
Layer 1
10
23.230175
20
0.500000
70
0
0
SEQEND
8
Layer 1
0
POLYLINE
8
Layer 1
62
7
70
1
10
0.000000
20
0.000000
66
1
0
VERTEX
8
Layer 1
10
24.729589
20
0.500000
70
0
0
VERTEX
8
Layer 1
10
24.729589
20
1.433398
70
0
0
VERTEX
8
Layer 1
10
24.871093
20
1.433398
70
0
0
VERTEX
8
Layer 1
10
24.871093
20
1.302441
70
0
0
VERTEX
8
Layer 1
10
24.987988
20
1.412305
70
0
0
VERTEX
8
Layer 1
10
25.154101
20
1.454492
70
0
0
VERTEX
8
Layer 1
10
25.323730
20
1.411426
70
0
0
VERTEX
8
Layer 1
10
25.417770
20
1.291016
70
0
0
VERTEX
8
Layer 1
10
25.706051
20
1.454492
70
0
0
VERTEX
8
Layer 1
10
25.919625
20
1.377148
70
0
0
VERTEX
8
Layer 1
10
25.994335
20
1.140722
70
0
0
VERTEX
8
Layer 1
10
25.994335
20
0.500000
70
0
0
VERTEX
8
Layer 1
10
25.837011
20
0.500000
70
0
0
VERTEX
8
Layer 1
10
25.837011
20
1.087988
70
0
0
VERTEX
8
Layer 1
10
25.821191
20
1.224219
70
0
0
VERTEX
8
Layer 1
10
25.765821
20
1.291895
70
0
0
VERTEX
8
Layer 1
10
25.670901
20
1.317383
70
0
0
VERTEX
8
Layer 1
10
25.507424
20
1.251465
70
0
0
VERTEX
8
Layer 1
10
25.442384
20
1.042285
70
0
0
VERTEX
8
Layer 1
10
25.442384
20
0.500000
70
0
0
VERTEX
8
Layer 1
10
25.284179
20
0.500000
70
0
0
VERTEX
8
Layer 1
10
25.284179
20
1.106445
70
0
0
VERTEX
8
Layer 1
10
25.245509
20
1.264648
70
0
0
VERTEX
8
Layer 1
10
25.118947
20
1.317382
70
0
0
VERTEX
8
Layer 1
10
24.995021
20
1.282226
70
0
0
VERTEX
8
Layer 1
10
24.913281
20
1.179394
70
0
0
VERTEX
8
Layer 1
10
24.887791
20
0.984277
70
0
0
VERTEX
8
Layer 1
10
24.887791
20
0.500000
70
0
0
VERTEX
8
Layer 1
10
24.729589
20
0.500000
70
0
0
SEQEND
8
Layer 1
0
POLYLINE
8
Layer 1
62
7
70
1
10
0.000000
20
0.000000
66
1
0
VERTEX
8
Layer 1
10
27.044628
20
0.500000
70
0
0
VERTEX
8
Layer 1
10
27.044628
20
1.636426
70
0
0
VERTEX
8
Layer 1
10
26.620116
20
1.636426
70
0
0
VERTEX
8
Layer 1
10
26.620116
20
1.788476
70
0
0
VERTEX
8
Layer 1
10
27.641405
20
1.788476
70
0
0
VERTEX
8
Layer 1
10
27.641405
20
1.636426
70
0
0
VERTEX
8
Layer 1
10
27.215136
20
1.636426
70
0
0
VERTEX
8
Layer 1
10
27.215136
20
0.500000
70
0
0
VERTEX
8
Layer 1
10
27.044628
20
0.500000
70
0
0
SEQEND
8
Layer 1
0
POLYLINE
8
Layer 1
62
7
70
1
10
0.000000
20
0.000000
66
1
0
VERTEX
8
Layer 1
10
27.796093
20
0.500000
70
0
0
VERTEX
8
Layer 1
10
27.796093
20
1.788476
70
0
0
VERTEX
8
Layer 1
10
27.954296
20
1.788476
70
0
0
VERTEX
8
Layer 1
10
27.954296
20
1.326172
70
0
0
VERTEX
8
Layer 1
10
28.233788
20
1.454492
70
0
0
VERTEX
8
Layer 1
10
28.413964
20
1.413183
70
0
0
VERTEX
8
Layer 1
10
28.522948
20
1.300683
70
0
0
VERTEX
8
Layer 1
10
28.556348
20
1.091503
70
0
0
VERTEX
8
Layer 1
10
28.556348
20
0.500000
70
0
0
VERTEX
8
Layer 1
10
28.398144
20
0.500000
70
0
0
VERTEX
8
Layer 1
10
28.398144
20
1.091504
70
0
0
VERTEX
8
Layer 1
10
28.346284
20
1.263769
70
0
0
VERTEX
8
Layer 1
10
28.201265
20
1.318262
70
0
0
VERTEX
8
Layer 1
10
28.068550
20
1.281348
70
0
0
VERTEX
8
Layer 1
10
27.980660
20
1.182910
70
0
0
VERTEX
8
Layer 1
10
27.954290
20
1.010644
70
0
0
VERTEX
8
Layer 1
10
27.954290
20
0.500000
70
0
0
VERTEX
8
Layer 1
10
27.796093
20
0.500000
70
0
0
SEQEND
8
Layer 1
0
POLYLINE
8
Layer 1
62
7
70
1
10
0.000000
20
0.000000
66
1
0
VERTEX
8
Layer 1
10
28.798046
20
1.606543
70
0
0
VERTEX
8
Layer 1
10
28.798046
20
1.788476
70
0
0
VERTEX
8
Layer 1
10
28.956249
20
1.788476
70
0
0
VERTEX
8
Layer 1
10
28.956249
20
1.606543
70
0
0
VERTEX
8
Layer 1
10
28.798046
20
1.606543
70
0
0
SEQEND
8
Layer 1
0
POLYLINE
8
Layer 1
62
7
70
1
10
0.000000
20
0.000000
66
1
0
VERTEX
8
Layer 1
10
28.798046
20
0.500000
70
0
0
VERTEX
8
Layer 1
10
28.798046
20
1.433398
70
0
0
VERTEX
8
Layer 1
10
28.956249
20
1.433398
70
0
0
VERTEX
8
Layer 1
10
28.956249
20
0.500000
70
0
0
VERTEX
8
Layer 1
10
28.798046
20
0.500000
70
0
0
SEQEND
8
Layer 1
0
POLYLINE
8
Layer 1
62
7
70
0
10
0.000000
20
0.000000
66
1
0
VERTEX
8
Layer 1
10
29.806151
20
0.841894
70
0
0
VERTEX
8
Layer 1
10
29.961718
20
0.821680
70
0
0
VERTEX
8
Layer 1
10
29.830761
20
0.569433
70
0
0
VERTEX
8
Layer 1
10
29.573241
20
0.478906
70
0
0
VERTEX
8
Layer 1
10
29.264745
20
0.603711
70
0
0
VERTEX
8
Layer 1
10
29.148729
20
0.963184
70
0
0
VERTEX
8
Layer 1
10
29.198829
20
1.227735
70
0
0
VERTEX
8
Layer 1
10
29.350880
20
1.397363
70
0
0
VERTEX
8
Layer 1
10
29.574122
20
1.454492
70
0
0
VERTEX
8
Layer 1
10
29.822852
20
1.377148
70
0
0
VERTEX
8
Layer 1
10
29.946778
20
1.159180
70
0
0
VERTEX
8
Layer 1
10
29.792970
20
1.135449
70
0
0
VERTEX
8
Layer 1
10
29.714750
20
1.276953
70
0
0
VERTEX
8
Layer 1
10
29.580277
20
1.324414
70
0
0
VERTEX
8
Layer 1
10
29.386039
20
1.238281
70
0
0
VERTEX
8
Layer 1
10
29.311329
20
0.967578
70
0
0
VERTEX
8
Layer 1
10
29.383399
20
0.694238
70
0
0
VERTEX
8
Layer 1
10
29.571485
20
0.608984
70
0
0
VERTEX
8
Layer 1
10
29.727052
20
0.666113
70
0
0
VERTEX
8
Layer 1
10
29.806152
20
0.841894
70
0
0
VERTEX
8
Layer 1
10
29.806151
20
0.841894
70
0
0
SEQEND
8
Layer 1
0
POLYLINE
8
Layer 1
62
7
70
1
10
0.000000
20
0.000000
66
1
0
VERTEX
8
Layer 1
10
30.097948
20
0.500000
70
0
0
VERTEX
8
Layer 1
10
30.097948
20
1.788476
70
0
0
VERTEX
8
Layer 1
10
30.256151
20
1.788476
70
0
0
VERTEX
8
Layer 1
10
30.256151
20
1.053711
70
0
0
VERTEX
8
Layer 1
10
30.630565
20
1.433398
70
0
0
VERTEX
8
Layer 1
10
30.835350
20
1.433398
70
0
0
VERTEX
8
Layer 1
10
30.478514
20
1.087109
70
0
0
VERTEX
8
Layer 1
10
30.871385
20
0.500000
70
0
0
VERTEX
8
Layer 1
10
30.676268
20
0.500000
70
0
0
VERTEX
8
Layer 1
10
30.367772
20
0.977246
70
0
0
VERTEX
8
Layer 1
10
30.256151
20
0.870020
70
0
0
VERTEX
8
Layer 1
10
30.256151
20
0.500000
70
0
0
VERTEX
8
Layer 1
10
30.097948
20
0.500000
70
0
0
SEQEND
8
Layer 1
0
POLYLINE
8
Layer 1
62
7
70
1
10
0.000000
20
0.000000
66
1
0
VERTEX
8
Layer 1
10
30.997070
20
0.500000
70
0
0
VERTEX
8
Layer 1
10
30.997070
20
1.433398
70
0
0
VERTEX
8
Layer 1
10
31.139453
20
1.433398
70
0
0
VERTEX
8
Layer 1
10
31.139453
20
1.300684
70
0
0
VERTEX
8
Layer 1
10
31.436523
20
1.454492
70
0
0
VERTEX
8
Layer 1
10
31.591211
20
1.423730
70
0
0
VERTEX
8
Layer 1
10
31.697559
20
1.344628
70
0
0
VERTEX
8
Layer 1
10
31.746779
20
1.227734
70
0
0
VERTEX
8
Layer 1
10
31.755579
20
1.073925
70
0
0
VERTEX
8
Layer 1
10
31.755579
20
0.500000
70
0
0
VERTEX
8
Layer 1
10
31.597363
20
0.500000
70
0
0
VERTEX
8
Layer 1
10
31.597363
20
1.067773
70
0
0
VERTEX
8
Layer 1
10
31.578903
20
1.211914
70
0
0
VERTEX
8
Layer 1
10
31.512983
20
1.288379
70
0
0
VERTEX
8
Layer 1
10
31.403120
20
1.317383
70
0
0
VERTEX
8
Layer 1
10
31.228218
20
1.253223
70
0
0
VERTEX
8
Layer 1
10
31.155268
20
1.009766
70
0
0
VERTEX
8
Layer 1
10
31.155268
20
0.500000
70
0
0
VERTEX
8
Layer 1
10
30.997070
20
0.500000
70
0
0
SEQEND
8
Layer 1
0
POLYLINE
8
Layer 1
62
7
70
0
10
0.000000
20
0.000000
66
1
0
VERTEX
8
Layer 1
10
32.637109
20
0.800586
70
0
0
VERTEX
8
Layer 1
10
32.800586
20
0.780371
70
0
0
VERTEX
8
Layer 1
10
32.657324
20
0.558008
70
0
0
VERTEX
8
Layer 1
10
32.390136
20
0.478907
70
0
0
VERTEX
8
Layer 1
10
32.064941
20
0.604590
70
0
0
VERTEX
8
Layer 1
10
31.945410
20
0.958789
70
0
0
VERTEX
8
Layer 1
10
32.066699
20
1.324414
70
0
0
VERTEX
8
Layer 1
10
32.381347
20
1.454492
70
0
0
VERTEX
8
Layer 1
10
32.687207
20
1.327051
70
0
0
VERTEX
8
Layer 1
10
32.805859
20
0.968457
70
0
0
VERTEX
8
Layer 1
10
32.804980
20
0.926270
70
0
0
VERTEX
8
Layer 1
10
32.108886
20
0.926270
70
0
0
VERTEX
8
Layer 1
10
32.195896
20
0.690723
70
0
0
VERTEX
8
Layer 1
10
32.391013
20
0.608985
70
0
0
VERTEX
8
Layer 1
10
32.539548
20
0.654688
70
0
0
VERTEX
8
Layer 1
10
32.637108
20
0.800587
70
0
0
VERTEX
8
Layer 1
10
32.637109
20
0.800586
70
0
0
SEQEND
8
Layer 1
0
POLYLINE
8
Layer 1
62
7
70
0
10
0.000000
20
0.000000
66
1
0
VERTEX
8
Layer 1
10
32.117675
20
1.056348
70
0
0
VERTEX
8
Layer 1
10
32.638867
20
1.056348
70
0
0
VERTEX
8
Layer 1
10
32.579097
20
1.233008
70
0
0
VERTEX
8
Layer 1
10
32.383101
20
1.324414
70
0
0
VERTEX
8
Layer 1
10
32.199410
20
1.251465
70
0
0
VERTEX
8
Layer 1
10
32.117670
20
1.056348
70
0
0
VERTEX
8
Layer 1
10
32.117675
20
1.056348
70
0
0
SEQEND
8
Layer 1
0
POLYLINE
8
Layer 1
62
7
70
0
10
0.000000
20
0.000000
66
1
0
VERTEX
8
Layer 1
10
32.935937
20
0.778613
70
0
0
VERTEX
8
Layer 1
10
33.092382
20
0.803222
70
0
0
VERTEX
8
Layer 1
10
33.165332
20
0.659082
70
0
0
VERTEX
8
Layer 1
10
33.334082
20
0.608984
70
0
0
VERTEX
8
Layer 1
10
33.495801
20
0.652929
70
0
0
VERTEX
8
Layer 1
10
33.548531
20
0.757518
70
0
0
VERTEX
8
Layer 1
10
33.501951
20
0.841893
70
0
0
VERTEX
8
Layer 1
10
33.340233
20
0.895506
70
0
0
VERTEX
8
Layer 1
10
33.098533
20
0.971092
70
0
0
VERTEX
8
Layer 1
10
32.996580
20
1.059862
70
0
0
VERTEX
8
Layer 1
10
32.962300
20
1.185546
70
0
0
VERTEX
8
Layer 1
10
32.990420
20
1.300683
70
0
0
VERTEX
8
Layer 1
10
33.068640
20
1.389452
70
0
0
VERTEX
8
Layer 1
10
33.168835
20
1.435155
70
0
0
VERTEX
8
Layer 1
10
33.305944
20
1.454491
70
0
0
VERTEX
8
Layer 1
10
33.498425
20
1.422850
70
0
0
VERTEX
8
Layer 1
10
33.621472
20
1.336717
70
0
0
VERTEX
8
Layer 1
10
33.675962
20
1.192576
70
0
0
VERTEX
8
Layer 1
10
33.521274
20
1.171482
70
0
0
VERTEX
8
Layer 1
10
33.459754
20
1.283982
70
0
0
VERTEX
8
Layer 1
10
33.317371
20
1.324412
70
0
0
VERTEX
8
Layer 1
10
33.161805
20
1.288377
70
0
0
VERTEX
8
Layer 1
10
33.115225
20
1.204002
70
0
0
VERTEX
8
Layer 1
10
33.134565
20
1.148631
70
0
0
VERTEX
8
Layer 1
10
33.195205
20
1.106443
70
0
0
VERTEX
8
Layer 1
10
33.334951
20
1.066013
70
0
0
VERTEX
8
Layer 1
10
33.568740
20
0.992185
70
0
0
VERTEX
8
Layer 1
10
33.673330
20
0.909568
70
0
0
VERTEX
8
Layer 1
10
33.711120
20
0.774217
70
0
0
VERTEX
8
Layer 1
10
33.664540
20
0.624803
70
0
0
VERTEX
8
Layer 1
10
33.531825
20
0.516697
70
0
0
VERTEX
8
Layer 1
10
33.334950
20
0.478904
70
0
0
VERTEX
8
Layer 1
10
33.057216
20
0.554490
70
0
0
VERTEX
8
Layer 1
10
32.935927
20
0.778611
70
0
0
VERTEX
8
Layer 1
10
32.935937
20
0.778613
70
0
0
SEQEND
8
Layer 1
0
POLYLINE
8
Layer 1
62
7
70
0
10
0.000000
20
0.000000
66
1
0
VERTEX
8
Layer 1
10
33.835938
20
0.778613
70
0
0
VERTEX
8
Layer 1
10
33.992384
20
0.803222
70
0
0
VERTEX
8
Layer 1
10
34.065334
20
0.659082
70
0
0
VERTEX
8
Layer 1
10
34.234084
20
0.608984
70
0
0
VERTEX
8
Layer 1
10
34.395803
20
0.652929
70
0
0
VERTEX
8
Layer 1
10
34.448533
20
0.757518
70
0
0
VERTEX
8
Layer 1
10
34.401953
20
0.841893
70
0
0
VERTEX
8
Layer 1
10
34.240234
20
0.895506
70
0
0
VERTEX
8
Layer 1
10
33.998535
20
0.971092
70
0
0
VERTEX
8
Layer 1
10
33.896582
20
1.059862
70
0
0
VERTEX
8
Layer 1
10
33.862302
20
1.185546
70
0
0
VERTEX
8
Layer 1
10
33.890432
20
1.300683
70
0
0
VERTEX
8
Layer 1
10
33.968652
20
1.389452
70
0
0
VERTEX
8
Layer 1
10
34.068847
20
1.435155
70
0
0
VERTEX
8
Layer 1
10
34.205957
20
1.454491
70
0
0
VERTEX
8
Layer 1
10
34.398437
20
1.422850
70
0
0
VERTEX
8
Layer 1
10
34.521484
20
1.336717
70
0
0
VERTEX
8
Layer 1
10
34.575974
20
1.192576
70
0
0
VERTEX
8
Layer 1
10
34.421287
20
1.171482
70
0
0
VERTEX
8
Layer 1
10
34.359767
20
1.283982
70
0
0
VERTEX
8
Layer 1
10
34.217385
20
1.324412
70
0
0
VERTEX
8
Layer 1
10
34.061818
20
1.288377
70
0
0
VERTEX
8
Layer 1
10
34.015238
20
1.204002
70
0
0
VERTEX
8
Layer 1
10
34.034578
20
1.148631
70
0
0
VERTEX
8
Layer 1
10
34.095228
20
1.106443
70
0
0
VERTEX
8
Layer 1
10
34.234974
20
1.066013
70
0
0
VERTEX
8
Layer 1
10
34.468763
20
0.992185
70
0
0
VERTEX
8
Layer 1
10
34.573353
20
0.909568
70
0
0
VERTEX
8
Layer 1
10
34.611143
20
0.774217
70
0
0
VERTEX
8
Layer 1
10
34.564563
20
0.624803
70
0
0
VERTEX
8
Layer 1
10
34.431848
20
0.516697
70
0
0
VERTEX
8
Layer 1
10
34.234973
20
0.478904
70
0
0
VERTEX
8
Layer 1
10
33.957238
20
0.554490
70
0
0
VERTEX
8
Layer 1
10
33.835949
20
0.778611
70
0
0
VERTEX
8
Layer 1
10
33.835938
20
0.778613
70
0
0
SEQEND
8
Layer 1
0
POLYLINE
8
Layer 1
62
7
70
0
10
0.000000
20
0.000000
66
1
0
VERTEX
8
Layer 1
10
36.131641
20
1.257617
70
0
0
VERTEX
8
Layer 1
10
35.280859
20
1.257617
70
0
0
VERTEX
8
Layer 1
10
35.280859
20
1.405273
70
0
0
VERTEX
8
Layer 1
10
36.131641
20
1.405273
70
0
0
VERTEX
8
Layer 1
10
36.131641
20
1.257617
70
0
0
SEQEND
8
Layer 1
0
POLYLINE
8
Layer 1
62
7
70
0
10
0.000000
20
0.000000
66
1
0
VERTEX
8
Layer 1
10
36.131641
20
0.866504
70
0
0
VERTEX
8
Layer 1
10
35.280859
20
0.866504
70
0
0
VERTEX
8
Layer 1
10
35.280859
20
1.014160
70
0
0
VERTEX
8
Layer 1
10
36.131641
20
1.014160
70
0
0
VERTEX
8
Layer 1
10
36.131641
20
0.866504
70
0
0
SEQEND
8
Layer 1
0
POLYLINE
8
Layer 1
62
7
70
0
10
0.000000
20
0.000000
66
1
0
VERTEX
8
Layer 1
10
37.402539
20
0.500000
70
0
0
VERTEX
8
Layer 1
10
37.244336
20
0.500000
70
0
0
VERTEX
8
Layer 1
10
37.244336
20
1.508105
70
0
0
VERTEX
8
Layer 1
10
37.094043
20
1.399121
70
0
0
VERTEX
8
Layer 1
10
36.927930
20
1.317383
70
0
0
VERTEX
8
Layer 1
10
36.927930
20
1.470312
70
0
0
VERTEX
8
Layer 1
10
37.159961
20
1.621484
70
0
0
VERTEX
8
Layer 1
10
37.300586
20
1.793750
70
0
0
VERTEX
8
Layer 1
10
37.402539
20
1.793750
70
0
0
VERTEX
8
Layer 1
10
37.402539
20
0.500000
70
0
0
SEQEND
8
Layer 1
0
POLYLINE
8
Layer 1
62
7
70
0
10
0.000000
20
0.000000
66
1
0
VERTEX
8
Layer 1
10
37.807713
20
1.135449
70
0
0
VERTEX
8
Layer 1
10
37.854293
20
1.502832
70
0
0
VERTEX
8
Layer 1
10
37.994039
20
1.718164
70
0
0
VERTEX
8
Layer 1
10
38.227828
20
1.793750
70
0
0
VERTEX
8
Layer 1
10
38.409761
20
1.751562
70
0
0
VERTEX
8
Layer 1
10
38.538961
20
1.631152
70
0
0
VERTEX
8
Layer 1
10
38.618941
20
1.439550
70
0
0
VERTEX
8
Layer 1
10
38.647941
20
1.135449
70
0
0
VERTEX
8
Layer 1
10
38.601361
20
0.768945
70
0
0
VERTEX
8
Layer 1
10
38.461615
20
0.553613
70
0
0
VERTEX
8
Layer 1
10
38.227826
20
0.478027
70
0
0
VERTEX
8
Layer 1
10
37.935150
20
0.611621
70
0
0
VERTEX
8
Layer 1
10
37.807709
20
1.135449
70
0
0
VERTEX
8
Layer 1
10
37.807713
20
1.135449
70
0
0
SEQEND
8
Layer 1
0
POLYLINE
8
Layer 1
62
7
70
0
10
0.000000
20
0.000000
66
1
0
VERTEX
8
Layer 1
10
37.970310
20
1.135449
70
0
0
VERTEX
8
Layer 1
10
38.044140
20
0.712695
70
0
0
VERTEX
8
Layer 1
10
38.227832
20
0.608106
70
0
0
VERTEX
8
Layer 1
10
38.410644
20
0.713574
70
0
0
VERTEX
8
Layer 1
10
38.485354
20
1.135449
70
0
0
VERTEX
8
Layer 1
10
38.410644
20
1.558203
70
0
0
VERTEX
8
Layer 1
10
38.226074
20
1.662793
70
0
0
VERTEX
8
Layer 1
10
38.052050
20
1.570508
70
0
0
VERTEX
8
Layer 1
10
37.970310
20
1.135449
70
0
0
VERTEX
8
Layer 1
10
37.970310
20
1.135449
70
0
0
SEQEND
8
Layer 1
0
POLYLINE
8
Layer 1
62
7
70
0
10
0.000000
20
0.000000
66
1
0
VERTEX
8
Layer 1
10
38.808788
20
1.135449
70
0
0
VERTEX
8
Layer 1
10
38.855368
20
1.502832
70
0
0
VERTEX
8
Layer 1
10
38.995114
20
1.718164
70
0
0
VERTEX
8
Layer 1
10
39.228903
20
1.793750
70
0
0
VERTEX
8
Layer 1
10
39.410837
20
1.751562
70
0
0
VERTEX
8
Layer 1
10
39.540036
20
1.631152
70
0
0
VERTEX
8
Layer 1
10
39.620016
20
1.439550
70
0
0
VERTEX
8
Layer 1
10
39.649016
20
1.135449
70
0
0
VERTEX
8
Layer 1
10
39.602436
20
0.768945
70
0
0
VERTEX
8
Layer 1
10
39.462690
20
0.553613
70
0
0
VERTEX
8
Layer 1
10
39.228900
20
0.478027
70
0
0
VERTEX
8
Layer 1
10
38.936225
20
0.611621
70
0
0
VERTEX
8
Layer 1
10
38.808783
20
1.135449
70
0
0
VERTEX
8
Layer 1
10
38.808788
20
1.135449
70
0
0
SEQEND
8
Layer 1
0
POLYLINE
8
Layer 1
62
7
70
0
10
0.000000
20
0.000000
66
1
0
VERTEX
8
Layer 1
10
38.971386
20
1.135449
70
0
0
VERTEX
8
Layer 1
10
39.045216
20
0.712695
70
0
0
VERTEX
8
Layer 1
10
39.228907
20
0.608106
70
0
0
VERTEX
8
Layer 1
10
39.411720
20
0.713574
70
0
0
VERTEX
8
Layer 1
10
39.486430
20
1.135449
70
0
0
VERTEX
8
Layer 1
10
39.411720
20
1.558203
70
0
0
VERTEX
8
Layer 1
10
39.227150
20
1.662793
70
0
0
VERTEX
8
Layer 1
10
39.053126
20
1.570508
70
0
0
VERTEX
8
Layer 1
10
38.971386
20
1.135449
70
0
0
VERTEX
8
Layer 1
10
38.971386
20
1.135449
70
0
0
SEQEND
8
Layer 1
0
POLYLINE
8
Layer 1
62
7
70
0
10
0.000000
20
0.000000
66
1
0
VERTEX
8
Layer 1
10
39.839747
20
1.479102
70
0
0
VERTEX
8
Layer 1
10
39.909177
20
1.713770
70
0
0
VERTEX
8
Layer 1
10
40.110447
20
1.810450
70
0
0
VERTEX
8
Layer 1
10
40.310838
20
1.723438
70
0
0
VERTEX
8
Layer 1
10
40.390818
20
1.469434
70
0
0
VERTEX
8
Layer 1
10
40.309958
20
1.217188
70
0
0
VERTEX
8
Layer 1
10
40.112204
20
1.129297
70
0
0
VERTEX
8
Layer 1
10
39.917087
20
1.216309
70
0
0
VERTEX
8
Layer 1
10
39.839747
20
1.479101
70
0
0
VERTEX
8
Layer 1
10
39.839747
20
1.479102
70
0
0
SEQEND
8
Layer 1
0
POLYLINE
8
Layer 1
62
7
70
0
10
0.000000
20
0.000000
66
1
0
VERTEX
8
Layer 1
10
40.114845
20
1.701465
70
0
0
VERTEX
8
Layer 1
10
40.016405
20
1.650489
70
0
0
VERTEX
8
Layer 1
10
39.977735
20
1.463282
70
0
0
VERTEX
8
Layer 1
10
40.017285
20
1.288379
70
0
0
VERTEX
8
Layer 1
10
40.114845
20
1.238281
70
0
0
VERTEX
8
Layer 1
10
40.213285
20
1.289258
70
0
0
VERTEX
8
Layer 1
10
40.252835
20
1.475586
70
0
0
VERTEX
8
Layer 1
10
40.213285
20
1.650489
70
0
0
VERTEX
8
Layer 1
10
40.114845
20
1.701465
70
0
0
VERTEX
8
Layer 1
10
40.114845
20
1.701465
70
0
0
SEQEND
8
Layer 1
0
POLYLINE
8
Layer 1
62
7
70
1
10
0.000000
20
0.000000
66
1
0
VERTEX
8
Layer 1
10
40.115723
20
0.452539
70
0
0
VERTEX
8
Layer 1
10
40.820606
20
1.810449
70
0
0
VERTEX
8
Layer 1
10
40.948927
20
1.810449
70
0
0
VERTEX
8
Layer 1
10
40.246680
20
0.452539
70
0
0
VERTEX
8
Layer 1
10
40.115723
20
0.452539
70
0
0
SEQEND
8
Layer 1
0
POLYLINE
8
Layer 1
62
7
70
0
10
0.000000
20
0.000000
66
1
0
VERTEX
8
Layer 1
10
40.672950
20
0.802344
70
0
0
VERTEX
8
Layer 1
10
40.742380
20
1.037012
70
0
0
VERTEX
8
Layer 1
10
40.944528
20
1.133692
70
0
0
VERTEX
8
Layer 1
10
41.144919
20
1.046680
70
0
0
VERTEX
8
Layer 1
10
41.224899
20
0.792676
70
0
0
VERTEX
8
Layer 1
10
41.144039
20
0.540430
70
0
0
VERTEX
8
Layer 1
10
40.945406
20
0.452539
70
0
0
VERTEX
8
Layer 1
10
40.750289
20
0.539551
70
0
0
VERTEX
8
Layer 1
10
40.672949
20
0.802344
70
0
0
VERTEX
8
Layer 1
10
40.672950
20
0.802344
70
0
0
SEQEND
8
Layer 1
0
POLYLINE
8
Layer 1
62
7
70
0
10
0.000000
20
0.000000
66
1
0
VERTEX
8
Layer 1
10
40.948927
20
1.024707
70
0
0
VERTEX
8
Layer 1
10
40.849607
20
0.973731
70
0
0
VERTEX
8
Layer 1
10
40.810937
20
0.786524
70
0
0
VERTEX
8
Layer 1
10
40.850487
20
0.612500
70
0
0
VERTEX
8
Layer 1
10
40.948047
20
0.561523
70
0
0
VERTEX
8
Layer 1
10
41.047367
20
0.612500
70
0
0
VERTEX
8
Layer 1
10
41.086917
20
0.798829
70
0
0
VERTEX
8
Layer 1
10
41.047367
20
0.973731
70
0
0
VERTEX
8
Layer 1
10
40.948927
20
1.024707
70
0
0
VERTEX
8
Layer 1
10
40.948927
20
1.024707
70
0
0
SEQEND
8
Layer 1
0
POLYLINE
8
Layer 1
62
7
70
0
10
0.000000
20
0.000000
66
1
0
VERTEX
8
Layer 1
10
41.922751
20
1.127539
70
0
0
VERTEX
8
Layer 1
10
42.095016
20
1.629394
70
0
0
VERTEX
8
Layer 1
10
42.539743
20
1.811328
70
0
0
VERTEX
8
Layer 1
10
42.861423
20
1.726074
70
0
0
VERTEX
8
Layer 1
10
43.079391
20
1.487890
70
0
0
VERTEX
8
Layer 1
10
43.154981
20
1.142480
70
0
0
VERTEX
8
Layer 1
10
43.075881
20
0.791797
70
0
0
VERTEX
8
Layer 1
10
42.851760
20
0.557129
70
0
0
VERTEX
8
Layer 1
10
42.538869
20
0.478027
70
0
0
VERTEX
8
Layer 1
10
42.213674
20
0.565918
70
0
0
VERTEX
8
Layer 1
10
41.996584
20
0.805859
70
0
0
VERTEX
8
Layer 1
10
41.922754
20
1.127539
70
0
0
VERTEX
8
Layer 1
10
41.922751
20
1.127539
70
0
0
SEQEND
8
Layer 1
0
POLYLINE
8
Layer 1
62
7
70
0
10
0.000000
20
0.000000
66
1
0
VERTEX
8
Layer 1
10
42.098532
20
1.124899
70
0
0
VERTEX
8
Layer 1
10
42.223337
20
0.757516
70
0
0
VERTEX
8
Layer 1
10
42.537985
20
0.623922
70
0
0
VERTEX
8
Layer 1
10
42.854391
20
0.759274
70
0
0
VERTEX
8
Layer 1
10
42.979196
20
1.143356
70
0
0
VERTEX
8
Layer 1
10
42.925586
20
1.417575
70
0
0
VERTEX
8
Layer 1
10
42.770019
20
1.599508
70
0
0
VERTEX
8
Layer 1
10
42.540625
20
1.664547
70
0
0
VERTEX
8
Layer 1
10
42.228613
20
1.539743
70
0
0
VERTEX
8
Layer 1
10
42.098535
20
1.124899
70
0
0
VERTEX
8
Layer 1
10
42.098532
20
1.124899
70
0
0
SEQEND
8
Layer 1
0
POLYLINE
8
Layer 1
62
7
70
1
10
0.000000
20
0.000000
66
1
0
VERTEX
8
Layer 1
10
43.352734
20
0.500000
70
0
0
VERTEX
8
Layer 1
10
43.352734
20
1.433398
70
0
0
VERTEX
8
Layer 1
10
43.495117
20
1.433398
70
0
0
VERTEX
8
Layer 1
10
43.495117
20
1.291895
70
0
0
VERTEX
8
Layer 1
10
43.595312
20
1.422852
70
0
0
VERTEX
8
Layer 1
10
43.697266
20
1.454493
70
0
0
VERTEX
8
Layer 1
10
43.859863
20
1.403516
70
0
0
VERTEX
8
Layer 1
10
43.805373
20
1.256738
70
0
0
VERTEX
8
Layer 1
10
43.689357
20
1.291015
70
0
0
VERTEX
8
Layer 1
10
43.596197
20
1.259374
70
0
0
VERTEX
8
Layer 1
10
43.537307
20
1.173241
70
0
0
VERTEX
8
Layer 1
10
43.510937
20
0.988671
70
0
0
VERTEX
8
Layer 1
10
43.510937
20
0.500000
70
0
0
VERTEX
8
Layer 1
10
43.352734
20
0.500000
70
0
0
SEQEND
8
Layer 1
0
POLYLINE
8
Layer 1
62
7
70
1
10
0.000000
20
0.000000
66
1
0
VERTEX
8
Layer 1
10
43.954782
20
1.606543
70
0
0
VERTEX
8
Layer 1
10
43.954782
20
1.788476
70
0
0
VERTEX
8
Layer 1
10
44.112985
20
1.788476
70
0
0
VERTEX
8
Layer 1
10
44.112985
20
1.606543
70
0
0
VERTEX
8
Layer 1
10
43.954782
20
1.606543
70
0
0
SEQEND
8
Layer 1
0
POLYLINE
8
Layer 1
62
7
70
1
10
0.000000
20
0.000000
66
1
0
VERTEX
8
Layer 1
10
43.954782
20
0.500000
70
0
0
VERTEX
8
Layer 1
10
43.954782
20
1.433398
70
0
0
VERTEX
8
Layer 1
10
44.112985
20
1.433398
70
0
0
VERTEX
8
Layer 1
10
44.112985
20
0.500000
70
0
0
VERTEX
8
Layer 1
10
43.954782
20
0.500000
70
0
0
SEQEND
8
Layer 1
0
POLYLINE
8
Layer 1
62
7
70
0
10
0.000000
20
0.000000
66
1
0
VERTEX
8
Layer 1
10
44.324802
20
0.422656
70
0
0
VERTEX
8
Layer 1
10
44.478610
20
0.399804
70
0
0
VERTEX
8
Layer 1
10
44.532220
20
0.296093
70
0
0
VERTEX
8
Layer 1
10
44.693059
20
0.252148
70
0
0
VERTEX
8
Layer 1
10
44.862688
20
0.296093
70
0
0
VERTEX
8
Layer 1
10
44.943548
20
0.419140
70
0
0
VERTEX
8
Layer 1
10
44.954978
20
0.622167
70
0
0
VERTEX
8
Layer 1
10
44.696579
20
0.500000
70
0
0
VERTEX
8
Layer 1
10
44.398630
20
0.638867
70
0
0
VERTEX
8
Layer 1
10
44.293161
20
0.971973
70
0
0
VERTEX
8
Layer 1
10
44.341501
20
1.218066
70
0
0
VERTEX
8
Layer 1
10
44.481247
20
1.392969
70
0
0
VERTEX
8
Layer 1
10
44.697458
20
1.454492
70
0
0
VERTEX
8
Layer 1
10
44.969919
20
1.320898
70
0
0
VERTEX
8
Layer 1
10
44.969919
20
1.433398
70
0
0
VERTEX
8
Layer 1
10
45.115817
20
1.433398
70
0
0
VERTEX
8
Layer 1
10
45.115817
20
0.626562
70
0
0
VERTEX
8
Layer 1
10
45.070997
20
0.318066
70
0
0
VERTEX
8
Layer 1
10
44.930372
20
0.173925
70
0
0
VERTEX
8
Layer 1
10
44.693946
20
0.121191
70
0
0
VERTEX
8
Layer 1
10
44.424122
20
0.196777
70
0
0
VERTEX
8
Layer 1
10
44.324802
20
0.422656
70
0
0
VERTEX
8
Layer 1
10
44.324802
20
0.422656
70
0
0
SEQEND
8
Layer 1
0
POLYLINE
8
Layer 1
62
7
70
0
10
0.000000
20
0.000000
66
1
0
VERTEX
8
Layer 1
10
44.455759
20
0.983398
70
0
0
VERTEX
8
Layer 1
10
44.528709
20
0.715332
70
0
0
VERTEX
8
Layer 1
10
44.711521
20
0.630957
70
0
0
VERTEX
8
Layer 1
10
44.894334
20
0.714453
70
0
0
VERTEX
8
Layer 1
10
44.968164
20
0.978125
70
0
0
VERTEX
8
Layer 1
10
44.891704
20
1.236523
70
0
0
VERTEX
8
Layer 1
10
44.708892
20
1.323535
70
0
0
VERTEX
8
Layer 1
10
44.529595
20
1.237402
70
0
0
VERTEX
8
Layer 1
10
44.455765
20
0.983398
70
0
0
VERTEX
8
Layer 1
10
44.455759
20
0.983398
70
0
0
SEQEND
8
Layer 1
0
POLYLINE
8
Layer 1
62
7
70
1
10
0.000000
20
0.000000
66
1
0
VERTEX
8
Layer 1
10
45.355760
20
1.606543
70
0
0
VERTEX
8
Layer 1
10
45.355760
20
1.788476
70
0
0
VERTEX
8
Layer 1
10
45.513963
20
1.788476
70
0
0
VERTEX
8
Layer 1
10
45.513963
20
1.606543
70
0
0
VERTEX
8
Layer 1
10
45.355760
20
1.606543
70
0
0
SEQEND
8
Layer 1
0
POLYLINE
8
Layer 1
62
7
70
1
10
0.000000
20
0.000000
66
1
0
VERTEX
8
Layer 1
10
45.355760
20
0.500000
70
0
0
VERTEX
8
Layer 1
10
45.355760
20
1.433398
70
0
0
VERTEX
8
Layer 1
10
45.513963
20
1.433398
70
0
0
VERTEX
8
Layer 1
10
45.513963
20
0.500000
70
0
0
VERTEX
8
Layer 1
10
45.355760
20
0.500000
70
0
0
SEQEND
8
Layer 1
0
POLYLINE
8
Layer 1
62
7
70
1
10
0.000000
20
0.000000
66
1
0
VERTEX
8
Layer 1
10
45.754784
20
0.500000
70
0
0
VERTEX
8
Layer 1
10
45.754784
20
1.433398
70
0
0
VERTEX
8
Layer 1
10
45.897166
20
1.433398
70
0
0
VERTEX
8
Layer 1
10
45.897166
20
1.300684
70
0
0
VERTEX
8
Layer 1
10
46.194237
20
1.454492
70
0
0
VERTEX
8
Layer 1
10
46.348924
20
1.423730
70
0
0
VERTEX
8
Layer 1
10
46.455272
20
1.344628
70
0
0
VERTEX
8
Layer 1
10
46.504492
20
1.227734
70
0
0
VERTEX
8
Layer 1
10
46.513292
20
1.073925
70
0
0
VERTEX
8
Layer 1
10
46.513292
20
0.500000
70
0
0
VERTEX
8
Layer 1
10
46.355077
20
0.500000
70
0
0
VERTEX
8
Layer 1
10
46.355077
20
1.067773
70
0
0
VERTEX
8
Layer 1
10
46.336617
20
1.211914
70
0
0
VERTEX
8
Layer 1
10
46.270697
20
1.288379
70
0
0
VERTEX
8
Layer 1
10
46.160833
20
1.317383
70
0
0
VERTEX
8
Layer 1
10
45.985931
20
1.253223
70
0
0
VERTEX
8
Layer 1
10
45.912981
20
1.009766
70
0
0
VERTEX
8
Layer 1
10
45.912981
20
0.500000
70
0
0
VERTEX
8
Layer 1
10
45.754784
20
0.500000
70
0
0
SEQEND
8
Layer 1
0
POLYLINE
8
Layer 1
62
7
70
0
10
0.000000
20
0.000000
66
1
0
VERTEX
8
Layer 1
10
48.088279
20
1.257617
70
0
0
VERTEX
8
Layer 1
10
47.237498
20
1.257617
70
0
0
VERTEX
8
Layer 1
10
47.237498
20
1.405273
70
0
0
VERTEX
8
Layer 1
10
48.088279
20
1.405273
70
0
0
VERTEX
8
Layer 1
10
48.088279
20
1.257617
70
0
0
SEQEND
8
Layer 1
0
POLYLINE
8
Layer 1
62
7
70
0
10
0.000000
20
0.000000
66
1
0
VERTEX
8
Layer 1
10
48.088279
20
0.866504
70
0
0
VERTEX
8
Layer 1
10
47.237498
20
0.866504
70
0
0
VERTEX
8
Layer 1
10
47.237498
20
1.014160
70
0
0
VERTEX
8
Layer 1
10
48.088279
20
1.014160
70
0
0
VERTEX
8
Layer 1
10
48.088279
20
0.866504
70
0
0
SEQEND
8
Layer 1
0
POLYLINE
8
Layer 1
62
7
70
0
10
0.000000
20
0.000000
66
1
0
VERTEX
8
Layer 1
10
48.763279
20
1.135449
70
0
0
VERTEX
8
Layer 1
10
48.809859
20
1.502832
70
0
0
VERTEX
8
Layer 1
10
48.949605
20
1.718164
70
0
0
VERTEX
8
Layer 1
10
49.183394
20
1.793750
70
0
0
VERTEX
8
Layer 1
10
49.365328
20
1.751562
70
0
0
VERTEX
8
Layer 1
10
49.494527
20
1.631152
70
0
0
VERTEX
8
Layer 1
10
49.574507
20
1.439550
70
0
0
VERTEX
8
Layer 1
10
49.603507
20
1.135449
70
0
0
VERTEX
8
Layer 1
10
49.556927
20
0.768945
70
0
0
VERTEX
8
Layer 1
10
49.417181
20
0.553613
70
0
0
VERTEX
8
Layer 1
10
49.183392
20
0.478027
70
0
0
VERTEX
8
Layer 1
10
48.890716
20
0.611621
70
0
0
VERTEX
8
Layer 1
10
48.763275
20
1.135449
70
0
0
VERTEX
8
Layer 1
10
48.763279
20
1.135449
70
0
0
SEQEND
8
Layer 1
0
POLYLINE
8
Layer 1
62
7
70
0
10
0.000000
20
0.000000
66
1
0
VERTEX
8
Layer 1
10
48.925877
20
1.135449
70
0
0
VERTEX
8
Layer 1
10
48.999707
20
0.712695
70
0
0
VERTEX
8
Layer 1
10
49.183398
20
0.608105
70
0
0
VERTEX
8
Layer 1
10
49.366211
20
0.713574
70
0
0
VERTEX
8
Layer 1
10
49.440921
20
1.135449
70
0
0
VERTEX
8
Layer 1
10
49.366211
20
1.558203
70
0
0
VERTEX
8
Layer 1
10
49.181640
20
1.662793
70
0
0
VERTEX
8
Layer 1
10
49.007617
20
1.570508
70
0
0
VERTEX
8
Layer 1
10
48.925877
20
1.135449
70
0
0
VERTEX
8
Layer 1
10
48.925877
20
1.135449
70
0
0
SEQEND
8
Layer 1
0
POLYLINE
8
Layer 1
62
7
70
0
10
0.000000
20
0.000000
66
1
0
VERTEX
8
Layer 1
10
49.794238
20
1.479101
70
0
0
VERTEX
8
Layer 1
10
49.863668
20
1.713769
70
0
0
VERTEX
8
Layer 1
10
50.064938
20
1.810449
70
0
0
VERTEX
8
Layer 1
10
50.265328
20
1.723437
70
0
0
VERTEX
8
Layer 1
10
50.345308
20
1.469434
70
0
0
VERTEX
8
Layer 1
10
50.264448
20
1.217188
70
0
0
VERTEX
8
Layer 1
10
50.066694
20
1.129297
70
0
0
VERTEX
8
Layer 1
10
49.871577
20
1.216309
70
0
0
VERTEX
8
Layer 1
10
49.794237
20
1.479101
70
0
0
VERTEX
8
Layer 1
10
49.794238
20
1.479101
70
0
0
SEQEND
8
Layer 1
0
POLYLINE
8
Layer 1
62
7
70
0
10
0.000000
20
0.000000
66
1
0
VERTEX
8
Layer 1
10
50.069335
20
1.701465
70
0
0
VERTEX
8
Layer 1
10
49.970895
20
1.650489
70
0
0
VERTEX
8
Layer 1
10
49.932225
20
1.463282
70
0
0
VERTEX
8
Layer 1
10
49.971775
20
1.288379
70
0
0
VERTEX
8
Layer 1
10
50.069335
20
1.238281
70
0
0
VERTEX
8
Layer 1
10
50.167775
20
1.289258
70
0
0
VERTEX
8
Layer 1
10
50.207325
20
1.475586
70
0
0
VERTEX
8
Layer 1
10
50.167775
20
1.650489
70
0
0
VERTEX
8
Layer 1
10
50.069335
20
1.701465
70
0
0
VERTEX
8
Layer 1
10
50.069335
20
1.701465
70
0
0
SEQEND
8
Layer 1
0
POLYLINE
8
Layer 1
62
7
70
0
10
0.000000
20
0.000000
66
1
0
VERTEX
8
Layer 1
10
50.070214
20
0.452539
70
0
0
VERTEX
8
Layer 1
10
50.775097
20
1.810449
70
0
0
VERTEX
8
Layer 1
10
50.903417
20
1.810449
70
0
0
VERTEX
8
Layer 1
10
50.201171
20
0.452539
70
0
0
VERTEX
8
Layer 1
10
50.070214
20
0.452539
70
0
0
SEQEND
8
Layer 1
0
POLYLINE
8
Layer 1
62
7
70
0
10
0.000000
20
0.000000
66
1
0
VERTEX
8
Layer 1
10
50.627441
20
0.802344
70
0
0
VERTEX
8
Layer 1
10
50.696871
20
1.037012
70
0
0
VERTEX
8
Layer 1
10
50.899020
20
1.133692
70
0
0
VERTEX
8
Layer 1
10
51.099410
20
1.046680
70
0
0
VERTEX
8
Layer 1
10
51.179390
20
0.792676
70
0
0
VERTEX
8
Layer 1
10
51.098530
20
0.540430
70
0
0
VERTEX
8
Layer 1
10
50.899898
20
0.452539
70
0
0
VERTEX
8
Layer 1
10
50.704780
20
0.539551
70
0
0
VERTEX
8
Layer 1
10
50.627440
20
0.802344
70
0
0
VERTEX
8
Layer 1
10
50.627441
20
0.802344
70
0
0
SEQEND
8
Layer 1
0
POLYLINE
8
Layer 1
62
7
70
0
10
0.000000
20
0.000000
66
1
0
VERTEX
8
Layer 1
10
50.903417
20
1.024707
70
0
0
VERTEX
8
Layer 1
10
50.804097
20
0.973731
70
0
0
VERTEX
8
Layer 1
10
50.765427
20
0.786524
70
0
0
VERTEX
8
Layer 1
10
50.804977
20
0.612500
70
0
0
VERTEX
8
Layer 1
10
50.902537
20
0.561523
70
0
0
VERTEX
8
Layer 1
10
51.001857
20
0.612500
70
0
0
VERTEX
8
Layer 1
10
51.041407
20
0.798829
70
0
0
VERTEX
8
Layer 1
10
51.001857
20
0.973731
70
0
0
VERTEX
8
Layer 1
10
50.903417
20
1.024707
70
0
0
VERTEX
8
Layer 1
10
50.903417
20
1.024707
70
0
0
SEQEND
8
Layer 1
0
POLYLINE
8
Layer 1
62
7
70
1
10
0.000000
20
0.000000
66
1
0
VERTEX
8
Layer 1
10
51.929101
20
0.500000
70
0
0
VERTEX
8
Layer 1
10
51.929101
20
1.788476
70
0
0
VERTEX
8
Layer 1
10
52.415136
20
1.788476
70
0
0
VERTEX
8
Layer 1
10
52.611132
20
1.776171
70
0
0
VERTEX
8
Layer 1
10
52.770214
20
1.715527
70
0
0
VERTEX
8
Layer 1
10
52.873046
20
1.591602
70
0
0
VERTEX
8
Layer 1
10
52.912596
20
1.415821
70
0
0
VERTEX
8
Layer 1
10
52.808006
20
1.137207
70
0
0
VERTEX
8
Layer 1
10
52.430076
20
1.023828
70
0
0
VERTEX
8
Layer 1
10
52.099609
20
1.023828
70
0
0
VERTEX
8
Layer 1
10
52.099609
20
0.500000
70
0
0
VERTEX
8
Layer 1
10
51.929101
20
0.500000
70
0
0
SEQEND
8
Layer 1
0
POLYLINE
8
Layer 1
62
7
70
0
10
0.000000
20
0.000000
66
1
0
VERTEX
8
Layer 1
10
52.099609
20
1.175879
70
0
0
VERTEX
8
Layer 1
10
52.432714
20
1.175879
70
0
0
VERTEX
8
Layer 1
10
52.667382
20
1.237402
70
0
0
VERTEX
8
Layer 1
10
52.736812
20
1.410547
70
0
0
VERTEX
8
Layer 1
10
52.695502
20
1.548535
70
0
0
VERTEX
8
Layer 1
10
52.588280
20
1.625000
70
0
0
VERTEX
8
Layer 1
10
52.429198
20
1.636426
70
0
0
VERTEX
8
Layer 1
10
52.099609
20
1.636426
70
0
0
VERTEX
8
Layer 1
10
52.099609
20
1.175879
70
0
0
SEQEND
8
Layer 1
0
POLYLINE
8
Layer 1
62
7
70
1
10
0.000000
20
0.000000
66
1
0
VERTEX
8
Layer 1
10
53.110349
20
1.606543
70
0
0
VERTEX
8
Layer 1
10
53.110349
20
1.788476
70
0
0
VERTEX
8
Layer 1
10
53.268552
20
1.788476
70
0
0
VERTEX
8
Layer 1
10
53.268552
20
1.606543
70
0
0
VERTEX
8
Layer 1
10
53.110349
20
1.606543
70
0
0
SEQEND
8
Layer 1
0
POLYLINE
8
Layer 1
62
7
70
1
10
0.000000
20
0.000000
66
1
0
VERTEX
8
Layer 1
10
53.110349
20
0.500000
70
0
0
VERTEX
8
Layer 1
10
53.110349
20
1.433398
70
0
0
VERTEX
8
Layer 1
10
53.268552
20
1.433398
70
0
0
VERTEX
8
Layer 1
10
53.268552
20
0.500000
70
0
0
VERTEX
8
Layer 1
10
53.110349
20
0.500000
70
0
0
SEQEND
8
Layer 1
0
POLYLINE
8
Layer 1
62
7
70
0
10
0.000000
20
0.000000
66
1
0
VERTEX
8
Layer 1
10
53.854783
20
0.641504
70
0
0
VERTEX
8
Layer 1
10
53.877633
20
0.501758
70
0
0
VERTEX
8
Layer 1
10
53.758102
20
0.487696
70
0
0
VERTEX
8
Layer 1
10
53.624508
20
0.514942
70
0
0
VERTEX
8
Layer 1
10
53.557708
20
0.586133
70
0
0
VERTEX
8
Layer 1
10
53.538368
20
0.773340
70
0
0
VERTEX
8
Layer 1
10
53.538368
20
1.310351
70
0
0
VERTEX
8
Layer 1
10
53.422361
20
1.310351
70
0
0
VERTEX
8
Layer 1
10
53.422361
20
1.433398
70
0
0
VERTEX
8
Layer 1
10
53.538377
20
1.433398
70
0
0
VERTEX
8
Layer 1
10
53.538377
20
1.664551
70
0
0
VERTEX
8
Layer 1
10
53.695701
20
1.759473
70
0
0
VERTEX
8
Layer 1
10
53.695701
20
1.433399
70
0
0
VERTEX
8
Layer 1
10
53.854783
20
1.433399
70
0
0
VERTEX
8
Layer 1
10
53.854783
20
1.310352
70
0
0
VERTEX
8
Layer 1
10
53.695701
20
1.310352
70
0
0
VERTEX
8
Layer 1
10
53.695701
20
0.764551
70
0
0
VERTEX
8
Layer 1
10
53.703601
20
0.677539
70
0
0
VERTEX
8
Layer 1
10
53.730851
20
0.646777
70
0
0
VERTEX
8
Layer 1
10
53.785341
20
0.635351
70
0
0
VERTEX
8
Layer 1
10
53.854771
20
0.641501
70
0
0
VERTEX
8
Layer 1
10
53.854783
20
0.641504
70
0
0
SEQEND
8
Layer 1
0
POLYLINE
8
Layer 1
62
7
70
0
10
0.000000
20
0.000000
66
1
0
VERTEX
8
Layer 1
10
54.618554
20
0.841894
70
0
0
VERTEX
8
Layer 1
10
54.774120
20
0.821680
70
0
0
VERTEX
8
Layer 1
10
54.643163
20
0.569433
70
0
0
VERTEX
8
Layer 1
10
54.385644
20
0.478906
70
0
0
VERTEX
8
Layer 1
10
54.077148
20
0.603711
70
0
0
VERTEX
8
Layer 1
10
53.961132
20
0.963184
70
0
0
VERTEX
8
Layer 1
10
54.011232
20
1.227735
70
0
0
VERTEX
8
Layer 1
10
54.163282
20
1.397363
70
0
0
VERTEX
8
Layer 1
10
54.386525
20
1.454492
70
0
0
VERTEX
8
Layer 1
10
54.635255
20
1.377148
70
0
0
VERTEX
8
Layer 1
10
54.759181
20
1.159180
70
0
0
VERTEX
8
Layer 1
10
54.605372
20
1.135449
70
0
0
VERTEX
8
Layer 1
10
54.527152
20
1.276953
70
0
0
VERTEX
8
Layer 1
10
54.392679
20
1.324414
70
0
0
VERTEX
8
Layer 1
10
54.198441
20
1.238281
70
0
0
VERTEX
8
Layer 1
10
54.123731
20
0.967578
70
0
0
VERTEX
8
Layer 1
10
54.195801
20
0.694238
70
0
0
VERTEX
8
Layer 1
10
54.383887
20
0.608984
70
0
0
VERTEX
8
Layer 1
10
54.539453
20
0.666113
70
0
0
VERTEX
8
Layer 1
10
54.618553
20
0.841894
70
0
0
VERTEX
8
Layer 1
10
54.618554
20
0.841894
70
0
0
SEQEND
8
Layer 1
0
POLYLINE
8
Layer 1
62
7
70
1
10
0.000000
20
0.000000
66
1
0
VERTEX
8
Layer 1
10
54.909470
20
0.500000
70
0
0
VERTEX
8
Layer 1
10
54.909470
20
1.788476
70
0
0
VERTEX
8
Layer 1
10
55.067673
20
1.788476
70
0
0
VERTEX
8
Layer 1
10
55.067673
20
1.326172
70
0
0
VERTEX
8
Layer 1
10
55.347165
20
1.454492
70
0
0
VERTEX
8
Layer 1
10
55.527341
20
1.413183
70
0
0
VERTEX
8
Layer 1
10
55.636325
20
1.300683
70
0
0
VERTEX
8
Layer 1
10
55.669725
20
1.091503
70
0
0
VERTEX
8
Layer 1
10
55.669725
20
0.500000
70
0
0
VERTEX
8
Layer 1
10
55.511520
20
0.500000
70
0
0
VERTEX
8
Layer 1
10
55.511520
20
1.091504
70
0
0
VERTEX
8
Layer 1
10
55.459670
20
1.263769
70
0
0
VERTEX
8
Layer 1
10
55.314650
20
1.318262
70
0
0
VERTEX
8
Layer 1
10
55.181936
20
1.281348
70
0
0
VERTEX
8
Layer 1
10
55.094046
20
1.182910
70
0
0
VERTEX
8
Layer 1
10
55.067676
20
1.010644
70
0
0
VERTEX
8
Layer 1
10
55.067676
20
0.500000
70
0
0
VERTEX
8
Layer 1
10
54.909470
20
0.500000
70
0
0
SEQEND
8
Layer 1
0
POLYLINE
8
Layer 1
62
7
70
0
10
0.000000
20
0.000000
66
1
0
VERTEX
8
Layer 1
10
57.242969
20
1.257617
70
0
0
VERTEX
8
Layer 1
10
56.392187
20
1.257617
70
0
0
VERTEX
8
Layer 1
10
56.392187
20
1.405273
70
0
0
VERTEX
8
Layer 1
10
57.242969
20
1.405273
70
0
0
VERTEX
8
Layer 1
10
57.242969
20
1.257617
70
0
0
SEQEND
8
Layer 1
0
POLYLINE
8
Layer 1
62
7
70
0
10
0.000000
20
0.000000
66
1
0
VERTEX
8
Layer 1
10
57.242969
20
0.866504
70
0
0
VERTEX
8
Layer 1
10
56.392187
20
0.866504
70
0
0
VERTEX
8
Layer 1
10
56.392187
20
1.014160
70
0
0
VERTEX
8
Layer 1
10
57.242969
20
1.014160
70
0
0
VERTEX
8
Layer 1
10
57.242969
20
0.866504
70
0
0
SEQEND
8
Layer 1
0
POLYLINE
8
Layer 1
62
7
70
0
10
0.000000
20
0.000000
66
1
0
VERTEX
8
Layer 1
10
57.917969
20
1.135449
70
0
0
VERTEX
8
Layer 1
10
57.964549
20
1.502832
70
0
0
VERTEX
8
Layer 1
10
58.104295
20
1.718164
70
0
0
VERTEX
8
Layer 1
10
58.338084
20
1.793750
70
0
0
VERTEX
8
Layer 1
10
58.520018
20
1.751562
70
0
0
VERTEX
8
Layer 1
10
58.649217
20
1.631152
70
0
0
VERTEX
8
Layer 1
10
58.729197
20
1.439550
70
0
0
VERTEX
8
Layer 1
10
58.758197
20
1.135449
70
0
0
VERTEX
8
Layer 1
10
58.711617
20
0.768945
70
0
0
VERTEX
8
Layer 1
10
58.571871
20
0.553613
70
0
0
VERTEX
8
Layer 1
10
58.338082
20
0.478027
70
0
0
VERTEX
8
Layer 1
10
58.045406
20
0.611621
70
0
0
VERTEX
8
Layer 1
10
57.917965
20
1.135449
70
0
0
VERTEX
8
Layer 1
10
57.917969
20
1.135449
70
0
0
SEQEND
8
Layer 1
0
POLYLINE
8
Layer 1
62
7
70
0
10
0.000000
20
0.000000
66
1
0
VERTEX
8
Layer 1
10
58.080566
20
1.135449
70
0
0
VERTEX
8
Layer 1
10
58.154396
20
0.712695
70
0
0
VERTEX
8
Layer 1
10
58.338087
20
0.608105
70
0
0
VERTEX
8
Layer 1
10
58.520899
20
0.713574
70
0
0
VERTEX
8
Layer 1
10
58.595609
20
1.135449
70
0
0
VERTEX
8
Layer 1
10
58.520899
20
1.558203
70
0
0
VERTEX
8
Layer 1
10
58.336329
20
1.662793
70
0
0
VERTEX
8
Layer 1
10
58.162306
20
1.570508
70
0
0
VERTEX
8
Layer 1
10
58.080566
20
1.135449
70
0
0
VERTEX
8
Layer 1
10
58.080566
20
1.135449
70
0
0
SEQEND
8
Layer 1
0
POLYLINE
8
Layer 1
62
7
70
0
10
0.000000
20
0.000000
66
1
0
VERTEX
8
Layer 1
10
58.956834
20
1.566992
70
0
0
VERTEX
8
Layer 1
10
59.028024
20
1.739258
70
0
0
VERTEX
8
Layer 1
10
59.200290
20
1.810449
70
0
0
VERTEX
8
Layer 1
10
59.373434
20
1.739258
70
0
0
VERTEX
8
Layer 1
10
59.444624
20
1.566992
70
0
0
VERTEX
8
Layer 1
10
59.372554
20
1.393848
70
0
0
VERTEX
8
Layer 1
10
59.200289
20
1.322657
70
0
0
VERTEX
8
Layer 1
10
59.028023
20
1.393848
70
0
0
VERTEX
8
Layer 1
10
58.956833
20
1.566992
70
0
0
VERTEX
8
Layer 1
10
58.956834
20
1.566992
70
0
0
SEQEND
8
Layer 1
0
POLYLINE
8
Layer 1
62
7
70
0
10
0.000000
20
0.000000
66
1
0
VERTEX
8
Layer 1
10
59.052634
20
1.566992
70
0
0
VERTEX
8
Layer 1
10
59.095704
20
1.461523
70
0
0
VERTEX
8
Layer 1
10
59.201173
20
1.418457
70
0
0
VERTEX
8
Layer 1
10
59.304884
20
1.461523
70
0
0
VERTEX
8
Layer 1
10
59.348834
20
1.566992
70
0
0
VERTEX
8
Layer 1
10
59.304884
20
1.671582
70
0
0
VERTEX
8
Layer 1
10
59.201173
20
1.715527
70
0
0
VERTEX
8
Layer 1
10
59.095704
20
1.671582
70
0
0
VERTEX
8
Layer 1
10
59.052634
20
1.566992
70
0
0
VERTEX
8
Layer 1
10
59.052634
20
1.566992
70
0
0
SEQEND
8
Layer 1
 0 
ENDSEC
 0 
EOF